<svg width="121" height="98" viewBox="0 0 121 98" fill="none" xmlns="http://www.w3.org/2000/svg">
<path d="M66.4202 13.2269L75.1564 20.6015C76.2163 21.4963 77.7925 21.3981 78.7335 20.3791L85.1348 13.4444C86.1373 12.3583 86.0304 10.6552 84.8997 9.70318L76.2697 2.43566C75.2218 1.55327 73.6685 1.63837 72.7233 2.63L66.2158 9.4575C65.1857 10.5382 65.2792 12.2636 66.4202 13.2269Z" fill="#0ED290"/>
<path d="M84.8996 9.70318L76.2696 2.43566C75.2217 1.55327 73.6684 1.63837 72.7231 2.63L71.2734 4.15098L77.8665 9.70318C78.9972 10.6552 79.1041 12.3583 78.1016 13.4444L73.0985 18.8647L75.1563 20.6018C76.2161 21.4963 77.7924 21.3984 78.7334 20.3793L85.1347 13.4444C86.1371 12.3586 86.03 10.6554 84.8996 9.70318Z" fill="#00C285"/>
<path d="M118.292 39.3303C117.306 32.9032 113.283 25.4395 99.9112 25.4395C81.0753 25.4395 68.5622 42.3286 64.3481 49.0119C63.6828 50.0669 62.1033 49.9197 61.6482 48.7583C60.4334 45.6577 58.6588 41.3159 56.8499 37.5475C56.0402 35.8605 53.7538 35.5804 52.5522 37.0146L46.25 44.5367C45.6459 45.2578 45.4823 46.2508 45.8234 47.1276L53.2118 66.1198C53.484 66.8194 53.4418 67.6014 53.093 68.266C51.448 71.4013 45.6084 80.0859 31.3922 80.0859C14.7243 80.0859 9.41215 67.8565 15.4562 51.7906C15.8936 50.6276 15.4531 49.3176 14.3928 48.6699L12.7075 47.6401C11.4927 46.8976 9.90679 47.2786 9.16389 48.4929C6.74388 52.4491 2.05859 61.3471 2.05859 70.939C2.05859 83.871 9.62853 96.1722 30.4458 96.1722C50.0253 96.1722 61.5589 84.3474 63.9069 73.3311C64.1641 72.1243 65.2172 71.2545 66.451 71.2545H88.7808C104.15 71.1007 112.241 60.3121 115.781 53.6332C118.106 49.2478 119.044 44.2364 118.292 39.3303ZM107.08 47.0988C105.93 48.7227 101.679 53.4016 89.5199 56.1072C81.2134 57.9556 76.7264 57.924 74.6848 57.7076C73.9588 57.6307 73.5288 56.8601 73.8395 56.1995C75.6467 52.3565 81.8349 40.9659 92.0304 40.1191C102.172 39.2771 106.072 44.1937 107.123 45.9318C107.343 46.2959 107.325 46.7518 107.08 47.0988Z" fill="#0ED290"/>
<path d="M118.29 39.3299C117.692 35.4341 115.978 31.1579 111.743 28.3936C112.457 29.9846 112.888 31.6416 113.133 33.2347C113.885 38.1409 113.657 46.0371 111.332 50.4226C107.791 57.1014 98.9904 65.0052 83.6213 65.159H61.2915C60.0577 65.159 59.0046 66.0287 58.7475 67.2356C56.3992 78.2518 44.8658 90.0766 25.2863 90.0766C16.2995 90.0766 9.7833 87.7828 5.27734 84.1367C9.24036 91.1433 17.1343 96.1718 30.4437 96.1718C50.0232 96.1718 61.5568 84.347 63.9049 73.3307C64.162 72.1239 65.2151 71.2541 66.4489 71.2541H88.7787C104.148 71.1003 112.239 60.3117 115.779 53.6328C118.104 49.2474 119.042 44.236 118.29 39.3299Z" fill="#00C285"/>
<path d="M76.8289 22.9742C75.8366 22.9742 74.84 22.635 74.0226 21.945L65.2863 14.5704C64.3737 13.8001 63.8132 12.6741 63.7485 11.4816C63.6838 10.289 64.1194 9.10914 64.9434 8.24457L71.4511 1.41684C73.034 -0.243622 75.6483 -0.387092 77.4028 1.09051L86.0328 8.35803C86.937 9.11945 87.4982 10.233 87.5723 11.4129C87.6464 12.5927 87.2291 13.7677 86.4271 14.6365L80.0258 21.5714C79.1685 22.5004 78.0015 22.9742 76.8289 22.9742ZM67.5547 11.8834L76.2909 19.258C76.6327 19.5464 77.1383 19.5152 77.4419 19.1863L83.843 12.2517C84.0535 12.0236 84.0711 11.7664 84.0627 11.6335C84.0542 11.5005 84.0048 11.2476 83.7675 11.0479L75.1375 3.78034C74.8011 3.49692 74.2999 3.52435 73.9963 3.84294L67.489 10.6704C67.2727 10.8974 67.2527 11.1566 67.26 11.291C67.2673 11.4255 67.3153 11.6811 67.5547 11.8834Z" fill="black"/>
<path d="M30.4462 97.9298C20.2511 97.9298 12.4039 95.1153 7.12218 89.5638C6.45289 88.8605 6.48055 87.7474 7.18407 87.0781C7.88736 86.4091 9.00043 86.4365 9.66972 87.14C14.2615 91.9662 21.2517 94.4134 30.4459 94.4134C49.1133 94.4134 59.9856 83.2947 62.1876 72.9639C62.6159 70.9544 64.409 69.4957 66.4514 69.4957H88.7812C103.3 69.3504 110.958 58.9786 114.228 52.8091C116.405 48.7026 117.231 44.0103 116.555 39.5963C115.764 34.4433 113.244 30.85 109.065 28.9162C108.184 28.5085 107.8 27.4634 108.208 26.5822C108.616 25.701 109.661 25.3174 110.542 25.7249C115.783 28.15 119.064 32.7624 120.03 39.0632C120.821 44.2197 119.864 49.6861 117.335 54.4562C113.699 61.3161 105.156 72.8485 88.799 73.0119H66.4516C66.0521 73.0119 65.7131 73.2935 65.6271 73.6967C63.1391 85.3684 51.0689 97.9298 30.4462 97.9298ZM31.3923 81.8438C23.6002 81.8438 17.7038 79.2759 14.3409 74.4176C10.4658 68.8194 10.2776 60.5635 13.8109 51.1712C13.952 50.7956 13.8114 50.3743 13.4764 50.1697L11.7911 49.1398C11.4052 48.904 10.8998 49.025 10.6642 49.4097C8.60565 52.7751 3.81721 61.61 3.81721 70.9384C3.81721 73.8535 4.22113 76.6085 5.01772 79.1268C5.31052 80.0525 4.79736 81.0406 3.8716 81.3334C2.9456 81.626 1.95796 81.1131 1.66492 80.1873C0.759792 77.3254 0.300781 74.2136 0.300781 70.9384C0.300781 61.084 4.91457 52.0704 7.66465 47.5748C8.91134 45.5367 11.5848 44.8927 13.6248 46.1392L15.3101 47.169C17.0831 48.2525 17.8367 50.4562 17.1023 52.4092C13.9872 60.6897 14.0334 67.7947 17.2324 72.4163C19.9093 76.2834 24.8058 78.3274 31.3926 78.3274C44.4226 78.3274 49.8203 70.7197 51.5363 67.4487C51.6481 67.2356 51.6617 66.9834 51.5736 66.7564L44.1853 47.7645C43.6117 46.2897 43.8864 44.6198 44.9029 43.4069L51.2051 35.885C52.1566 34.7492 53.603 34.1817 55.0731 34.3662C56.5397 34.5504 57.7967 35.4551 58.4358 36.7859C60.1975 40.4561 61.9234 44.6566 63.1138 47.6772C65.2412 44.3612 69.4891 38.4454 75.5153 33.3736C83.1574 26.9418 91.3657 23.6807 99.9121 23.6807C100.883 23.6807 101.67 24.4679 101.67 25.4389C101.67 26.4099 100.883 27.1971 99.9121 27.1971C93.9801 27.1971 78.7846 29.4141 65.8362 49.9491C65.1723 51.0021 63.9908 51.5821 62.7523 51.4658C61.5155 51.3486 60.4655 50.5565 60.0121 49.3989C58.8416 46.4113 57.0679 42.062 55.2658 38.3076C55.0999 37.9618 54.7996 37.8758 54.6352 37.8552C54.5009 37.8383 54.161 37.8324 53.9008 38.143L47.5986 45.6649C47.4064 45.8944 47.3543 46.2104 47.4629 46.4894L54.8514 65.4816C55.3083 66.6563 55.2351 67.9687 54.6507 69.0822C53.7721 70.7572 51.7405 73.9822 48.0077 76.7612C43.4778 80.1339 37.8876 81.8438 31.3923 81.8438ZM76.871 59.5691C75.9211 59.5691 75.1384 59.5234 74.4998 59.4556C73.5951 59.3598 72.7889 58.8292 72.3428 58.0369C71.8957 57.2426 71.8606 56.2761 72.2488 55.4507C73.2076 53.4114 75.2917 49.4547 78.4745 45.8684C82.5355 41.2923 87.0475 38.7685 91.8852 38.3667C103.123 37.4327 107.541 43.2247 108.628 45.0219C109.209 45.9833 109.164 47.1969 108.515 48.1145C107.108 50.1012 102.48 55.0245 89.902 57.8231C83.7918 59.1828 79.6286 59.5691 76.871 59.5691ZM75.8782 56.0313C78.0877 56.1249 82.2186 55.9303 89.1384 54.3906C99.9069 51.9945 104.06 48.0662 105.367 46.4488C101.978 41.4745 94.4492 41.6824 92.1764 41.8709C83.5825 42.5848 77.9393 51.9532 75.8782 56.0313ZM105.645 46.0824C105.645 46.0831 105.644 46.0838 105.644 46.0845C105.644 46.0836 105.644 46.0831 105.645 46.0824Z" fill="black"/>
</svg>
