<svg width="24" height="24" viewBox="0 0 29 29" fill="none" xmlns="http://www.w3.org/2000/svg">
<g filter="url(#filter0_d_541_1841)">
<path d="M5.3623 1.125C5.60947 1.07726 5.86466 1.09072 6.10547 1.16406C6.2863 1.21919 6.45512 1.30744 6.60352 1.42285L6.74512 1.54688L10.9824 5.78418V5.78516C11.2112 6.01463 11.3625 6.30997 11.4141 6.62988C11.4656 6.9495 11.4143 7.27686 11.2695 7.56641L9.46973 11.1709L17.1709 18.875L20.7744 17.0732L20.8848 17.0234C21.1462 16.9171 21.4328 16.8845 21.7129 16.9297C21.9927 16.9749 22.2542 17.0955 22.4688 17.2783L22.5576 17.3604V17.3613L26.7939 21.5957H26.7949C26.9732 21.7743 27.1049 21.9941 27.1787 22.2354C27.2526 22.4767 27.2666 22.7326 27.2188 22.9805C27.1709 23.2283 27.0627 23.4607 26.9043 23.6572C26.7853 23.8048 26.6405 23.9288 26.4775 24.0234L26.3096 24.1074L18.5791 27.4209C18.2955 27.5422 17.9816 27.576 17.6787 27.5176C17.3759 27.4592 17.098 27.3107 16.8799 27.0928H16.8789L1.25098 11.4639L1.25 11.4629C1.03228 11.2448 0.884551 10.9666 0.826172 10.6641C0.767806 10.3612 0.801573 10.0473 0.922852 9.76367L4.23535 2.03223H4.23633C4.33584 1.80073 4.49026 1.59652 4.68652 1.43848C4.88274 1.28054 5.115 1.17282 5.3623 1.125Z" stroke="black" stroke-width="1.13755" shape-rendering="crispEdges"/>
</g>
<defs>
<filter id="filter0_d_541_1841" x="0.230469" y="0.52832" width="27.8703" height="28.1547" filterUnits="userSpaceOnUse" color-interpolation-filters="sRGB">
<feFlood flood-opacity="0" result="BackgroundImageFix"/>
<feColorMatrix in="SourceAlpha" type="matrix" values="0 0 0 0 0 0 0 0 0 0 0 0 0 0 0 0 0 0 127 0" result="hardAlpha"/>
<feOffset dx="0.284386" dy="0.568773"/>
<feComposite in2="hardAlpha" operator="out"/>
<feColorMatrix type="matrix" values="0 0 0 0 0.677885 0 0 0 0 0.677885 0 0 0 0 0.677885 0 0 0 1 0"/>
<feBlend mode="normal" in2="BackgroundImageFix" result="effect1_dropShadow_541_1841"/>
<feBlend mode="normal" in="SourceGraphic" in2="effect1_dropShadow_541_1841" result="shape"/>
</filter>
</defs>
</svg>
