<svg width="24" height="24" viewBox="0 0 35 38" fill="none" xmlns="http://www.w3.org/2000/svg">
<path d="M17.7481 29.5455C16.1712 29.569 14.6055 29.2787 13.1419 28.6916C11.6783 28.1044 10.346 27.2321 9.22266 26.1253C8.09928 25.0186 7.20719 23.6995 6.59827 22.2448C5.98936 20.7901 5.67578 19.2288 5.67578 17.6518C5.67578 16.0748 5.98936 14.5136 6.59827 13.0589C7.20719 11.6042 8.09928 10.2851 9.22266 9.17835C10.346 8.07159 11.6783 7.19926 13.1419 6.61209C14.6055 6.02493 16.1712 5.73465 17.7481 5.75816C19.3249 5.73465 20.8906 6.02493 22.3542 6.61209C23.8178 7.19926 25.1501 8.07159 26.2735 9.17835C27.3969 10.2851 28.2889 11.6042 28.8979 13.0589C29.5068 14.5136 29.8204 16.0748 29.8204 17.6518C29.8204 19.2288 29.5068 20.7901 28.8979 22.2448C28.2889 23.6995 27.3969 25.0186 26.2735 26.1253C25.1501 27.2321 23.8178 28.1044 22.3542 28.6916C20.8906 29.2787 19.3249 29.569 17.7481 29.5455ZM17.7481 22.9381C18.4747 22.9381 19.0693 22.3567 19.0693 21.6168V13.6868C19.0693 12.9602 18.4747 12.3656 17.7481 12.3656C17.0214 12.3656 16.4268 12.9602 16.4268 13.6868V21.6168C16.4268 22.3435 17.0214 22.9381 17.7481 22.9381ZM19.0693 8.40193C19.0693 8.05152 18.9301 7.71546 18.6823 7.46768C18.4345 7.2199 18.0985 7.0807 17.7481 7.0807C17.3977 7.0807 17.0616 7.2199 16.8138 7.46768C16.566 7.71546 16.4268 8.05152 16.4268 8.40193C16.4268 8.75234 16.566 9.0884 16.8138 9.33618C17.0616 9.58396 17.3977 9.72316 17.7481 9.72316C18.0985 9.72316 18.4345 9.58396 18.6823 9.33618C18.9301 9.0884 19.0693 8.75234 19.0693 8.40193ZM17.7481 28.2243C18.0985 28.2243 18.4345 28.0851 18.6823 27.8373C18.9301 27.5895 19.0693 27.2535 19.0693 26.9031C19.0693 26.5526 18.9301 26.2166 18.6823 25.9688C18.4345 25.721 18.0985 25.5818 17.7481 25.5818C17.3977 25.5818 17.0616 25.721 16.8138 25.9688C16.566 26.2166 16.4268 26.5526 16.4268 26.9031C16.4268 27.2535 16.566 27.5895 16.8138 27.8373C17.0616 28.0851 17.3977 28.2243 17.7481 28.2243ZM25.612 11.1237C25.612 10.7732 25.4728 10.4372 25.225 10.1894C24.9772 9.94163 24.6412 9.80243 24.2908 9.80243C23.9404 9.80243 23.6043 9.94163 23.3565 10.1894C23.1088 10.4372 22.9696 10.7732 22.9696 11.1237C22.9696 11.4741 23.1088 11.8101 23.3565 12.0579C23.6043 12.3057 23.9404 12.4449 24.2908 12.4449C24.6412 12.4449 24.9772 12.3057 25.225 12.0579C25.4728 11.8101 25.612 11.4741 25.612 11.1237ZM11.2054 25.5145C11.5558 25.5145 11.8918 25.3753 12.1396 25.1275C12.3874 24.8797 12.5266 24.5436 12.5266 24.1932C12.5266 23.8428 12.3874 23.5068 12.1396 23.259C11.8918 23.0112 11.5558 22.872 11.2054 22.872C10.8549 22.872 10.5189 23.0112 10.2711 23.259C10.0233 23.5068 9.88413 23.8428 9.88413 24.1932C9.88413 24.5436 10.0233 24.8797 10.2711 25.1275C10.5189 25.3753 10.8549 25.5145 11.2054 25.5145ZM28.1791 17.0692C28.1027 16.9134 27.9963 16.7741 27.8661 16.6594C27.7359 16.5447 27.5843 16.4568 27.4201 16.4007C27.2559 16.3446 27.0822 16.3213 26.909 16.3323C26.7358 16.3433 26.5665 16.3883 26.4107 16.4647C26.2549 16.5411 26.1156 16.6475 26.0009 16.7777C25.8862 16.908 25.7983 17.0595 25.7422 17.2238C25.6861 17.388 25.6628 17.5616 25.6738 17.7348C25.6848 17.908 25.7298 18.0774 25.8062 18.2332C25.9606 18.5478 26.2336 18.7883 26.5653 18.9017C26.8969 19.015 27.26 18.992 27.5747 18.8376C27.8894 18.6833 28.1298 18.4102 28.2432 18.0786C28.3565 17.7469 28.3335 17.3838 28.1791 17.0692ZM9.07157 18.837C9.38624 18.6828 9.62678 18.4099 9.74026 18.0784C9.85374 17.7469 9.83088 17.3838 9.67669 17.0692C9.60035 16.9134 9.49407 16.7741 9.36391 16.6594C9.23376 16.5447 9.08227 16.4567 8.91812 16.4005C8.58659 16.287 8.22356 16.3099 7.90889 16.4641C7.59423 16.6182 7.35369 16.8911 7.24021 17.2226C7.12673 17.5542 7.14959 17.9172 7.30377 18.2319C7.45795 18.5465 7.73082 18.7871 8.06235 18.9005C8.39388 19.014 8.7569 18.9912 9.07157 18.837ZM24.7043 22.946C24.5401 22.8899 24.3664 22.8666 24.1932 22.8776C24.02 22.8886 23.8507 22.9336 23.6949 23.01C23.5391 23.0865 23.3998 23.1928 23.2851 23.3231C23.1704 23.4533 23.0825 23.6049 23.0264 23.7691C22.9702 23.9333 22.947 24.107 22.958 24.2802C22.969 24.4534 23.014 24.6228 23.0904 24.7786C23.1668 24.9344 23.2732 25.0736 23.4035 25.1883C23.5337 25.303 23.6853 25.3909 23.8495 25.4471C24.1812 25.5604 24.5443 25.5374 24.8589 25.383C25.1736 25.2287 25.4141 24.9556 25.5274 24.6239C25.6408 24.2923 25.6178 23.9292 25.4634 23.6145C25.309 23.2998 25.036 23.0593 24.7043 22.946ZM12.4566 11.5464C12.5701 11.2148 12.5472 10.8516 12.393 10.5368C12.2387 10.222 11.9658 9.98136 11.6341 9.86783C11.3024 9.7543 10.9392 9.77717 10.6244 9.93141C10.3096 10.0857 10.069 10.3586 9.95547 10.6903C9.89926 10.8545 9.87594 11.0282 9.88685 11.2014C9.89776 11.3747 9.94268 11.5441 10.0191 11.6999C10.0954 11.8558 10.2018 11.9951 10.332 12.1099C10.4622 12.2247 10.6137 12.3127 10.7779 12.3689C11.1096 12.4824 11.4728 12.4596 11.7876 12.3053C12.1024 12.1511 12.343 11.8781 12.4566 11.5464Z" fill="white"/>
<path d="M16.9166 0.499242C7.67725 0.935247 0.566406 8.88903 0.566406 18.1403V33.3515C0.566406 35.624 2.41612 37.4738 4.68995 37.4738H30.7961C33.0672 37.4738 34.9183 35.624 34.9183 33.3515V17.6501C34.9315 7.89811 26.7769 0.0354915 16.9166 0.497921M17.749 32.1862C9.71986 32.1888 3.21018 25.6792 3.21018 17.6514C3.21018 9.62363 9.71986 3.11527 17.749 3.11527C25.7794 3.11527 32.2877 9.62363 32.2877 17.6514C32.2877 25.6792 25.778 32.1888 17.749 32.1888" fill="white"/>
</svg>
