<svg width="24" height="24" viewBox="0 0 43 38" fill="none" xmlns="http://www.w3.org/2000/svg">
<path d="M0.860156 0.160156C0.575049 0.160156 0.301618 0.273415 0.100016 0.475016C-0.101585 0.676618 -0.214844 0.950048 -0.214844 1.23516V31.7652C-0.214844 32.0503 -0.101585 32.3237 0.100016 32.5253C0.301618 32.7269 0.575049 32.8402 0.860156 32.8402H29.6186C29.2433 32.3454 28.8672 31.8509 28.4902 31.3567C28.0207 30.6639 27.3387 30.071 27.1387 29.229C24.3738 30.3702 21.197 30.476 18.3599 29.5287C18.2975 29.5085 18.2365 29.4836 18.1745 29.4625C17.849 29.7807 17.4981 30.3354 17.4427 30.6902H13.3547C13.6617 29.65 13.0098 28.0259 13.6264 26.9672C13.6754 26.9543 13.7348 26.8713 13.7619 26.7858C13.6922 26.7204 13.6217 26.6568 13.5538 26.5901C12.9492 26.7741 12.7075 27.2295 12.3713 27.629C12.5549 28.4993 11.2296 28.2933 11.3633 29.1813C12.2865 29.8972 10.5111 29.3516 9.98304 29.4088C9.42275 29.4148 7.78359 28.8283 8.35248 30.028C8.26347 30.3573 8.3456 30.5594 8.50943 30.6902H8.25831C8.21918 30.3135 7.50968 30.2576 7.2362 30.0727C6.77567 29.9609 6.2257 29.905 5.74883 29.6926C5.62628 30.0331 4.52032 30.4227 4.27823 30.6902H1.93516V14.9818C2.26497 15.2028 3.00457 15.1151 1.99665 14.6378H1.93516V9.6868C2.13081 9.5879 2.27056 9.55652 2.26196 9.72207C2.74657 9.55867 2.9577 8.37918 3.7962 8.86207C4.31908 8.93904 5.18424 9.74959 4.74951 9.85107C5.08835 10.6784 5.32872 10.1456 5.74453 11.1316C5.45987 12.4801 6.54992 13.4794 7.14805 14.339C7.86443 14.6365 8.1478 15.5628 9.31224 15.5989C9.47048 15.7373 9.67344 15.8629 9.885 15.9833C9.94348 15.5384 10.0247 15.0978 10.1288 14.6615C10.1009 14.655 10.0738 14.6512 10.0437 14.6413C8.92352 15.6746 8.6939 13.8858 9.78782 13.8157C9.86092 13.8111 9.93975 13.8147 10.0243 13.8264C10.1512 13.8114 10.2565 13.8264 10.3455 13.8578C10.7048 12.6801 11.2371 11.5624 11.9249 10.5412C12.2946 9.99022 12.7093 9.47073 13.1646 8.98806C12.9384 8.60966 12.7071 8.39853 12.434 8.8926C12.4134 8.15945 10.4311 7.39104 11.8897 8.09452C12.6546 8.75371 12.9053 7.98014 13.0261 7.4521C13.6819 6.7684 12.3541 6.53491 12.5961 6.08814C12.1937 5.48485 11.5977 4.86694 10.9854 4.49327C9.79771 4.63087 9.38147 4.38018 10.9695 4.37932C11.1126 3.63757 11.3504 3.11211 11.5143 2.48775C11.3423 2.4383 11.1625 2.44604 10.9854 2.44561C10.2256 2.3437 9.77449 2.63739 9.78997 3.21746C9.21936 3.17188 9.73192 2.19922 8.85214 2.49635C7.51828 2.47528 9.13078 2.92592 9.00694 2.99085C8.85429 3.33313 7.89324 3.11985 8.00633 3.46686C7.56601 2.65244 7.36563 3.85515 7.02292 3.03127C6.81652 2.83347 7.88722 3.22649 7.64341 2.50538C7.10419 2.29898 6.91112 2.66018 6.49101 2.80767C5.23713 3.50169 6.70988 4.15443 7.34671 4.38577C8.30647 4.12992 8.30561 3.80656 8.97297 4.16217C9.72117 4.57712 8.21746 4.28558 8.26347 4.92413C8.17747 4.52724 8.06997 4.28773 7.60557 4.79642C6.98637 4.90822 6.70988 4.05725 6.24763 4.11702C5.19413 3.97383 5.58758 6.34313 6.45532 5.53645C6.98035 6.44504 5.78452 5.77467 5.42977 5.67319C4.62868 6.56802 3.76567 5.64997 2.80935 5.61299C2.50319 5.40917 2.20305 5.40659 1.93516 5.51022V2.31016H13.211C12.4069 2.33209 11.6888 2.4383 11.9812 3.01665C11.9339 4.13207 13.377 3.24627 13.5847 4.25505C14.1841 4.95982 13.2282 6.45837 14.265 6.19521C13.8836 6.65918 13.9313 7.39835 14.2289 7.981C15.3297 7.0572 16.578 6.32516 17.9217 5.81552C17.9453 5.68308 17.9269 5.53086 17.8477 5.35112C17.7131 4.67645 18.3392 4.46102 18.1199 3.71282C18.4149 3.14952 18.1861 2.55354 17.6805 2.31016H41.0652V5.3537C40.9984 5.32531 40.9299 5.30119 40.86 5.28146C40.2542 5.83057 40.7439 5.8826 41.0652 5.75919V6.23907C40.3488 5.83616 39.5619 5.79187 38.7978 5.95957C38.4508 5.35628 37.2222 5.37047 36.818 4.82738C36.106 3.97426 37.0352 4.22882 37.6565 4.16303C37.4802 3.62983 36.4224 3.37699 35.9757 3.46514C35.1686 3.90718 36.3997 4.30364 36.2754 4.89704C36.2754 5.32833 35.7495 5.33134 35.2907 5.30769C35.476 4.85103 34.4122 4.28945 33.9904 4.66097C33.1919 4.41931 32.8874 4.56121 33.4142 3.72959C33.2301 3.09018 32.4695 3.07814 32.1285 2.63438C31.6929 3.55802 30.9666 3.27809 30.1883 3.84053C29.8766 4.29633 29.2273 4.70569 29.195 5.00669C28.7125 5.2333 28.2297 4.07703 27.8912 5.10129C27.5842 5.96817 27.9084 6.38828 26.8726 5.67878C25.8006 4.53627 29.026 3.55759 27.8272 3.07126C26.8322 3.36151 26.234 4.06284 26.0362 5.05915C25.9292 5.28576 25.9777 5.44357 26.0908 5.57128C29.868 6.69788 32.9936 9.7354 34.2643 13.4618C34.2841 13.2373 34.3215 13.0215 34.3967 12.8636C34.7145 12.6211 34.4625 13.7946 35.1191 13.1272C34.6354 14.1657 36.3352 13.2648 36.5652 12.8361C36.2281 11.9899 37.7778 11.5913 37.7417 11.4317C37.1711 10.8332 37.4953 11.4287 36.8658 11.5659C36.6572 11.2881 37.2657 9.76507 36.456 9.90482C35.2468 9.5935 37.4846 8.70297 38.0887 9.03063C38.3639 8.01239 38.7595 8.82337 38.0797 9.29164C37.8208 10.1951 37.9446 11.4274 38.7062 10.22C39.0485 9.88676 38.9633 9.01816 39.4088 8.8668C40.0074 8.58472 41.0755 8.36413 41.0475 7.49209C41.0535 7.49037 41.0591 7.4908 41.0652 7.48951V30.6902H39.3628C39.7317 30.1793 40.2198 29.3056 39.7029 28.9886C38.9242 28.8541 38.3424 27.9149 37.4011 27.9541C36.9763 27.4647 35.998 27.217 35.7349 27.1216C35.4717 27.0261 35.0151 27.5778 34.5472 27.334C34.4064 27.3114 34.2627 27.314 34.1228 27.3417C35.5306 29.1692 36.9251 31.0066 38.3248 32.8402H42.1402C42.4253 32.8402 42.6987 32.7269 42.9003 32.5253C43.1019 32.3237 43.2152 32.0503 43.2152 31.7652V1.23516C43.2152 0.950048 43.1019 0.676618 42.9003 0.475016C42.6987 0.273415 42.4253 0.160156 42.1402 0.160156H0.860156ZM21.7969 2.44776C21.1046 2.78875 22.3322 4.14626 22.3662 2.85024C22.493 3.03944 23.344 3.23036 23.0658 2.62019C22.4474 2.25598 22.5416 2.67437 21.7969 2.44776ZM31.7213 2.44905C30.9743 2.81283 32.3749 2.81971 31.7213 2.44905V2.44905ZM7.99386 2.57246C7.43486 2.98784 8.8143 3.39892 8.06696 2.59439L7.99386 2.57246ZM12.5712 2.81885C12.4332 2.90528 12.711 2.95301 12.5712 2.81885V2.81885ZM7.17256 3.3499C7.13816 3.35549 7.23835 3.42601 7.17256 3.3499V3.3499ZM9.08735 3.52706C9.03575 3.80226 9.76116 3.64402 9.08735 3.52706V3.52706ZM10.0312 3.60446C10.2664 3.76356 10.6719 3.56361 10.0312 3.60446V3.60446ZM8.14995 3.63284C8.09663 3.82591 8.56662 3.67584 8.14995 3.63284V3.63284ZM9.48381 4.23828C9.27655 4.36943 9.90521 4.33546 9.48381 4.23828V4.23828ZM9.78094 4.90865C9.52724 5.71791 10.6826 6.81355 9.7861 5.8912C9.53971 5.52226 9.41157 5.1688 9.78094 4.90865ZM8.2768 4.99035C8.64617 5.6074 9.20861 5.77209 8.73776 5.98451C8.42515 5.83315 8.35291 5.36187 8.2768 4.99035ZM14.0728 5.61213C13.9326 5.62073 14.1248 5.64696 14.0728 5.61213V5.61213ZM5.35409 5.80692C5.28744 5.80993 5.30593 6.00214 5.35409 5.80692V5.80692ZM8.68401 6.12254C8.4875 6.11523 8.65391 6.52932 8.68401 6.12254V6.12254ZM11.1556 6.12512C10.9948 6.92062 11.6329 6.86988 11.5899 6.94986C11.0628 7.18206 11.1888 8.13838 10.7854 7.40867C10.5309 7.28999 10.9161 6.23993 11.0894 6.14791L11.1556 6.12512ZM8.56404 6.12598C8.56017 6.31217 8.62037 6.13888 8.56404 6.12598V6.12598ZM39.6685 6.19736C39.5937 6.27046 39.6857 6.2266 39.6685 6.19736V6.19736ZM8.595 6.30142C8.20198 6.58092 8.88826 6.60844 8.595 6.30142V6.30142ZM22.2595 6.72411C19.9147 6.74052 17.6387 7.5183 15.7743 8.94032C11.0056 12.5717 10.0776 19.4173 13.709 24.186C17.1081 28.6498 23.3152 29.7265 28.0065 26.8683L28.9026 28.0452C28.7263 28.4554 28.7426 28.8476 28.9478 29.1176L35.4494 37.6553C35.8364 38.1631 36.7707 38.1025 37.5361 37.5194C38.3015 36.9368 38.6081 36.0523 38.2216 35.544L31.72 27.0063C31.5144 26.7363 31.1408 26.6159 30.6983 26.677L29.8022 25.5005C33.805 21.738 34.4186 15.4686 31.0199 11.0048C29.204 8.62041 26.5845 7.19711 23.823 6.82301C23.3049 6.7528 22.7824 6.71975 22.2595 6.72411ZM10.0523 7.80255C10.321 8.44067 11.359 8.06614 10.9527 8.93603C11.405 9.36173 10.8809 10.8624 10.705 9.58361C9.57927 9.57802 9.04177 8.45486 9.98691 7.86533L10.0523 7.80255ZM11.0331 7.90833C10.4913 8.0713 11.3771 8.20073 11.0331 7.90833V7.90833ZM38.0491 8.69437C38.0792 8.67287 38.1541 8.82724 38.0491 8.69437V8.69437ZM22.6925 9.1334C22.9634 9.144 23.2329 9.16722 23.5009 9.20306C24.6029 9.35199 25.6646 9.71731 26.6249 10.278C27.5852 10.8387 28.4252 11.5837 29.0965 12.4702C29.772 13.3533 30.2664 14.3611 30.5513 15.4358C30.8363 16.5105 30.9062 17.6308 30.757 18.7326C30.6078 19.8343 30.2425 20.8958 29.682 21.856C29.1215 22.8162 28.3769 23.6562 27.4909 24.3279C26.6078 25.0034 25.6 25.4979 24.5252 25.7828C23.4505 26.0678 22.3301 26.1377 21.2283 25.9885C20.1265 25.8394 19.065 25.474 18.1048 24.9135C17.1445 24.353 16.3045 23.6083 15.6328 22.7223C14.9574 21.8391 14.463 20.8313 14.1781 19.7566C13.8932 18.6819 13.8233 17.5615 13.9725 16.4598C14.1218 15.358 14.4871 14.2966 15.0477 13.3364C15.6082 12.3762 16.3528 11.5362 17.2389 10.8646C18.7993 9.6692 20.7284 9.05682 22.6925 9.1334ZM39.2854 9.57629C38.6103 10.1349 40.0959 10.0325 39.2854 9.57629V9.57629ZM40.0895 10.0416C39.3421 10.4066 40.7427 10.4071 40.0895 10.0416V10.0416ZM40.5762 10.2118C39.9097 10.7665 41.2556 10.475 40.5762 10.2118V10.2118ZM40.5496 10.3322C40.5268 10.3714 40.5866 10.3318 40.5496 10.3322V10.3322ZM40.6132 10.4015C40.5595 10.4083 40.6334 10.4341 40.6132 10.4015V10.4015ZM22.4075 10.85C21.4675 10.8332 20.5395 11.0435 19.6838 11.421C19.7286 11.4756 19.7926 11.5281 19.8864 11.5754C19.0264 11.2959 18.7761 12.3825 19.1382 12.8714L19.72 12.9191L20.2063 12.705C20.5206 12.3782 20.5989 12.4345 20.7004 11.9396L20.89 11.9641L21.0405 11.9013L21.3832 12.0707C21.7943 12.2315 21.8136 12.5781 21.676 12.6796C21.4812 12.7996 21.7109 12.8172 21.7298 12.8916C21.827 12.8636 21.8837 12.7798 21.9448 12.7351L22.0549 12.6955C22.4565 12.4319 22.1761 12.3451 21.897 11.9895L22.045 12.0273C22.2613 12.2724 22.3885 12.5497 22.5167 12.8443C22.5313 12.8559 22.5446 12.871 22.5614 12.8761C22.6586 12.9084 22.7957 12.8976 22.9131 12.8654C23.0292 12.8335 23.037 12.6121 23.0172 12.4001C23.1827 13.1552 24.8064 12.9307 23.8402 13.3913C23.2834 13.4037 22.3984 13.0984 22.2355 13.4841C21.8751 13.3207 21.6911 13.2137 21.618 13.1298C21.3961 13.0464 20.7575 12.8047 20.7348 12.8047C20.7077 12.8047 19.895 12.9527 19.895 12.9527L19.2242 13.2072C19.0062 13.9098 18.6622 13.534 18.5452 14.0788C18.4536 14.4271 17.6654 15.1796 18.0782 15.7722C18.4467 17.4861 20.5834 16.3449 21.0813 17.1679C20.8474 17.6749 22.0045 18.6394 21.357 19.4697C21.6623 20.6759 22.4827 22.6922 23.8028 20.9756C24.1511 19.9479 24.901 19.3923 24.8744 18.3728C24.4758 17.3688 26.8223 16.6244 25.8836 15.8113C25.6587 15.838 25.6329 15.8865 25.4544 15.9459C25.0795 15.9317 24.9827 15.6294 24.855 15.4393C24.7575 15.3007 24.6712 15.1544 24.597 15.002C24.8357 15.3718 25.0821 15.6857 25.4278 15.8788C26.0259 15.7446 26.7118 15.3022 26.9908 14.9775C26.9839 13.712 28.685 15.0248 28.6506 15.976C28.756 16.2323 28.8897 16.4103 29.0239 16.5143C28.9289 15.9059 28.7473 15.3143 28.4846 14.7574C28.0078 13.7107 27.2441 12.812 26.3162 12.1395C26.299 12.1662 26.256 12.1679 26.2646 12.1034C26.139 12.0145 26.0107 11.9298 25.8797 11.8493C25.894 11.9092 25.9111 11.9698 25.9309 12.0312C25.8745 11.9473 25.8152 11.8622 25.7662 11.78C24.7531 11.1832 23.5908 10.8414 22.4075 10.85ZM36.3984 10.9067C36.7101 11.7951 35.3139 13.8539 35.1109 12.5024C35.2541 11.8342 36.4001 11.9348 36.3984 10.9067ZM10.2221 11.1415C10.2122 11.1737 10.2849 11.1342 10.2221 11.1415V11.1415ZM10.8847 11.4541C10.7334 11.5324 11.0099 11.5582 10.8847 11.4541V11.4541ZM23.7968 11.4825C24.1438 11.7749 25.2085 12.1619 24.0814 11.8531C23.4949 12.121 23.3135 11.9495 23.7968 11.4825ZM21.1144 12.0028C21.0388 12.026 21.1028 12.183 21.0555 12.2324C21.378 12.3902 21.1974 12.0832 21.2452 12.0329C21.1798 12.0019 21.1394 11.9946 21.1144 12.0028ZM26.0306 12.3231C26.1304 12.5824 26.1966 12.748 25.9403 12.4263C25.9617 12.4162 25.9807 12.4019 25.9962 12.3841C26.0118 12.3664 26.0235 12.3456 26.0306 12.3231ZM21.1445 12.3554C21.0181 12.3416 20.951 12.4263 20.9506 12.5446C21.2839 12.7256 21.2495 12.4268 21.2903 12.404C21.2449 12.3791 21.1958 12.3626 21.1445 12.3554ZM26.2929 14.1971C26.483 14.2048 26.111 14.4723 26.1747 14.2121C26.2276 14.2005 26.2658 14.1958 26.2929 14.1971ZM39.3912 15.8792C38.772 16.5371 40.129 16.6528 39.3912 15.8792V15.8792ZM39.3482 15.9816C39.3366 16.0254 39.4118 15.9747 39.3482 15.9816V15.9816ZM39.4015 16.0757C39.337 16.065 39.4075 16.12 39.4015 16.0757V16.0757ZM39.8517 16.1617C39.2518 16.6838 40.5758 16.4937 39.8517 16.1617V16.1617ZM39.9162 16.3101C39.9076 16.3733 39.9618 16.3024 39.9162 16.3101V16.3101ZM39.8315 16.3329C39.7967 16.363 39.871 16.3862 39.8315 16.3329V16.3329ZM34.9308 17.0088C34.9414 17.2772 34.9437 17.5452 34.9377 17.8129C35.4309 17.8916 36.0488 17.8693 36.0604 18.4149C36.9445 18.4532 35.9692 19.7445 35.937 18.5491C35.5768 18.4972 35.2095 18.5595 34.8865 18.7271C34.797 19.6655 34.6049 20.5912 34.3137 21.4877C35.0361 21.2585 35.7731 21.2809 36.2083 21.9831C37.3543 21.9788 36.3794 22.7601 37.1917 22.9196C37.5379 22.2127 37.0094 22.3017 37.6587 21.7255C38.2887 20.9201 37.8763 19.88 37.248 19.4401C37.1173 18.9421 36.5966 18.6729 36.8417 18.3332C37.319 18.9804 37.9954 18.4958 37.4308 18.1458C37.8475 17.7566 39.3361 19.1485 38.5002 18.0778C38.0874 18.0013 37.5202 17.1477 37.3917 17.6973C37.3547 18.1531 36.2173 17.0054 35.7977 17.475C35.6764 17.0518 35.083 17.3073 35.0495 17.496C35.2318 17.2122 35.117 17.0656 34.9308 17.0088ZM37.1186 17.3765C36.5024 17.7265 37.675 17.7145 37.1186 17.3765V17.3765ZM21.0216 17.4066C21.0074 17.4251 21.071 17.5184 21.0216 17.4066V17.4066ZM15.6238 17.4591C15.6109 18.0561 15.6772 18.6523 15.8211 19.2319C16.3156 18.4829 16.2963 17.7794 15.6238 17.4591ZM37.0868 17.4797C37.0412 17.49 37.1238 17.5064 37.0868 17.4797V17.4797ZM37.5035 17.5313C37.3022 17.6732 37.7043 17.6732 37.5035 17.5313V17.5313ZM37.5035 17.5356C37.3203 17.6672 37.6862 17.6672 37.5035 17.5356V17.5356ZM37.1281 17.573C37.0644 17.5653 37.135 17.6164 37.1281 17.573V17.573ZM34.9342 18.04C34.9299 18.1432 34.9209 18.2464 34.914 18.3496C35.0529 18.1931 35.1131 18.0314 34.9342 18.04ZM25.1337 18.4855C24.6366 18.7585 25.6656 18.8832 25.2356 18.5629L25.2171 18.5169L25.1337 18.4855ZM25.715 18.562C25.224 18.869 24.462 20.3327 25.5185 20.3788C25.7731 20.076 26.4185 18.7263 25.715 18.562ZM39.0347 19.4942C38.6412 20.2704 40.1772 19.9599 39.0347 19.4942V19.4942ZM26.5019 19.5974C25.8629 20.0262 27.1215 19.972 26.5019 19.5974V19.5974ZM40.0602 21.3673C40.424 22.1908 39.2174 22.684 39.3086 23.4485C39.9278 23.7469 40.2473 22.6238 40.6833 22.2802C41.1989 21.8296 40.2774 21.6963 40.0602 21.3673ZM11.4618 23.9C11.5323 24.3532 11.7447 24.7918 12.124 24.9256C11.8867 24.5947 11.6657 24.2525 11.4618 23.9Z" fill="white"/>
</svg>
