<svg width="24" height="24" viewBox="0 0 61 55" fill="none" xmlns="http://www.w3.org/2000/svg">
<path d="M4.41028 9.9277L16.3194 17.9152L28.1917 1.19566C28.454 0.825862 28.8004 0.524438 29.2019 0.316468C29.6035 0.108499 30.0486 0 30.5003 0C30.952 0 31.3971 0.108499 31.7987 0.316468C32.2002 0.524438 32.5466 0.825862 32.809 1.19566L44.6812 17.9123L56.5932 9.9277C57.0438 9.62626 57.5707 9.46078 58.1118 9.4508C58.6529 9.44082 59.1855 9.58676 59.6468 9.87139C60.1081 10.156 60.4789 10.5675 60.7152 11.0571C60.9516 11.5468 61.0437 12.0943 60.9807 12.6349L56.3237 52.4782C56.2431 53.1727 55.9117 53.8131 55.3925 54.278C54.8734 54.7429 54.2025 54.9998 53.5074 55H7.49604C6.80093 54.9998 6.13009 54.7429 5.6109 54.278C5.09172 53.8131 4.76035 53.1727 4.67971 52.4782L0.019868 12.6377C-0.0441674 12.0964 0.0473367 11.548 0.283548 11.0574C0.51976 10.5668 0.890788 10.1545 1.35271 9.86936C1.81463 9.58423 2.34811 9.43819 2.88998 9.44853C3.43186 9.45887 3.95944 9.62515 4.41028 9.9277ZM30.5031 37.8839C32.0075 37.8839 33.4503 37.2828 34.5141 36.2129C35.5779 35.1429 36.1755 33.6917 36.1755 32.1786C36.1755 30.6654 35.5779 29.2142 34.5141 28.1443C33.4503 27.0743 32.0075 26.4732 30.5031 26.4732C28.9987 26.4732 27.5559 27.0743 26.4922 28.1443C25.4284 29.2142 24.8308 30.6654 24.8308 32.1786C24.8308 33.6917 25.4284 35.1429 26.4922 36.2129C27.5559 37.2828 28.9987 37.8839 30.5031 37.8839Z" fill="#FBB038"/>
</svg>
