<svg width="24" height="24" viewBox="0 0 18 18" fill="none" xmlns="http://www.w3.org/2000/svg">
<path d="M14.6574 0.826875C14.3114 0.480951 13.8421 0.286621 13.3528 0.286621C12.8635 0.286621 12.3943 0.480951 12.0482 0.826875L10.5306 2.34549L15.4231 7.23807L16.9408 5.72131C17.1123 5.54995 17.2482 5.34651 17.341 5.12259C17.4338 4.89866 17.4816 4.65866 17.4816 4.41628C17.4816 4.1739 17.4338 3.93389 17.341 3.70997C17.2482 3.48605 17.1123 3.28261 16.9408 3.11125L14.6574 0.826875ZM14.1186 8.54264L9.22599 3.65005L1.07476 11.8013L0.0820312 17.6875L5.96827 16.6939L14.1186 8.54264Z" fill="white"/>
</svg>
