<svg width="18" height="18" viewBox="0 0 24 22" fill="none" xmlns="http://www.w3.org/2000/svg">
<path d="M0.0283077 3.20833C1.03902 2.32014 2.34268 1.83091 3.69231 1.83333H20.3077C21.712 1.83333 22.9945 2.35278 23.9717 3.20833C23.8593 2.32215 23.425 1.50719 22.7503 0.916453C22.0757 0.32572 21.2071 -0.000157672 20.3077 5.72302e-08H3.69231C2.79287 -0.000157672 1.9243 0.32572 1.24967 0.916453C0.575036 1.50719 0.140738 2.32215 0.0283077 3.20833ZM0.0283077 6.875C1.03902 5.98681 2.34268 5.49758 3.69231 5.5H20.3077C21.712 5.5 22.9945 6.01944 23.9717 6.875C23.8593 5.98881 23.425 5.17385 22.7503 4.58312C22.0757 3.99239 21.2071 3.66651 20.3077 3.66667H3.69231C2.79287 3.66651 1.9243 3.99239 1.24967 4.58312C0.575036 5.17385 0.140738 5.98881 0.0283077 6.875ZM3.69231 7.33333C2.71305 7.33333 1.77389 7.71964 1.08145 8.40727C0.38901 9.09491 0 10.0275 0 11V18.3333C0 19.3058 0.38901 20.2384 1.08145 20.9261C1.77389 21.6137 2.71305 22 3.69231 22H20.3077C21.287 22 22.2261 21.6137 22.9185 20.9261C23.611 20.2384 24 19.3058 24 18.3333V11C24 10.0275 23.611 9.09491 22.9185 8.40727C22.2261 7.71964 21.287 7.33333 20.3077 7.33333H15.6923C15.4475 7.33333 15.2127 7.42991 15.0396 7.60182C14.8665 7.77373 14.7692 8.00688 14.7692 8.25C14.7692 8.97935 14.4775 9.67882 13.9581 10.1945C13.4388 10.7103 12.7344 11 12 11C11.2656 11 10.5612 10.7103 10.0419 10.1945C9.52253 9.67882 9.23077 8.97935 9.23077 8.25C9.23077 8.00688 9.13352 7.77373 8.96041 7.60182C8.7873 7.42991 8.55251 7.33333 8.30769 7.33333H3.69231Z" fill="black"/>
</svg>
