<svg width="30" height="30" viewBox="0 0 30 30" fill="none" xmlns="http://www.w3.org/2000/svg">
<g clip-path="url(#clip0_404_869)">
<path d="M15.0027 0.938477L5.06016 5.05723L0.941406 14.9997L5.06016 24.9422L15.0027 29.061L24.9452 24.9422L29.0639 14.9997L24.9452 5.05723L15.0027 0.938477Z" fill="white"/>
<path d="M11.155 21.3913L8.765 13.5662L15.0162 9.01125L21.2687 13.5675L18.8812 21.3913H11.155ZM11.0063 2.59375L15.0162 4.30625L19.01 2.60125L15 0.9375L11.0063 2.59375ZM28.7238 15.8125L25.1287 11.6762L25.58 6.57L29.0613 15L28.7238 15.8125ZM25.9425 22.53L21.2675 23.6063L19.0025 27.4025L24.9425 24.9425L25.9425 22.53ZM1.27625 15.8125L4.87125 11.6762L4.42 6.57L0.9375 15L1.27625 15.8125ZM4.0575 22.53L8.7325 23.6063L10.9975 27.4025L5.0575 24.9425L4.0575 22.53Z" fill="#BBD8FF"/>
<path d="M15.0027 0.938477L5.06016 5.05723L0.941406 14.9997L5.06016 24.9422L15.0027 29.061L24.9452 24.9422L29.0639 14.9997L24.9452 5.05723L15.0027 0.938477Z" stroke="#092F63" stroke-width="1.25" stroke-linecap="round" stroke-linejoin="round"/>
<path d="M11.1527 21.3909L8.76266 13.5659L15.0139 9.01086M11.1527 21.3909H18.8789M11.1527 21.3909L8.76391 23.6084M15.0139 9.01086L21.2664 13.5671L18.8789 21.3909M15.0139 9.01086V4.30586L19.0077 2.59961L24.9402 5.05711L25.5777 6.56961L25.1277 11.6759L21.2652 13.5659L15.0139 9.01086ZM18.8789 21.3909L21.2652 23.6059M4.44391 6.53086L4.89891 11.6784M4.89891 11.6784L1.28516 15.8396M4.89891 11.6784L8.76141 13.5659M4.05266 22.5246L8.76391 23.6096L11.0427 27.4221M21.2652 23.6059L25.9402 22.5296L24.9402 24.9421L19.0002 27.4021L21.2652 23.6059Z" stroke="#092F63" stroke-width="1.25" stroke-linecap="round" stroke-linejoin="round"/>
<path d="M11.0078 2.59375L15.0178 4.30625L19.0116 2.60125L15.0016 0.9375L11.0078 2.59375ZM28.7253 15.8125L25.1303 11.6762L25.5816 6.57L29.0628 15L28.7253 15.8125Z" stroke="#092F63" stroke-width="1.25" stroke-linecap="round" stroke-linejoin="round"/>
</g>
<defs>
<clipPath id="clip0_404_869">
<rect width="30" height="30" fill="white"/>
</clipPath>
</defs>
</svg>
