<svg width="24" height="24" viewBox="0 0 30 30" fill="none" xmlns="http://www.w3.org/2000/svg">
<path d="M29.1205 24.0982L20.285 15.2628L29.1205 6.42738C29.2898 6.256 29.3847 6.02482 29.3847 5.78392C29.3847 5.54303 29.2898 5.31184 29.1205 5.14047L24.9467 0.966666C24.776 0.796045 24.5445 0.700195 24.3032 0.700195C24.0619 0.700195 23.8304 0.796045 23.6598 0.966666L14.8243 9.8021L5.9889 0.966666C5.81823 0.796045 5.58678 0.700195 5.34545 0.700195C5.10412 0.700195 4.87266 0.796045 4.70199 0.966666L0.528189 5.14047C0.357568 5.31114 0.261719 5.54259 0.261719 5.78392C0.261719 6.02525 0.357568 6.2567 0.528189 6.42738L9.36362 15.2628L0.528189 24.0982C0.357568 24.2689 0.261719 24.5004 0.261719 24.7417C0.261719 24.983 0.357568 25.2145 0.528189 25.3851L4.70199 29.559C4.87266 29.7296 5.10412 29.8254 5.34545 29.8254C5.58678 29.8254 5.81823 29.7296 5.9889 29.559L14.8243 20.7235L23.6598 29.559C23.8304 29.7296 24.0619 29.8254 24.3032 29.8254C24.5445 29.8254 24.776 29.7296 24.9467 29.559L29.1205 25.3851C29.2911 25.2145 29.3869 24.983 29.3869 24.7417C29.3869 24.5004 29.2911 24.2689 29.1205 24.0982Z" fill="white"/>
</svg>
