<svg width="39" height="26" viewBox="0 0 39 26" fill="none" xmlns="http://www.w3.org/2000/svg">
<path d="M3.49375 0.202916L2.756 0.207792C2.51225 0.215917 2.26362 0.228916 2.0215 0.272791C1.65558 0.330618 1.30862 0.474497 1.00916 0.692592C0.709707 0.910687 0.466311 1.19677 0.299 1.52729C0.18525 1.75154 0.11375 1.97904 0.0715 2.22604C0.026 2.46654 0.011375 2.71354 0.0065 2.95729L0 3.29692V22.077C0 22.1897 0.001625 22.3018 0.004875 22.4134C0.011375 22.6572 0.026 22.9058 0.069875 23.1479C0.112125 23.3906 0.189042 23.623 0.300625 23.845C0.525071 24.2859 0.883482 24.6443 1.32438 24.8688C1.54862 24.9825 1.77612 25.0557 2.02312 25.0995C2.26362 25.1434 2.51062 25.158 2.75437 25.1645L3.09238 25.1694H35.9076L36.244 25.1645C36.4878 25.158 36.7364 25.1434 36.9785 25.0995C37.2206 25.0557 37.4514 24.9842 37.674 24.8704C38.1164 24.6467 38.4757 24.2875 38.6994 23.845C38.8131 23.6208 38.8862 23.3933 38.9285 23.1463C38.9724 22.9058 38.987 22.6588 38.9935 22.415C38.9967 22.3024 38.9984 22.1897 38.9984 22.077L39 21.6773V3.29529C39 3.18262 38.9978 3.0705 38.9935 2.95892C38.9904 2.71279 38.9687 2.46726 38.9285 2.22442C38.8498 1.73545 38.619 1.28371 38.269 0.93337C37.9189 0.583026 37.4674 0.351889 36.9785 0.272791C36.7357 0.232613 36.4901 0.210884 36.244 0.207792C35.9987 0.201114 35.7533 0.199488 35.5079 0.202916H3.49375ZM3.49375 1.03492H35.8995C36.0057 1.03492 36.1124 1.03654 36.2196 1.03979C36.4065 1.04629 36.6259 1.05604 36.829 1.09179C37.0061 1.12429 37.154 1.17304 37.2954 1.24454C37.5802 1.38951 37.8118 1.62107 37.9567 1.90592C38.0311 2.05325 38.0826 2.21106 38.1095 2.37392C38.1453 2.57379 38.155 2.79317 38.1599 2.98167C38.1631 3.08675 38.1647 3.19346 38.1647 3.30179V22.0738C38.1647 22.1789 38.1631 22.285 38.1599 22.3923C38.155 22.5792 38.1453 22.7985 38.1079 23.0017C38.0723 23.2407 37.98 23.4676 37.8386 23.6636C37.6973 23.8595 37.511 24.0187 37.2954 24.1278C37.1491 24.2019 36.9924 24.2534 36.8306 24.2805C36.6299 24.3105 36.4274 24.3278 36.2245 24.3325L35.8995 24.3374H3.09725C2.98892 24.3374 2.88275 24.3358 2.77875 24.3325C2.57474 24.328 2.37121 24.3106 2.16937 24.2805C1.99225 24.248 1.84438 24.1993 1.70138 24.1278C1.41507 23.9854 1.18333 23.7531 1.04162 23.4664C0.967236 23.3191 0.915729 23.1613 0.888875 22.9984C0.856417 22.798 0.839035 22.5953 0.836875 22.3923L0.833625 22.0722V3.30017L0.836875 2.98004C0.843375 2.79479 0.853125 2.57704 0.888875 2.37067C0.921375 2.19517 0.970125 2.04729 1.04162 1.90429C1.18687 1.62005 1.4184 1.38909 1.703 1.24454C1.84983 1.17031 2.00708 1.1188 2.16937 1.09179C2.3725 1.05604 2.59187 1.04467 2.77875 1.03979L3.09725 1.03492H3.49375Z" fill="black"/>
<g clip-path="url(#clip0_1070_90)">
<path d="M24.0098 10.6304C24.6307 10.6304 25.1106 10.7997 25.4776 11.1385C25.8445 11.4772 26.0138 11.9288 26.0138 12.4933V15.203H25.2235V14.5821H25.1952C24.8566 15.0902 24.3767 15.3442 23.8122 15.3442C23.3323 15.3442 22.9089 15.2031 22.5702 14.9208C22.2597 14.6386 22.0621 14.2434 22.0621 13.82C22.0621 13.3684 22.2315 13.0014 22.5702 12.7192C22.9089 12.4369 23.3888 12.324 23.9533 12.324C24.4613 12.324 24.8566 12.4087 25.167 12.6063V12.4087C25.167 12.1452 25.0687 11.8818 24.8719 11.7101L24.8283 11.6748C24.6025 11.4772 24.3202 11.3643 24.0098 11.3643C23.5299 11.3643 23.1629 11.5619 22.9089 11.9571L22.175 11.5053C22.6266 10.9126 23.2194 10.6304 24.0098 10.6304ZM20.0298 8.71094C20.5363 8.71094 21.0176 8.88719 21.4024 9.21586L21.4694 9.27542C21.8645 9.61416 22.0621 10.1223 22.0621 10.6586C22.0621 11.1948 21.8645 11.6747 21.4694 12.0416C21.0742 12.4086 20.5943 12.6062 20.0298 12.6062L18.675 12.5779V15.203H17.8281V8.71094H20.0298ZM24.1226 13.0014C23.7839 13.0014 23.5017 13.0861 23.2759 13.2554C23.05 13.3965 22.9371 13.5941 22.9371 13.8481C22.9371 14.074 23.0501 14.2715 23.2194 14.3845C23.417 14.5256 23.6428 14.6103 23.8686 14.6103C24.1847 14.6103 24.5009 14.4873 24.7482 14.2644L24.8001 14.2151C25.0823 13.9611 25.2235 13.6506 25.2235 13.3118C24.9694 13.1143 24.6025 13.0013 24.1227 13.0013M20.0863 9.50122H18.675V11.7595H20.0863C20.3968 11.7595 20.7073 11.6466 20.9049 11.4208C21.3565 10.9974 21.3565 10.2917 20.9331 9.86828L20.9049 9.84004C20.6791 9.61425 20.3968 9.47311 20.0863 9.50135M30.5865 10.7715L27.7921 17.1789H26.9453L27.9897 14.949L26.1549 10.7997H27.0582L28.3848 13.9893H28.4131L29.7115 10.7997H30.5865V10.7715Z" fill="#5F6368"/>
<path d="M15.3191 12.0131C15.3191 11.759 15.2908 11.505 15.2626 11.251H11.7344V12.6905H13.7384C13.6538 13.1421 13.3997 13.5655 13.0046 13.8196V14.7511H14.2183C14.9239 14.1019 15.3191 13.1421 15.3191 12.0131" fill="#4285F4"/>
<path d="M11.733 15.654C12.7492 15.654 13.596 15.3153 14.217 14.7508L13.0032 13.8193C12.6645 14.0451 12.2411 14.1862 11.733 14.1862C10.7733 14.1862 9.92652 13.5371 9.64426 12.6338H8.40234V13.5935C9.05153 14.8637 10.3217 15.654 11.733 15.654Z" fill="#34A853"/>
<path d="M9.64417 12.6346C9.47484 12.183 9.47484 11.6749 9.64417 11.195V10.2354H8.40225C7.86592 11.2797 7.86592 12.5217 8.40225 13.5943L9.64417 12.6346Z" fill="#FBBC04"/>
<path d="M11.7322 9.67048C12.2685 9.67048 12.7766 9.86808 13.1718 10.235L14.2443 9.16242C13.5669 8.54142 12.6637 8.1745 11.7604 8.20269C10.3491 8.20269 9.05069 8.99305 8.42969 10.2632L9.67164 11.2229C9.92567 10.3197 10.7725 9.67048 11.7322 9.67048Z" fill="#EA4335"/>
</g>
<defs>
<clipPath id="clip0_1070_90">
<rect width="22.5882" height="9" fill="white" transform="translate(8 8.20117)"/>
</clipPath>
</defs>
</svg>
