<svg width="24" height="24" viewBox="0 0 76 76" fill="currenColor" xmlns="http://www.w3.org/2000/svg">
<path d="M42.6667 31.6663C46.0261 31.6663 49.2479 30.3318 51.6234 27.9564C53.9988 25.5809 55.3333 22.3591 55.3333 18.9997C55.3333 15.6403 53.9988 12.4184 51.6234 10.043C49.2479 7.66753 46.0261 6.33301 42.6667 6.33301C39.3073 6.33301 36.0854 7.66753 33.71 10.043C31.3345 12.4184 30 15.6403 30 18.9997C30 22.3591 31.3345 25.5809 33.71 27.9564C36.0854 30.3318 39.3073 31.6663 42.6667 31.6663ZM22.0833 41.1663C24.183 41.1663 26.1966 40.3323 27.6813 38.8476C29.1659 37.3629 30 35.3493 30 33.2497C30 31.15 29.1659 29.1364 27.6813 27.6517C26.1966 26.1671 24.183 25.333 22.0833 25.333C19.9837 25.333 17.9701 26.1671 16.4854 27.6517C15.0007 29.1364 14.1667 31.15 14.1667 33.2497C14.1667 35.3493 15.0007 37.3629 16.4854 38.8476C17.9701 40.3323 19.9837 41.1663 22.0833 41.1663ZM71.1667 33.2497C71.1667 35.3493 70.3326 37.3629 68.8479 38.8476C67.3633 40.3323 65.3496 41.1663 63.25 41.1663C61.1504 41.1663 59.1367 40.3323 57.6521 38.8476C56.1674 37.3629 55.3333 35.3493 55.3333 33.2497C55.3333 31.15 56.1674 29.1364 57.6521 27.6517C59.1367 26.1671 61.1504 25.333 63.25 25.333C65.3496 25.333 67.3633 26.1671 68.8479 27.6517C70.3326 29.1364 71.1667 31.15 71.1667 33.2497ZM42.6667 34.833C46.8659 34.833 50.8932 36.5012 53.8625 39.4705C56.8318 42.4398 58.5 46.4671 58.5 50.6663V69.6663H26.8333V50.6663C26.8333 46.4671 28.5015 42.4398 31.4708 39.4705C34.4401 36.5012 38.4674 34.833 42.6667 34.833ZM20.5 50.6663C20.5 48.4718 20.8167 46.3533 21.412 44.352L20.8737 44.3963C18.1594 44.6944 15.6508 45.9838 13.8287 48.0175C12.0066 50.0511 10.9993 52.6858 11 55.4163V69.6663H20.5V50.6663ZM74.3333 69.6663V55.4163C74.3337 52.5928 73.2564 49.8757 71.3214 47.8194C69.3864 45.7632 66.7396 44.523 63.9213 44.352C64.5135 46.3533 64.8333 48.4718 64.8333 50.6663V69.6663H74.3333Z" fill="currenColor"/>
</svg>
