<svg width="24" height="24" viewBox="0 0 43 44" fill="none" xmlns="http://www.w3.org/2000/svg">
<path d="M21.4634 29.8664C31.9561 29.8664 40.462 26.3332 40.462 21.9747C40.462 17.6163 31.9561 14.083 21.4634 14.083C10.9708 14.083 2.46484 17.6163 2.46484 21.9747C2.46484 26.3332 10.9708 29.8664 21.4634 29.8664Z" fill="#3F3F3F"/>
<path d="M21.4634 19.9287C29.3668 19.9287 36.1403 21.8596 39.0035 24.6053C39.9417 23.7051 40.462 22.7183 40.462 21.6824C40.462 17.4852 31.9565 14.083 21.4634 14.083C10.9704 14.083 2.46484 17.4852 2.46484 21.6824C2.46484 22.7183 2.98511 23.7051 3.92335 24.6053C6.78658 21.8596 13.5606 19.9287 21.4634 19.9287Z" fill="#9B9B9A"/>
<path d="M21.4634 29.8664C31.9561 29.8664 40.462 26.3332 40.462 21.9747C40.462 17.6163 31.9561 14.083 21.4634 14.083C10.9708 14.083 2.46484 17.6163 2.46484 21.9747C2.46484 26.3332 10.9708 29.8664 21.4634 29.8664Z" stroke="black" stroke-width="1.16914" stroke-miterlimit="10"/>
<path d="M21.4634 19.9287C29.3668 19.9287 36.1403 21.8596 39.0035 24.6053C39.9417 23.7051 40.462 22.7183 40.462 21.6824C40.462 17.4852 31.9565 14.083 21.4634 14.083C10.9704 14.083 2.46484 17.4852 2.46484 21.6824C2.46484 22.7183 2.98511 23.7051 3.92335 24.6053C6.78658 21.8596 13.5606 19.9287 21.4634 19.9287Z" stroke="black" stroke-width="1.16914" stroke-miterlimit="10"/>
</svg>
