<svg width="115" height="114" viewBox="0 0 115 114" fill="none" xmlns="http://www.w3.org/2000/svg">
<g clip-path="url(#clip0_576_994)">
<path d="M107.447 36.2752C106.839 35.8459 106.119 35.625 105.395 35.625C104.99 35.625 104.586 35.6927 104.196 35.8316L96.4883 38.5837V32.0625C96.4883 30.9172 95.9379 29.8431 95.0081 29.1733C94.3953 28.7298 93.665 28.5 92.9258 28.5C92.5482 28.5 92.167 28.5606 91.8 28.6835L59.7375 39.371C58.2822 39.8555 57.3008 41.2163 57.3008 42.75C57.3008 41.2163 56.3193 39.8555 54.864 39.371L22.8015 28.6835C22.4346 28.5606 22.0534 28.5 21.6758 28.5C20.9366 28.5 20.2063 28.7298 19.5935 29.1733C18.6637 29.8431 18.1133 30.9172 18.1133 32.0625V38.5837L10.4058 35.8316C10.0157 35.6927 9.61138 35.625 9.20703 35.625C8.48206 35.625 7.76244 35.8459 7.15503 36.2752C6.20741 36.9431 5.64453 38.0297 5.64453 39.1875V81.9375C5.64453 83.4444 6.59038 84.7875 8.00825 85.2934L27.0195 92.0817V108.656C27.0195 109.814 27.5824 110.901 28.53 111.569C29.1392 111.998 29.8571 112.219 30.582 112.219C30.9864 112.219 31.3907 112.151 31.7808 112.012L57.3008 102.897L82.8207 112.012C83.2108 112.151 83.6152 112.219 84.0195 112.219C84.7445 112.219 85.4641 111.998 86.0715 111.569C87.0192 110.901 87.582 109.814 87.582 108.656V92.0817L106.593 85.2916C108.011 84.7875 108.957 83.4444 108.957 81.9375V39.1875C108.957 38.0297 108.394 36.9431 107.447 36.2752Z" fill="#787680"/>
<path d="M107.447 36.2752C106.839 35.8459 106.119 35.625 105.395 35.625C104.99 35.625 104.586 35.6927 104.196 35.8316L96.4883 38.5837V32.0625C96.4883 30.9172 95.9379 29.8431 95.0081 29.1733C94.3953 28.7298 93.665 28.5 92.9258 28.5C92.5482 28.5 92.167 28.5606 91.8 28.6835L59.7375 39.371C58.2822 39.8555 57.3008 41.2163 57.3008 42.75C57.3008 41.2163 56.3193 39.8555 54.864 39.371L22.8015 28.6835C22.4346 28.5606 22.0534 28.5 21.6758 28.5C20.9366 28.5 20.2063 28.7298 19.5935 29.1733C18.6637 29.8431 18.1133 30.9172 18.1133 32.0625V38.5837L10.4058 35.8316C10.0157 35.6927 9.61138 35.625 9.20703 35.625C8.48206 35.625 7.76244 35.8459 7.15503 36.2752C6.20741 36.9431 5.64453 38.0297 5.64453 39.1875V81.9375C5.64453 83.4444 6.59038 84.7875 8.00825 85.2934L57.3008 102.897L87.582 92.0835L106.593 85.2934C108.011 84.7875 108.957 83.4444 108.957 81.9375V39.1875C108.957 38.0297 108.394 36.9431 107.447 36.2752Z" fill="#FF9478"/>
<path d="M53.7383 92.625C53.3607 92.625 52.9795 92.5644 52.6125 92.4415L20.55 81.754C19.0948 81.2695 18.1133 79.9087 18.1133 78.375V32.0625C18.1133 30.9172 18.6637 29.8431 19.5935 29.1733C20.2063 28.7298 20.9366 28.5 21.6758 28.5C22.0534 28.5 22.4346 28.5606 22.8015 28.6835L54.864 39.371C56.3193 39.8555 57.3008 41.2163 57.3008 42.75V89.0625C57.3008 90.2078 56.7504 91.2819 55.8206 91.9517C55.2078 92.3952 54.4775 92.625 53.7383 92.625Z" fill="#FFDAAA"/>
<path d="M60.8633 92.625C60.1241 92.625 59.3938 92.3952 58.781 91.9517C57.8512 91.2819 57.3008 90.2078 57.3008 89.0625V42.75C57.3008 41.2163 58.2823 39.8555 59.7375 39.371L91.8 28.6835C92.167 28.5606 92.5482 28.5 92.9258 28.5C93.665 28.5 94.3953 28.7298 95.0081 29.1733C95.9379 29.8431 96.4883 30.9172 96.4883 32.0625V78.375C96.4883 79.9087 95.5068 81.2695 94.0515 81.754L61.989 92.4415C61.6221 92.5644 61.2409 92.625 60.8633 92.625Z" fill="#FFDAAA"/>
<path d="M53.7383 92.625C53.3607 92.625 52.9795 92.5644 52.6125 92.4415L20.55 81.754C19.0948 81.2695 18.1133 79.9087 18.1133 78.375V32.0625C18.1133 30.9172 18.6637 29.8431 19.5935 29.1733C20.2063 28.7298 20.9366 28.5 21.6758 28.5C22.0534 28.5 22.4346 28.5606 22.8015 28.6835L54.864 39.371C56.3193 39.8555 57.3008 41.2163 57.3008 42.75V89.0625C57.3008 90.2078 56.7504 91.2819 55.8206 91.9517C55.2078 92.3952 54.4775 92.625 53.7383 92.625Z" fill="#FFDAAA"/>
<path d="M60.8633 92.625C60.1241 92.625 59.3938 92.3952 58.781 91.9517C57.8512 91.2819 57.3008 90.2078 57.3008 89.0625V42.75C57.3008 41.2163 58.2823 39.8555 59.7375 39.371L91.8 28.6835C92.167 28.5606 92.5482 28.5 92.9258 28.5C93.665 28.5 94.3953 28.7298 95.0081 29.1733C95.9379 29.8431 96.4883 30.9172 96.4883 32.0625V78.375C96.4883 79.9087 95.5068 81.2695 94.0515 81.754L61.989 92.4415C61.6221 92.5644 61.2409 92.625 60.8633 92.625Z" fill="#FFDAAA"/>
<path d="M62.6445 21.375C57.7247 21.375 53.7383 17.3886 53.7383 12.4688C53.7383 7.54894 57.7247 3.5625 62.6445 3.5625C63.2983 3.5625 63.9342 3.64266 64.5469 3.77803C62.4219 2.51691 59.9495 1.78125 57.3008 1.78125C49.4312 1.78125 43.0508 8.16169 43.0508 16.0312C43.0508 23.9008 49.4312 30.2812 57.3008 30.2812C65.1703 30.2812 71.5508 23.9008 71.5508 16.0312C71.5508 15.349 71.4867 14.6846 71.394 14.0273C70.653 18.199 67.0282 21.375 62.6445 21.375Z" fill="#FFCD00"/>
<path d="M108.474 34.8195C107.065 33.8256 105.215 33.5744 103.597 34.1551L98.2695 36.0557V32.0622C98.2695 30.3504 97.4395 28.7294 96.0519 27.7284C94.675 26.7327 92.8759 26.4494 91.2354 26.9927L59.1729 37.6802C58.4604 37.9189 57.8352 38.3072 57.3008 38.7846C56.7664 38.3054 56.1412 37.9189 55.4287 37.6802L23.3626 26.9909C21.7363 26.4512 19.9284 26.7327 18.5515 27.7266C17.1621 28.7294 16.332 30.3504 16.332 32.0622V36.0557L11.0043 34.1551C9.38694 33.5762 7.53622 33.8256 6.12725 34.8195C4.70937 35.8206 3.86328 37.4522 3.86328 39.1872V81.9372C3.86328 84.1904 5.28828 86.2122 7.40975 86.9692L25.2383 93.3354V108.656C25.2383 110.391 26.0844 112.022 27.5023 113.024C28.4071 113.663 29.4723 114 30.582 114C31.1983 114 31.8022 113.895 32.3793 113.688L57.3008 104.787L82.2223 113.688C82.7994 113.895 83.4032 114 84.0195 114C85.1292 114 86.1944 113.663 87.0993 113.024C88.5172 112.022 89.3633 110.391 89.3633 108.656V93.3354L107.192 86.9692C109.313 86.2122 110.738 84.1904 110.738 81.9372V39.1872C110.738 37.4522 109.892 35.8206 108.474 34.8195ZM60.3004 41.0593L92.3593 30.3735C92.5446 30.313 92.7352 30.2809 92.9258 30.2809C93.3016 30.2809 93.6614 30.3967 93.966 30.6194C94.4309 30.9524 94.707 31.4922 94.707 32.0622V78.3747C94.707 79.1424 94.2172 79.821 93.4887 80.0651L61.4297 90.7508C60.8793 90.9325 60.2808 90.8381 59.823 90.505C59.3581 90.1719 59.082 89.6322 59.082 89.0622V42.7497C59.082 41.9819 59.5719 41.3033 60.3004 41.0593ZM19.8945 32.0622C19.8945 31.4922 20.1706 30.9524 20.6355 30.6158C20.9401 30.3967 21.2999 30.2809 21.6758 30.2809C21.8664 30.2809 22.057 30.313 22.2387 30.3718L54.3012 41.0593C55.0297 41.3033 55.5195 41.9819 55.5195 42.7497V89.0622C55.5195 89.6322 55.2434 90.1719 54.7785 90.5085C54.3208 90.8399 53.7169 90.9289 53.1754 90.7544L21.1129 80.0669C20.3844 79.821 19.8945 79.1424 19.8945 78.3747V32.0622ZM31.1805 110.334C30.6462 110.524 30.0263 110.441 29.556 110.111C29.084 109.778 28.8008 109.233 28.8008 108.656V94.609L52.0069 102.895L31.1805 110.334ZM85.8008 108.656C85.8008 109.233 85.5176 109.778 85.0455 110.111C84.5771 110.441 83.9554 110.523 83.421 110.334L62.5964 102.895L85.8008 94.609V108.656ZM107.176 81.9372C107.176 82.6889 106.7 83.3639 105.993 83.6151L57.3008 101.005L8.60853 83.6151C7.90137 83.3639 7.42578 82.6889 7.42578 81.9372V39.1872C7.42578 38.61 7.709 38.065 8.18103 37.7319C8.6495 37.4024 9.27116 37.3204 9.80553 37.5092L16.332 39.8373V78.3747C16.332 80.6778 17.7998 82.7156 19.9854 83.4441L52.0514 94.1334C52.5983 94.3133 53.1665 94.4059 53.7383 94.4059C54.8676 94.4059 55.9488 94.0568 56.8626 93.3977C57.0247 93.2802 57.1529 93.1288 57.3008 92.9934C57.4486 93.127 57.5751 93.2784 57.7372 93.396C58.6527 94.0568 59.734 94.4059 60.8633 94.4059C61.4351 94.4059 62.0033 94.3133 62.5537 94.1316L94.6162 83.4441C96.8018 82.7156 98.2695 80.6778 98.2695 78.3747V39.8373L104.796 37.5074C105.33 37.3186 105.954 37.4006 106.421 37.7301C106.893 38.065 107.176 38.61 107.176 39.1872V81.9372Z" fill="#002827"/>
<path d="M57.3008 32.0625C66.1393 32.0625 73.332 24.8716 73.332 16.0312C73.332 15.3401 73.2768 14.6258 73.1575 13.7797C73.0363 12.9123 72.3025 12.2621 71.4261 12.2461C70.5942 12.214 69.7927 12.8535 69.6413 13.7156C69.0357 17.1214 66.093 19.5938 62.6445 19.5938C58.7151 19.5938 55.5195 16.3982 55.5195 12.4688C55.5195 8.53931 58.7151 5.34375 62.6445 5.34375C63.1379 5.34375 63.6349 5.40075 64.1639 5.51831C64.2922 5.54681 64.4222 5.55928 64.5487 5.55928C64.5594 5.55928 64.5701 5.55572 64.5843 5.55928C65.5676 5.55928 66.3656 4.76306 66.3656 3.77803C66.3656 3.02991 65.9042 2.39044 65.2505 2.12503C62.8244 0.733875 60.0813 0 57.3008 0C48.4622 0 41.2695 7.19091 41.2695 16.0312C41.2695 24.8716 48.4622 32.0625 57.3008 32.0625ZM56.7219 3.57675C53.8505 5.49337 51.957 8.76375 51.957 12.4688C51.957 18.3629 56.7504 23.1562 62.6445 23.1562C64.8248 23.1562 66.8697 22.499 68.5743 21.3572C66.5722 25.5752 62.2722 28.5 57.3008 28.5C50.4252 28.5 44.832 22.9051 44.832 16.0312C44.832 9.34978 50.1152 3.87956 56.7219 3.57675Z" fill="#002827"/>
<path d="M64.4263 48.0934C64.6009 48.0934 64.7772 48.0684 64.95 48.015L88.1063 40.89C89.0468 40.5996 89.574 39.6021 89.2855 38.6634C88.9969 37.7229 87.9941 37.1903 87.0589 37.4842L63.9027 44.6092C62.9622 44.8996 62.4349 45.8971 62.7235 46.8358C62.9586 47.6017 63.664 48.0934 64.4263 48.0934Z" fill="#002827"/>
<path d="M64.4263 55.219C64.6009 55.219 64.7772 55.1941 64.95 55.1406L88.1063 48.0156C89.0468 47.7253 89.574 46.7278 89.2855 45.7891C88.9969 44.8486 87.9941 44.3195 87.0589 44.6099L63.9027 51.7349C62.9622 52.0252 62.4349 53.0227 62.7235 53.9614C62.9586 54.7274 63.664 55.219 64.4263 55.219Z" fill="#002827"/>
<path d="M64.4263 62.344C64.6009 62.344 64.7772 62.3191 64.95 62.2656L88.1063 55.1406C89.0468 54.8503 89.574 53.8528 89.2855 52.9141C88.9969 51.9736 87.9941 51.4445 87.0589 51.7349L63.9027 58.8599C62.9622 59.1502 62.4349 60.1477 62.7235 61.0864C62.9586 61.8524 63.664 62.344 64.4263 62.344Z" fill="#002827"/>
<path d="M64.4263 69.469C64.6009 69.469 64.7772 69.4441 64.95 69.3906L88.1063 62.2656C89.0468 61.9753 89.574 60.9778 89.2855 60.0391C88.9969 59.0986 87.9941 58.5695 87.0589 58.8599L63.9027 65.9849C62.9622 66.2752 62.4349 67.2727 62.7235 68.2114C62.9586 68.9774 63.664 69.469 64.4263 69.469Z" fill="#002827"/>
<path d="M64.4263 76.594C64.6009 76.594 64.7772 76.5691 64.95 76.5156L88.1063 69.3906C89.0468 69.1003 89.574 68.1028 89.2855 67.1641C88.9969 66.2236 87.9941 65.6945 87.0589 65.9849L63.9027 73.1099C62.9622 73.4002 62.4349 74.3977 62.7235 75.3364C62.9586 76.1024 63.664 76.594 64.4263 76.594Z" fill="#002827"/>
<path d="M64.4263 83.7187C64.6009 83.7187 64.7772 83.6937 64.95 83.6403L88.1063 76.5153C89.0468 76.225 89.574 75.2275 89.2855 74.2887C88.9969 73.3482 87.9941 72.8174 87.0589 73.1096L63.9027 80.2345C62.9622 80.5249 62.4349 81.5224 62.7235 82.4611C62.9586 83.227 63.664 83.7187 64.4263 83.7187Z" fill="#002827"/>
<path d="M26.4964 40.89L49.6527 48.015C49.8272 48.0684 50.0036 48.0934 50.1763 48.0934C50.9369 48.0934 51.6423 47.6017 51.8774 46.8358C52.1678 45.8971 51.6388 44.8996 50.6982 44.6092L27.542 37.4842C26.6051 37.1903 25.604 37.7229 25.3172 38.6634C25.0287 39.6021 25.5559 40.5996 26.4964 40.89Z" fill="#002827"/>
<path d="M26.4964 48.0156L49.6527 55.1406C49.8272 55.1941 50.0036 55.219 50.1763 55.219C50.9369 55.219 51.6423 54.7274 51.8774 53.9614C52.1678 53.0227 51.6388 52.0252 50.6982 51.7349L27.542 44.6099C26.6051 44.3195 25.604 44.8486 25.3172 45.7891C25.0287 46.7278 25.5559 47.7253 26.4964 48.0156Z" fill="#002827"/>
<path d="M26.4964 55.1406L49.6527 62.2656C49.8272 62.3191 50.0036 62.344 50.1763 62.344C50.9369 62.344 51.6423 61.8524 51.8774 61.0864C52.1678 60.1477 51.6388 59.1502 50.6982 58.8599L27.542 51.7349C26.6051 51.4445 25.604 51.9736 25.3172 52.9141C25.0287 53.8528 25.5559 54.8503 26.4964 55.1406Z" fill="#002827"/>
<path d="M26.4964 62.2656L49.6527 69.3906C49.8272 69.4441 50.0036 69.469 50.1763 69.469C50.9369 69.469 51.6423 68.9774 51.8774 68.2114C52.1678 67.2727 51.6388 66.2752 50.6982 65.9849L27.542 58.8599C26.6051 58.5695 25.604 59.0986 25.3172 60.0391C25.0287 60.9778 25.5559 61.9753 26.4964 62.2656Z" fill="#002827"/>
<path d="M26.4964 69.3906L49.6527 76.5156C49.8272 76.5691 50.0036 76.594 50.1763 76.594C50.9369 76.594 51.6423 76.1024 51.8774 75.3364C52.1678 74.3977 51.6388 73.4002 50.6982 73.1099L27.542 65.9849C26.6051 65.6945 25.604 66.2236 25.3172 67.1641C25.0287 68.1028 25.5559 69.1003 26.4964 69.3906Z" fill="#002827"/>
<path d="M26.4964 76.5153L49.6527 83.6403C49.8272 83.6937 50.0036 83.7187 50.1763 83.7187C50.9369 83.7187 51.6423 83.227 51.8774 82.4611C52.1678 81.5224 51.6388 80.5249 50.6982 80.2345L27.542 73.1096C26.6051 72.8174 25.604 73.3482 25.3172 74.2887C25.0287 75.2275 25.5559 76.225 26.4964 76.5153Z" fill="#002827"/>
</g>
<defs>
<clipPath id="clip0_576_994">
<rect width="114" height="114" fill="white" transform="translate(0.300781)"/>
</clipPath>
</defs>
</svg>
