<svg width="18" height="18" viewBox="0 0 14 14" fill="none" xmlns="http://www.w3.org/2000/svg">
<path d="M1.55556 14C1.12778 14 0.761704 13.8478 0.457334 13.5434C0.152963 13.2391 0.000518519 12.8727 0 12.4444V1.55556C0 1.12778 0.152445 0.761704 0.457334 0.457334C0.762223 0.152963 1.1283 0.000518519 1.55556 0H6.22223C6.4426 0 6.62745 0.0746668 6.77678 0.224C6.92611 0.373334 7.00052 0.557926 7 0.777778C6.99949 0.99763 6.92482 1.18248 6.776 1.33233C6.62719 1.48219 6.4426 1.55659 6.22223 1.55556H1.55556V12.4444H6.22223C6.4426 12.4444 6.62745 12.5191 6.77678 12.6684C6.92611 12.8178 7.00052 13.0024 7 13.2222C6.99949 13.4421 6.92482 13.6269 6.776 13.7768C6.62719 13.9266 6.4426 14.001 6.22223 14H1.55556ZM11.025 7.77778H5.44445C5.22408 7.77778 5.03948 7.70311 4.89067 7.55378C4.74185 7.40445 4.66719 7.21985 4.66667 7C4.66615 6.78015 4.74082 6.59556 4.89067 6.44622C5.04052 6.29689 5.22511 6.22222 5.44445 6.22222H11.025L9.56667 4.76389C9.42408 4.6213 9.35278 4.4463 9.35278 4.23889C9.35278 4.03148 9.42408 3.85 9.56667 3.69445C9.70926 3.53889 9.89075 3.45774 10.1111 3.451C10.3315 3.44426 10.5195 3.51893 10.675 3.675L13.4556 6.45556C13.6111 6.61111 13.6889 6.79259 13.6889 7C13.6889 7.20741 13.6111 7.38889 13.4556 7.54445L10.675 10.325C10.5195 10.4806 10.3349 10.5552 10.1212 10.549C9.9076 10.5428 9.72275 10.4616 9.56667 10.3056C9.42408 10.15 9.35615 9.96541 9.36289 9.75178C9.36963 9.53815 9.44404 9.35978 9.58612 9.21667L11.025 7.77778Z" fill="black"/>
</svg>
