<svg width="24" height="24" viewBox="0 0 96 96" fill="none" xmlns="http://www.w3.org/2000/svg">
<g clip-path="url(#clip0_576_937)">
<path fill-rule="evenodd" clip-rule="evenodd" d="M33.7406 22.8976C33.7406 20.8392 32.072 19.1707 30.0136 19.1707H26.2867V15.4437C26.2867 13.3853 24.6181 11.7168 22.5597 11.7168C20.5013 11.7168 18.8328 13.3853 18.8328 15.4437V19.1707H15.1059C13.0475 19.1707 11.3789 20.8392 11.3789 22.8976C11.3789 24.956 13.0475 26.6246 15.1059 26.6246H18.8328V30.3515C18.8328 32.4099 20.5013 34.0785 22.5597 34.0785C24.6181 34.0785 26.2867 32.4099 26.2867 30.3515V26.6246H30.0136C32.072 26.6246 33.7406 24.956 33.7406 22.8976Z" fill="white"/>
<path fill-rule="evenodd" clip-rule="evenodd" d="M30.0146 19.1707C32.073 19.1707 33.7415 20.8392 33.7415 22.8976C33.7415 24.956 32.073 26.6245 30.0146 26.6245H26.2876V30.3515C26.2876 32.4099 24.6191 34.0784 22.5607 34.0784C20.5023 34.0784 18.8337 32.4099 18.8337 30.3515V26.6245H15.1068C13.0484 26.6245 11.3799 24.956 11.3799 22.8976C11.3799 20.8392 13.0484 19.1707 15.1068 19.1707H18.8337V15.4437C18.8337 13.3853 20.5023 11.7168 22.5607 11.7168C24.6191 11.7168 26.2876 13.3853 26.2876 15.4437V19.1707H30.0146ZM35.605 2.39941H9.51639C5.41675 2.39941 2.0625 5.75366 2.0625 9.8533V35.9419C2.0625 40.0415 5.41675 43.3958 9.51639 43.3958H35.605C39.7046 43.3958 43.0589 40.0415 43.0589 35.9419V9.8533C43.0589 5.75366 39.7046 2.39941 35.605 2.39941Z" fill="#FF5D7D"/>
<path fill-rule="evenodd" clip-rule="evenodd" d="M35.605 53.0859H9.51639C5.41675 53.0859 2.0625 56.4402 2.0625 60.5398V86.6284C2.0625 90.7281 5.41675 94.0823 9.51639 94.0823H35.605C39.7046 94.0823 43.0589 90.7281 43.0589 86.6284V60.5398C43.0589 56.4402 39.7046 53.0859 35.605 53.0859ZM15.1068 69.8572H30.0146C32.073 69.8572 33.7415 71.5257 33.7415 73.5841C33.7415 75.6425 32.073 77.3111 30.0146 77.3111H15.1068C13.0484 77.3111 11.3799 75.6425 11.3799 73.5841C11.3799 71.5257 13.0484 69.8572 15.1068 69.8572Z" fill="#FFEA60"/>
<path fill-rule="evenodd" clip-rule="evenodd" d="M30.0136 69.8574H15.1059C13.0475 69.8574 11.3789 71.526 11.3789 73.5844C11.3789 75.6428 13.0475 77.3113 15.1059 77.3113H30.0136C32.072 77.3113 33.7406 75.6428 33.7406 73.5844C33.7406 71.526 32.072 69.8574 30.0136 69.8574Z" fill="white"/>
<path fill-rule="evenodd" clip-rule="evenodd" d="M35.6041 53.0863C39.7038 53.0863 43.058 56.4405 43.058 60.5401V86.6286H52.7484V60.5401C52.7484 56.4405 56.1026 53.0863 60.2022 53.0863H86.2907V43.3959H60.2022C56.1026 43.3959 52.7484 40.0416 52.7484 35.942V9.85352H43.058V35.942C43.058 40.0416 39.7038 43.3959 35.6041 43.3959H9.51562V53.0863H35.6041Z" fill="#8690AF"/>
<path fill-rule="evenodd" clip-rule="evenodd" d="M52.75 35.9419C52.75 40.0415 56.1042 43.3958 60.2039 43.3958H86.2925C90.3921 43.3958 93.7464 40.0415 93.7464 35.9419V9.8533C93.7464 5.75366 90.3921 2.39941 86.2925 2.39941H60.2039C56.1042 2.39941 52.75 5.75366 52.75 9.8533V35.9419ZM70.6129 30.8036C69.1573 32.2591 66.7976 32.2591 65.3422 30.8036C63.8867 29.348 63.8867 26.9883 65.3422 25.5329C69.9495 20.9257 71.2763 19.5989 75.8835 14.9915C77.3391 13.5359 79.6988 13.5359 81.1542 14.9915C82.6097 16.447 82.6097 18.8067 81.1542 20.2621C76.5469 24.8695 75.2201 26.1963 70.6129 30.8036Z" fill="#CBE558"/>
<path fill-rule="evenodd" clip-rule="evenodd" d="M65.3416 30.803C66.7972 32.2586 69.1569 32.2586 70.6123 30.803C75.2195 26.1958 76.5463 24.869 81.1538 20.2617C82.6093 18.8062 82.6093 16.4465 81.1538 14.9911C79.6982 13.5355 77.3385 13.5355 75.8831 14.9911C71.2759 19.5983 69.9491 20.9251 65.3418 25.5326C63.8861 26.9877 63.8861 29.3476 65.3416 30.803Z" fill="white"/>
<path fill-rule="evenodd" clip-rule="evenodd" d="M86.2925 53.0859H60.2039C56.1042 53.0859 52.75 56.4402 52.75 60.5398V86.6284C52.75 90.7281 56.1042 94.0823 60.2039 94.0823H86.2925C90.3921 94.0823 93.7464 90.7281 93.7464 86.6284V60.5398C93.7464 56.4402 90.3921 53.0859 86.2925 53.0859ZM65.3422 65.678C66.7978 64.2226 69.1575 64.2226 70.6129 65.678L73.2482 68.3133L75.8835 65.678C77.3391 64.2226 79.6988 64.2226 81.1542 65.678C82.6097 67.1335 82.6097 69.4932 81.1542 70.9486L78.5188 73.5839L81.1542 76.2193C82.6097 77.6748 82.6097 80.0345 81.1542 81.4899C79.6986 82.9455 77.3389 82.9455 75.8835 81.4899L73.2482 78.8546L70.6129 81.4899C69.1573 82.9455 66.7976 82.9455 65.3422 81.4899C63.8867 80.0343 63.8867 77.6746 65.3422 76.2193L67.9775 73.5839L65.3422 70.9486C63.8867 69.4932 63.8867 67.1335 65.3422 65.678Z" fill="#66E0F7"/>
<path fill-rule="evenodd" clip-rule="evenodd" d="M81.1536 65.6784C79.698 64.2231 77.3383 64.2231 75.883 65.6784L73.2476 68.3138L70.6123 65.6784C69.1568 64.2231 66.797 64.2231 65.3417 65.6784C63.8861 67.134 63.8861 69.4937 65.3417 70.9491L67.977 73.5844L65.3417 76.2197C63.8861 77.6753 63.8861 80.035 65.3417 81.4904C66.7972 82.9459 69.1569 82.9459 70.6123 81.4904L73.2476 78.8551L75.883 81.4904C77.3385 82.9459 79.6982 82.9459 81.1536 81.4904C82.6092 80.0348 82.6092 77.6751 81.1536 76.2197L78.5183 73.5844L81.1536 70.9491C82.6092 69.4937 82.6092 67.134 81.1536 65.6784Z" fill="white"/>
<path d="M95.6088 35.942V9.85346C95.6088 4.71588 91.429 0.536133 86.2915 0.536133H60.2032C55.7036 0.536133 51.9391 3.74222 51.0733 7.98999H44.7347C43.8691 3.74222 40.1046 0.536133 35.605 0.536133H9.51654C4.37897 0.536133 0.199219 4.71588 0.199219 9.85346V35.942C0.199219 40.4415 3.40531 44.2061 7.65308 45.0718V51.4104C3.40531 52.2762 0.199219 56.0405 0.199219 60.5403V86.6288C0.199219 91.7663 4.37897 95.9461 9.51654 95.9461H35.605C40.1046 95.9461 43.8691 92.74 44.7349 88.4922H51.0735C51.9392 92.74 55.7036 95.9461 60.2033 95.9461H86.2917C91.4292 95.9461 95.609 91.7663 95.609 86.6288V60.5403C95.609 56.0407 92.4029 52.2762 88.1551 51.4104V45.0718C92.4027 44.2061 95.6088 40.4415 95.6088 35.942ZM60.2032 4.26306H86.2915C89.374 4.26306 91.8819 6.77091 91.8819 9.85346V35.942C91.8819 39.0245 89.374 41.5324 86.2915 41.5324H60.2032C57.1206 41.5324 54.6128 39.0245 54.6128 35.942V9.85346C54.6128 6.77091 57.1206 4.26306 60.2032 4.26306ZM3.92615 35.942V9.85346C3.92615 6.77091 6.434 4.26306 9.51654 4.26306H35.605C38.6876 4.26306 41.1954 6.77091 41.1954 9.85346V35.942C41.1954 39.0245 38.6876 41.5324 35.605 41.5324H9.51654C6.434 41.5324 3.92615 39.0245 3.92615 35.942ZM35.605 92.219H9.51654C6.434 92.219 3.92615 89.7111 3.92615 86.6286V60.5401C3.92615 57.4575 6.434 54.9497 9.51654 54.9497H14.1745C15.2037 54.9497 16.0379 54.1154 16.0379 53.0862C16.0379 52.057 15.2037 51.2227 14.1745 51.2227H11.38V45.2593H35.605C40.7426 45.2593 44.9224 41.0795 44.9224 35.942V11.7169H50.8858V35.942C50.8858 41.0795 55.0656 45.2593 60.2032 45.2593H84.428V51.2227H60.2032C55.0656 51.2227 50.8858 55.4025 50.8858 60.5401V84.7651H44.9224V60.5401C44.9224 55.4025 40.7426 51.2227 35.605 51.2227H30.9458C29.9166 51.2227 29.0824 52.057 29.0824 53.0862C29.0824 54.1154 29.9166 54.9497 30.9458 54.9497H35.605C38.6876 54.9497 41.1954 57.4575 41.1954 60.5401V86.6286C41.1954 89.7111 38.6876 92.219 35.605 92.219ZM91.8819 60.5401V86.6286C91.8819 89.7111 89.374 92.219 86.2915 92.219H60.2032C57.1206 92.219 54.6128 89.7111 54.6128 86.6286V60.5401C54.6128 57.4575 57.1206 54.9497 60.2032 54.9497H86.2915C89.374 54.9497 91.8819 57.4575 91.8819 60.5401Z" fill="black"/>
<path d="M15.106 28.4882H16.9695V30.3517C16.9695 33.4343 19.4774 35.9421 22.5599 35.9421C25.6425 35.9421 28.1503 33.4343 28.1503 30.3517V28.4882H30.0138C33.0964 28.4882 35.6042 25.9804 35.6042 22.8978C35.6042 19.8153 33.0964 17.3074 30.0138 17.3074H28.1503V15.4439C28.1503 12.3614 25.6425 9.85352 22.5599 9.85352C19.4774 9.85352 16.9695 12.3614 16.9695 15.4439V17.3074H15.106C12.0235 17.3074 9.51562 19.8153 9.51562 22.8978C9.51562 25.9804 12.0235 28.4882 15.106 28.4882ZM15.106 21.0343H18.833C19.8622 21.0343 20.6965 20.2001 20.6965 19.1709V15.4439C20.6965 14.4164 21.5324 13.5805 22.5599 13.5805C23.5874 13.5805 24.4234 14.4164 24.4234 15.4439V19.1709C24.4234 20.2001 25.2577 21.0343 26.2869 21.0343H30.0138C31.0413 21.0343 31.8773 21.8703 31.8773 22.8978C31.8773 23.9253 31.0413 24.7613 30.0138 24.7613H26.2869C25.2577 24.7613 24.4234 25.5956 24.4234 26.6248V30.3517C24.4234 31.3792 23.5874 32.2152 22.5599 32.2152C21.5324 32.2152 20.6965 31.3792 20.6965 30.3517V26.6248C20.6965 25.5956 19.8622 24.7613 18.833 24.7613H15.106C14.0785 24.7613 13.2426 23.9253 13.2426 22.8978C13.2426 21.8703 14.0785 21.0343 15.106 21.0343Z" fill="black"/>
<path d="M30.0138 67.9941H15.106C12.0235 67.9941 9.51562 70.502 9.51562 73.5846C9.51562 76.6671 12.0235 79.175 15.106 79.175H30.0138C33.0964 79.175 35.6042 76.6671 35.6042 73.5846C35.6042 70.502 33.0964 67.9941 30.0138 67.9941ZM30.0138 75.448H15.106C14.0785 75.448 13.2426 74.6121 13.2426 73.5846C13.2426 72.557 14.0785 71.7211 15.106 71.7211H30.0138C31.0413 71.7211 31.8773 72.557 31.8773 73.5846C31.8773 74.6121 31.0413 75.448 30.0138 75.448Z" fill="black"/>
<path d="M82.4728 64.3603C80.293 62.1806 76.7464 62.1808 74.5667 64.3603L73.2492 65.678L71.9316 64.3603C69.7519 62.1806 66.2053 62.181 64.0254 64.3603C61.8457 66.54 61.8457 70.0866 64.0254 72.2663L65.3431 73.5839L64.0254 74.9016C61.8457 77.0813 61.8457 80.6278 64.0254 82.8077C65.1155 83.8977 66.5467 84.4426 67.9786 84.4424C69.4099 84.4424 70.8418 83.8973 71.9316 82.8077L73.2492 81.4901L74.5667 82.8077C76.7464 84.9872 80.293 84.9876 82.4728 82.8077C84.6525 80.628 84.6525 77.0815 82.4728 74.9018L81.1552 73.5841L82.4728 72.2664C84.6525 70.0867 84.6525 66.5402 82.4728 64.3603ZM77.202 74.9018L79.8373 77.5373C80.5639 78.2638 80.5639 79.446 79.8373 80.1726C79.1113 80.899 77.929 80.8995 77.202 80.1726L74.5667 77.5373C74.2173 77.1879 73.7432 76.9915 73.249 76.9915C72.7548 76.9915 72.281 77.1879 71.9314 77.5373L69.2959 80.1726C68.9438 80.5246 68.4761 80.7184 67.9782 80.7184C67.4805 80.7184 67.0125 80.5246 66.6607 80.1726C65.9342 79.446 65.9342 78.2638 66.6607 77.5373L69.296 74.902C70.0237 74.1743 70.0237 72.9945 69.296 72.2666L66.6607 69.6313C66.3087 69.2793 66.1149 68.8114 66.1149 68.3136C66.1149 67.8159 66.3087 67.348 66.6607 66.996C67.0239 66.6326 67.5012 66.4511 67.9782 66.4511C68.4556 66.4511 68.9327 66.6328 69.2959 66.996L71.9314 69.6313C72.281 69.9807 72.7548 70.1771 73.249 70.1771C73.7432 70.1771 74.2173 69.9807 74.5667 69.6313L77.202 66.996C77.9282 66.2694 79.1106 66.2692 79.8373 66.996C80.5639 67.7226 80.5639 68.9047 79.8373 69.6313L77.202 72.2666C76.4743 72.9941 76.4743 74.1739 77.202 74.9018Z" fill="black"/>
<path d="M67.9784 33.7558C69.4098 33.7558 70.8417 33.2108 71.9314 32.1212L82.4727 21.5799C84.6524 19.4002 84.6524 15.8535 82.4727 13.6738C80.2928 11.4941 76.7463 11.4943 74.5666 13.6738L64.0253 24.2152C61.8457 26.3949 61.8457 29.9417 64.0253 32.1214C65.1154 33.2112 66.5467 33.756 67.9784 33.7558ZM66.6608 26.8504L77.2021 16.3091C77.5653 15.9457 78.0425 15.7642 78.5197 15.7642C78.997 15.7642 79.474 15.9459 79.8372 16.3091C80.5638 17.0357 80.5638 18.2178 79.8372 18.9446L69.2959 29.4859C68.9439 29.8379 68.4762 30.0317 67.9782 30.0317C67.4805 30.0317 67.0126 29.8379 66.6608 29.4859C65.9342 28.7591 65.9342 27.5769 66.6608 26.8504Z" fill="black"/>
<path d="M22.5593 54.9496C23.5885 54.9496 24.4228 54.1153 24.4228 53.0861C24.4228 52.0569 23.5885 51.2227 22.5593 51.2227H22.558C21.5288 51.2227 20.6953 52.0569 20.6953 53.0861C20.6953 54.1153 21.5301 54.9496 22.5593 54.9496Z" fill="black"/>
</g>
<defs>
<clipPath id="clip0_576_937">
<rect width="95.4098" height="95.4098" fill="white" transform="translate(0.199219 0.536133)"/>
</clipPath>
</defs>
</svg>
