<svg width="48" height="38" viewBox="0 0 48 38" fill="none" xmlns="http://www.w3.org/2000/svg">
<mask id="path-1-outside-1_404_864" maskUnits="userSpaceOnUse" x="0.175653" y="-0.565648" width="47.7521" height="38.4547" fill="black">
<rect fill="white" x="0.175653" y="-0.565648" width="47.7521" height="38.4547"/>
<path d="M12.813 19.9629L18.9208 28.8571L16.1023 30.7926L11.6379 24.2914L10.5876 25.0127L15.052 31.5138L12.2335 33.4493L7.76909 26.9481L6.70551 27.6785L11.1699 34.1797L8.3514 36.1152L2.2528 27.2342L12.813 19.9629ZM21.838 13.7653L27.9458 22.6596L20.1284 28.0278L14.0207 19.1336L21.838 13.7653ZM20.6629 18.0939L18.4825 19.5912L21.3127 23.7125L23.4931 22.2153L20.6629 18.0939ZM36.7693 16.6003L28.952 21.9686L26.1085 17.8563L26.55 15.4793L27.9593 14.5116L30.123 17.6624L32.3166 16.1561L27.8431 9.6416L30.6616 7.70611L36.7693 16.6003ZM39.6769 1.51522L45.7847 10.4094L37.9673 15.7777L31.8596 6.88345L39.6769 1.51522ZM38.5018 5.84377L36.3214 7.34103L39.1516 11.4624L41.332 9.96516L38.5018 5.84377Z"/>
</mask>
<path d="M12.813 19.9629L18.9208 28.8571L16.1023 30.7926L11.6379 24.2914L10.5876 25.0127L15.052 31.5138L12.2335 33.4493L7.76909 26.9481L6.70551 27.6785L11.1699 34.1797L8.3514 36.1152L2.2528 27.2342L12.813 19.9629ZM21.838 13.7653L27.9458 22.6596L20.1284 28.0278L14.0207 19.1336L21.838 13.7653ZM20.6629 18.0939L18.4825 19.5912L21.3127 23.7125L23.4931 22.2153L20.6629 18.0939ZM36.7693 16.6003L28.952 21.9686L26.1085 17.8563L26.55 15.4793L27.9593 14.5116L30.123 17.6624L32.3166 16.1561L27.8431 9.6416L30.6616 7.70611L36.7693 16.6003ZM39.6769 1.51522L45.7847 10.4094L37.9673 15.7777L31.8596 6.88345L39.6769 1.51522ZM38.5018 5.84377L36.3214 7.34103L39.1516 11.4624L41.332 9.96516L38.5018 5.84377Z" fill="#FFEB10"/>
<path d="M12.813 19.9629L13.6374 19.3968L13.0706 18.5714L12.2459 19.1392L12.813 19.9629ZM18.9208 28.8571L19.4869 29.6814L20.3112 29.1154L19.7451 28.291L18.9208 28.8571ZM16.1023 30.7926L15.2779 31.3587L15.844 32.183L16.6684 31.6169L16.1023 30.7926ZM11.6379 24.2914L12.4622 23.7253L11.8961 22.901L11.0718 23.4671L11.6379 24.2914ZM10.5876 25.0127L10.0215 24.1883L9.19716 24.7544L9.76324 25.5787L10.5876 25.0127ZM15.052 31.5138L15.6181 32.3382L16.4424 31.7721L15.8763 30.9477L15.052 31.5138ZM12.2335 33.4493L11.4091 34.0154L11.9752 34.8397L12.7996 34.2737L12.2335 33.4493ZM7.76909 26.9481L8.59344 26.3821L8.02735 25.5577L7.20301 26.1238L7.76909 26.9481ZM6.70551 27.6785L6.13942 26.8542L5.31508 27.4203L5.88116 28.2446L6.70551 27.6785ZM11.1699 34.1797L11.736 35.004L12.5603 34.4379L11.9942 33.6136L11.1699 34.1797ZM8.3514 36.1152L7.52706 36.6812L8.09314 37.5056L8.91749 36.9395L8.3514 36.1152ZM2.2528 27.2342L1.68568 26.4106L0.863083 26.977L1.42846 27.8003L2.2528 27.2342ZM12.813 19.9629L11.9887 20.529L18.0964 29.4232L18.9208 28.8571L19.7451 28.291L13.6374 19.3968L12.813 19.9629ZM18.9208 28.8571L18.3547 28.0327L15.5362 29.9682L16.1023 30.7926L16.6684 31.6169L19.4869 29.6814L18.9208 28.8571ZM16.1023 30.7926L16.9266 30.2265L12.4622 23.7253L11.6379 24.2914L10.8135 24.8575L15.2779 31.3587L16.1023 30.7926ZM11.6379 24.2914L11.0718 23.4671L10.0215 24.1883L10.5876 25.0127L11.1537 25.837L12.204 25.1158L11.6379 24.2914ZM10.5876 25.0127L9.76324 25.5787L14.2276 32.0799L15.052 31.5138L15.8763 30.9477L11.4119 24.4466L10.5876 25.0127ZM15.052 31.5138L14.4859 30.6895L11.6674 32.625L12.2335 33.4493L12.7996 34.2737L15.6181 32.3382L15.052 31.5138ZM12.2335 33.4493L13.0578 32.8832L8.59344 26.3821L7.76909 26.9481L6.94474 27.5142L11.4091 34.0154L12.2335 33.4493ZM7.76909 26.9481L7.20301 26.1238L6.13942 26.8542L6.70551 27.6785L7.27159 28.5029L8.33518 27.7725L7.76909 26.9481ZM6.70551 27.6785L5.88116 28.2446L10.3456 34.7458L11.1699 34.1797L11.9942 33.6136L7.52985 27.1124L6.70551 27.6785ZM11.1699 34.1797L10.6038 33.3553L7.78532 35.2908L8.3514 36.1152L8.91749 36.9395L11.736 35.004L11.1699 34.1797ZM8.3514 36.1152L9.17575 35.5491L3.07715 26.6681L2.2528 27.2342L1.42846 27.8003L7.52706 36.6812L8.3514 36.1152ZM2.2528 27.2342L2.81993 28.0579L13.3802 20.7865L12.813 19.9629L12.2459 19.1392L1.68568 26.4106L2.2528 27.2342ZM21.838 13.7653L22.6624 13.1993L22.0963 12.3749L21.2719 12.941L21.838 13.7653ZM27.9458 22.6596L28.5118 23.4839L29.3362 22.9178L28.7701 22.0935L27.9458 22.6596ZM20.1284 28.0278L19.3041 28.5939L19.8702 29.4182L20.6945 28.8521L20.1284 28.0278ZM14.0207 19.1336L13.4546 18.3092L12.6303 18.8753L13.1963 19.6997L14.0207 19.1336ZM20.6629 18.0939L21.4872 17.5278L20.9211 16.7035L20.0968 17.2695L20.6629 18.0939ZM18.4825 19.5912L17.9164 18.7668L17.0921 19.3329L17.6582 20.1572L18.4825 19.5912ZM21.3127 23.7125L20.4884 24.2786L21.0544 25.103L21.8788 24.5369L21.3127 23.7125ZM23.4931 22.2153L24.0591 23.0396L24.8835 22.4735L24.3174 21.6492L23.4931 22.2153ZM21.838 13.7653L21.0137 14.3314L27.1214 23.2257L27.9458 22.6596L28.7701 22.0935L22.6624 13.1993L21.838 13.7653ZM27.9458 22.6596L27.3797 21.8352L19.5623 27.2034L20.1284 28.0278L20.6945 28.8521L28.5118 23.4839L27.9458 22.6596ZM20.1284 28.0278L20.9528 27.4617L14.845 18.5675L14.0207 19.1336L13.1963 19.6997L19.3041 28.5939L20.1284 28.0278ZM14.0207 19.1336L14.5868 19.9579L22.4041 14.5897L21.838 13.7653L21.2719 12.941L13.4546 18.3092L14.0207 19.1336ZM20.6629 18.0939L20.0968 17.2695L17.9164 18.7668L18.4825 19.5912L19.0486 20.4155L21.229 18.9182L20.6629 18.0939ZM18.4825 19.5912L17.6582 20.1572L20.4884 24.2786L21.3127 23.7125L22.1371 23.1465L19.3069 19.0251L18.4825 19.5912ZM21.3127 23.7125L21.8788 24.5369L24.0591 23.0396L23.4931 22.2153L22.927 21.3909L20.7466 22.8882L21.3127 23.7125ZM23.4931 22.2153L24.3174 21.6492L21.4872 17.5278L20.6629 18.0939L19.8385 18.66L22.6687 22.7814L23.4931 22.2153ZM36.7694 16.6003L37.3354 17.4247L38.1598 16.8586L37.5937 16.0343L36.7694 16.6003ZM28.952 21.9686L28.1295 22.5373L28.6964 23.3572L29.5181 22.7929L28.952 21.9686ZM26.1085 17.8563L25.1253 17.6737L25.0494 18.0828L25.286 18.425L26.1085 17.8563ZM26.55 15.4793L25.9839 14.655L25.6425 14.8895L25.5668 15.2967L26.55 15.4793ZM27.9593 14.5116L28.7836 13.9455L28.2175 13.1211L27.3932 13.6872L27.9593 14.5116ZM30.123 17.6624L29.2987 18.2285L29.8647 19.0529L30.6891 18.4868L30.123 17.6624ZM32.3166 16.1561L32.8827 16.9804L33.7071 16.4143L33.141 15.59L32.3166 16.1561ZM27.8431 9.6416L27.277 8.81725L26.4527 9.38334L27.0188 10.2077L27.8431 9.6416ZM30.6616 7.70611L31.486 7.14003L30.9199 6.31568L30.0955 6.88177L30.6616 7.70611ZM36.7694 16.6003L36.2033 15.776L28.3859 21.1442L28.952 21.9686L29.5181 22.7929L37.3354 17.4247L36.7694 16.6003ZM28.952 21.9686L29.7745 21.3998L26.931 17.2876L26.1085 17.8563L25.286 18.425L28.1295 22.5373L28.952 21.9686ZM26.1085 17.8563L27.0917 18.0389L27.5332 15.6619L26.55 15.4793L25.5668 15.2967L25.1253 17.6737L26.1085 17.8563ZM26.55 15.4793L27.1161 16.3037L28.5254 15.3359L27.9593 14.5116L27.3932 13.6872L25.9839 14.655L26.55 15.4793ZM27.9593 14.5116L27.1349 15.0777L29.2987 18.2285L30.123 17.6624L30.9474 17.0964L28.7836 13.9455L27.9593 14.5116ZM30.123 17.6624L30.6891 18.4868L32.8827 16.9804L32.3166 16.1561L31.7506 15.3317L29.5569 16.8381L30.123 17.6624ZM32.3166 16.1561L33.141 15.59L28.6675 9.07551L27.8431 9.6416L27.0188 10.2077L31.4923 16.7221L32.3166 16.1561ZM27.8431 9.6416L28.4092 10.4659L31.2277 8.53046L30.6616 7.70611L30.0955 6.88177L27.277 8.81725L27.8431 9.6416ZM30.6616 7.70611L29.8373 8.2722L35.945 17.1664L36.7694 16.6003L37.5937 16.0343L31.486 7.14003L30.6616 7.70611ZM39.6769 1.51522L40.5013 0.949134L39.9352 0.124788L39.1109 0.690873L39.6769 1.51522ZM45.7847 10.4094L46.3508 11.2338L47.1751 10.6677L46.609 9.84336L45.7847 10.4094ZM37.9673 15.7777L37.143 16.3438L37.7091 17.1681L38.5334 16.602L37.9673 15.7777ZM31.8596 6.88345L31.2935 6.0591L30.4692 6.62519L31.0353 7.44953L31.8596 6.88345ZM38.5018 5.84377L39.3261 5.27768L38.76 4.45334L37.9357 5.01942L38.5018 5.84377ZM36.3214 7.34103L35.7554 6.51668L34.931 7.08277L35.4971 7.90711L36.3214 7.34103ZM39.1516 11.4624L38.3273 12.0285L38.8934 12.8528L39.7177 12.2868L39.1516 11.4624ZM41.332 9.96515L41.8981 10.7895L42.7224 10.2234L42.1563 9.39907L41.332 9.96515ZM39.6769 1.51522L38.8526 2.08131L44.9603 10.9755L45.7847 10.4094L46.609 9.84336L40.5013 0.949134L39.6769 1.51522ZM45.7847 10.4094L45.2186 9.58509L37.4013 14.9533L37.9673 15.7777L38.5334 16.602L46.3508 11.2338L45.7847 10.4094ZM37.9673 15.7777L38.7917 15.2116L32.684 6.31736L31.8596 6.88345L31.0353 7.44953L37.143 16.3438L37.9673 15.7777ZM31.8596 6.88345L32.4257 7.7078L40.243 2.33957L39.6769 1.51522L39.1109 0.690873L31.2935 6.0591L31.8596 6.88345ZM38.5018 5.84377L37.9357 5.01942L35.7554 6.51668L36.3214 7.34103L36.8875 8.16538L39.0679 6.66811L38.5018 5.84377ZM36.3214 7.34103L35.4971 7.90711L38.3273 12.0285L39.1516 11.4624L39.976 10.8963L37.1458 6.77494L36.3214 7.34103ZM39.1516 11.4624L39.7177 12.2868L41.8981 10.7895L41.332 9.96515L40.7659 9.14081L38.5855 10.6381L39.1516 11.4624ZM41.332 9.96515L42.1563 9.39907L39.3261 5.27768L38.5018 5.84377L37.6774 6.40985L40.5076 10.5312L41.332 9.96515Z" fill="black" mask="url(#path-1-outside-1_404_864)"/>
</svg>
