<svg width="24" height="24" viewBox="0 0 42 43" fill="none" xmlns="http://www.w3.org/2000/svg">
<path d="M21 4.06396C23.3206 4.06396 25.5462 4.98584 27.1872 6.62678C28.8281 8.26772 29.75 10.4933 29.75 12.814V18.064C31.1424 18.064 32.4777 18.6171 33.4623 19.6017C34.4469 20.5862 35 21.9216 35 23.314V33.814C35 35.2064 34.4469 36.5417 33.4623 37.5263C32.4777 38.5108 31.1424 39.064 29.75 39.064H12.25C10.8576 39.064 9.52226 38.5108 8.53769 37.5263C7.55312 36.5417 7 35.2064 7 33.814V23.314C7 21.9216 7.55312 20.5862 8.53769 19.6017C9.52226 18.6171 10.8576 18.064 12.25 18.064V12.814C12.25 10.4933 13.1719 8.26772 14.8128 6.62678C16.4538 4.98584 18.6794 4.06396 21 4.06396ZM21 25.064C20.117 25.0637 19.2665 25.3972 18.619 25.9976C17.9716 26.598 17.575 27.4209 17.5087 28.3015L17.5 28.564C17.5 29.2562 17.7053 29.9329 18.0899 30.5085C18.4744 31.084 19.0211 31.5326 19.6606 31.7975C20.3001 32.0625 21.0039 32.1318 21.6828 31.9967C22.3617 31.8617 22.9854 31.5283 23.4749 31.0388C23.9644 30.5494 24.2977 29.9257 24.4327 29.2468C24.5678 28.5678 24.4985 27.8641 24.2336 27.2246C23.9687 26.585 23.5201 26.0384 22.9445 25.6538C22.3689 25.2692 21.6922 25.064 21 25.064ZM21 7.56396C19.6076 7.56396 18.2723 8.11709 17.2877 9.10165C16.3031 10.0862 15.75 11.4216 15.75 12.814V18.064H26.25V12.814C26.25 11.4216 25.6969 10.0862 24.7123 9.10165C23.7277 8.11709 22.3924 7.56396 21 7.56396Z" fill="white"/>
</svg>
