<svg width="24" height="24" viewBox="0 0 39 39" fill="none" xmlns="http://www.w3.org/2000/svg">
<path d="M27.0052 23.4078V24.656C27.0052 25.6492 26.6107 26.6017 25.9085 27.3039C25.2062 28.0062 24.2537 28.4007 23.2606 28.4007M18.2676 19.6631V25.2801C18.2676 25.6112 18.3991 25.9287 18.6332 26.1628C18.8673 26.3969 19.1848 26.5284 19.5159 26.5284H20.7641C21.0951 26.5284 21.4126 26.3969 21.6467 26.1628C21.8808 25.9287 22.0123 25.6112 22.0123 25.2801M15.147 19.6631V25.2801C15.147 25.6112 15.0155 25.9287 14.7814 26.1628C14.5474 26.3969 14.2299 26.5284 13.8988 26.5284H12.6506C12.3195 26.5284 12.002 26.3969 11.7679 26.1628C11.5339 25.9287 11.4023 25.6112 11.4023 25.2801M18.2676 29.0123V29.0248M20.7641 29.0248V29.0373" stroke="black" stroke-width="1.87235" stroke-linecap="round" stroke-linejoin="round"/>
<path d="M34.3421 9.36005H33.7959V4.44448C33.7902 3.43227 33.3856 2.46315 32.6698 1.7474C31.9541 1.03165 30.9849 0.627007 29.9727 0.621272C29.7993 0.591087 29.6219 0.591087 29.4484 0.621272L3.45055 9.36005H2.86069L2.48929 9.49113H2.18343L1.83388 9.68775L1.57172 10.0591L1.26586 10.3213L1.02554 10.5398L0.763381 10.8675C0.693767 10.9304 0.634752 11.0042 0.588605 11.086C0.509078 11.2132 0.436158 11.3445 0.370136 11.4792L0.239054 11.7195C0.178866 11.8766 0.127805 12.0371 0.0861255 12.2001C0.0949639 12.28 0.0949639 12.3606 0.0861255 12.4405C0.0650415 12.6876 0.0650415 12.9361 0.0861255 13.1833V35.0302C0.0907112 36.0166 0.474231 36.9635 1.15737 37.6751C1.8405 38.3867 2.771 38.8086 3.75641 38.8534H34.3421C35.3543 38.8477 36.3235 38.443 37.0392 37.7273C37.755 37.0115 38.1596 36.0424 38.1653 35.0302V13.1833C38.1596 12.171 37.755 11.2019 37.0392 10.4862C36.3235 9.77042 35.3543 9.36578 34.3421 9.36005ZM30.1475 3.92016C30.2551 3.95985 30.3482 4.03117 30.4145 4.12476C30.4808 4.21835 30.5172 4.32981 30.5189 4.44448V9.36005H13.8497L30.1475 3.92016ZM34.8883 35.0302C34.8883 35.175 34.8307 35.314 34.7283 35.4164C34.6259 35.5188 34.487 35.5764 34.3421 35.5764H3.75641C3.61156 35.5764 3.47263 35.5188 3.37021 35.4164C3.26778 35.314 3.21024 35.175 3.21024 35.0302V13.1833C3.21024 13.0384 3.26778 12.8995 3.37021 12.7971C3.47263 12.6946 3.61156 12.6371 3.75641 12.6371H34.3421C34.487 12.6371 34.6259 12.6946 34.7283 12.7971C34.8307 12.8995 34.8883 13.0384 34.8883 13.1833V35.0302Z" fill="black"/>
</svg>
