<svg width="103" height="103" viewBox="0 0 103 103" fill="none" xmlns="http://www.w3.org/2000/svg">
<g clip-path="url(#clip0_576_962)">
<path d="M82.4836 46.1975C82.3182 46.136 82.2067 45.9809 82.2033 45.8045L82.2014 45.6956V39.4153L83.3896 34.3896C83.6176 33.4259 82.8866 32.502 81.8962 32.502H63.2191C62.2289 32.502 61.4979 33.4259 61.7257 34.3896L62.914 39.4153V45.6956C62.914 45.8768 62.7997 46.0372 62.6291 46.0987C51.4955 50.1175 43.5439 60.7922 43.5822 73.3205C43.6309 89.2326 56.5088 102.069 72.4209 102.069C88.3479 102.069 101.259 89.1573 101.259 73.2304C101.259 60.8428 93.4484 50.2807 82.4836 46.1975Z" fill="#C8EFFD"/>
<path d="M49.1593 77.3483C49.1233 65.6013 56.1119 55.484 66.1615 50.9548C67.5708 50.3198 68.4909 48.9342 68.4909 47.3885V44.6632C68.4909 43.8525 68.3967 43.0445 68.2102 42.2555L68.1604 42.0449C67.4947 39.2292 69.6306 36.5295 72.5238 36.5295H82.8838L83.3896 34.3896C83.6176 33.4259 82.8866 32.502 81.8962 32.502H63.2191C62.2289 32.502 61.4979 33.4259 61.7257 34.3896L62.914 39.4153V45.6956C62.914 45.877 62.7997 46.0372 62.6291 46.0987C51.4955 50.1175 43.5439 60.7922 43.5822 73.3205C43.6154 84.1601 49.6029 93.5705 58.4465 98.47C52.7556 93.2235 49.1848 85.7115 49.1593 77.3483Z" fill="#9BE5FB"/>
<path d="M61.5188 70.7428L66.2252 68.4134C71.494 65.8057 77.6536 65.6934 83.014 68.1076C85.9131 69.4134 89.0552 69.9835 92.1703 69.8111L93.6939 69.6154C94.4147 69.5229 95.0687 70.05 95.1292 70.7743C95.181 71.3952 95.2072 72.0215 95.2072 72.6521C95.2072 84.5524 85.9828 94.3384 74.3087 95.2357H56.2383V71.1515L61.5188 70.7428Z" fill="#6EF5C2"/>
<path d="M77.4446 94.7702C77.789 92.2579 77.2328 89.6842 75.7887 87.4362L64.2117 69.4092L61.5188 70.742L56.2383 71.1507V95.2349H74.3087C75.3764 95.1528 76.4233 94.9958 77.4446 94.7702Z" fill="#05F2A7"/>
<path d="M77.059 99.0458C79.18 95.1624 79.0187 90.6215 76.6276 86.8993L53.7411 51.2617C47.5042 56.5689 43.5551 64.4836 43.5822 73.3211C43.6309 89.2331 56.5087 102.07 72.4209 102.069C73.2351 102.069 74.0408 102.034 74.8379 101.968C75.7039 101.132 76.4542 100.153 77.059 99.0458Z" fill="#9BE5FB"/>
<path d="M78.4794 94.5156C78.7499 91.8973 78.1284 89.2363 76.6266 86.8983L65.1096 68.9648L61.5188 70.742L56.2383 71.1507V95.2349H74.3087C75.7401 95.1248 77.1342 94.8803 78.4794 94.5156Z" fill="#13E29D"/>
<path d="M73.2754 89.05C76.6656 94.3275 72.8752 101.265 66.6043 101.265H10.1998C3.92883 101.265 0.138397 94.3275 3.52868 89.05L26.8333 52.761C27.2619 52.0937 27.4896 51.3173 27.4896 50.5244V30.1191H49.3144V50.5244C49.3144 51.3175 49.5422 52.0937 49.9708 52.761L73.2754 89.05Z" fill="#DFF6FD"/>
<path d="M41.8325 32.9894V31.6826H27.4896V50.5247C27.4896 51.3178 27.2617 52.094 26.8333 52.7613L3.52868 89.0501C0.138397 94.3276 3.92883 101.265 10.1998 101.265H19.7668C16.6652 98.9074 15.4831 94.3641 17.8734 90.6431L41.178 54.3541C41.6066 53.6868 41.8343 52.9104 41.8343 52.1175V32.9894H41.8325Z" fill="#C8EFFD"/>
<path d="M68.2503 92.2772C68.7958 93.1272 68.529 93.8937 68.322 94.2739C68.1129 94.6542 67.6132 95.2932 66.6039 95.2932H10.1994C9.19007 95.2932 8.69039 94.6542 8.48135 94.2739C8.27431 93.8937 8.00755 93.1272 8.55302 92.2772L26.1224 64.9226C26.5281 64.2909 27.229 63.9131 27.9798 63.9141C30.4358 63.9169 32.887 64.3013 35.2433 65.0673V65.0693C39.7442 66.5315 44.5518 66.601 49.0493 65.3104C49.9876 65.0412 50.9917 65.405 51.5191 66.2261L68.2503 92.2772Z" fill="#FD9BA1"/>
<path d="M68.2503 92.2772C68.7958 93.1272 68.529 93.8937 68.322 94.2739C68.1129 94.6542 67.6132 95.2932 66.6039 95.2932H10.1994C9.19007 95.2932 8.69039 94.6542 8.48135 94.2739C8.27431 93.8937 8.00755 93.1272 8.55302 92.2772L26.1224 64.9226C26.5281 64.2909 27.229 63.9131 27.9798 63.9141C30.4358 63.9169 32.887 64.3013 35.2433 65.0673V65.0693C39.7442 66.5315 44.5518 66.601 49.0493 65.3104C49.9876 65.0412 50.9917 65.405 51.5191 66.2261L68.2503 92.2772Z" fill="#FD9BA1"/>
<path d="M17.8732 90.6432L34.4522 64.8272C32.3406 64.222 30.1625 63.9165 27.98 63.9141C27.2292 63.9133 26.5283 64.2909 26.1226 64.9226L8.55302 92.2772C8.00755 93.1272 8.27431 93.8937 8.48135 94.2739C8.69039 94.6542 9.19007 95.2932 10.1994 95.2932H16.6145C16.5368 93.7394 16.9206 92.1261 17.8732 90.6432Z" fill="#FD828A"/>
<path d="M68.2503 92.2769C68.7958 93.127 68.529 93.8934 68.322 94.2736C68.1129 94.6539 67.6132 95.2929 66.6039 95.2929H10.1994C9.19007 95.2929 8.69039 94.6539 8.48135 94.2736C8.27431 93.8934 8.00755 93.127 8.55302 92.2769L13.7171 84.2382L22.5004 82.1558C26.7148 81.1564 31.1244 81.3376 35.2433 82.6774C37.6223 83.4498 40.0868 83.834 42.5455 83.834C45.9059 83.834 49.2544 83.1193 52.36 81.6979L59.2261 78.5585L59.3774 78.4609L68.2503 92.2769Z" fill="#FD828A"/>
<path d="M17.873 90.6432L23.4537 81.9531C23.135 82.0148 22.8171 82.0811 22.5004 82.1562L13.7171 84.2385L8.55302 92.2773C8.00755 93.1273 8.27431 93.8938 8.48135 94.274C8.69039 94.6542 9.19007 95.2933 10.1994 95.2933H16.6145C16.5366 93.7395 16.9204 92.1262 17.873 90.6432Z" fill="#FD6773"/>
<path d="M48.8751 32.9051H27.9306C26.3639 32.9051 25.0938 31.635 25.0938 30.0683C25.0938 28.5016 26.3639 27.2314 27.9306 27.2314H48.8753C50.442 27.2314 51.7122 28.5016 51.7122 30.0683C51.712 31.635 50.4418 32.9051 48.8751 32.9051Z" fill="#9BE5FB"/>
<path d="M80.5368 83.937C82.9303 83.937 84.8706 81.9967 84.8706 79.6032C84.8706 77.2098 82.9303 75.2695 80.5368 75.2695C78.1434 75.2695 76.2031 77.2098 76.2031 79.6032C76.2031 81.9967 78.1434 83.937 80.5368 83.937Z" fill="#13E29D"/>
<path d="M32.7349 76.671C34.5301 76.671 35.9854 75.2157 35.9854 73.4205C35.9854 71.6252 34.5301 70.1699 32.7349 70.1699C30.9397 70.1699 29.4844 71.6252 29.4844 73.4205C29.4844 75.2157 30.9397 76.671 32.7349 76.671Z" fill="#FD828A"/>
<path d="M38.4018 20.617C41.0205 20.617 43.1434 18.4941 43.1434 15.8754C43.1434 13.2567 41.0205 11.1338 38.4018 11.1338C35.7831 11.1338 33.6602 13.2567 33.6602 15.8754C33.6602 18.4941 35.7831 20.617 38.4018 20.617Z" fill="#FD9BA1"/>
<path d="M72.601 25.1571C75.2197 25.1571 77.3426 23.0342 77.3426 20.4154C77.3426 17.7967 75.2197 15.6738 72.601 15.6738C69.9823 15.6738 67.8594 17.7967 67.8594 20.4154C67.8594 23.0342 69.9823 25.1571 72.601 25.1571Z" fill="#9DF8D3"/>
<path d="M26.3434 8.96318C28.1187 8.96318 29.5579 7.524 29.5579 5.74868C29.5579 3.97336 28.1187 2.53418 26.3434 2.53418C24.5681 2.53418 23.1289 3.97336 23.1289 5.74868C23.1289 7.524 24.5681 8.96318 26.3434 8.96318Z" fill="#FD9BA1"/>
<path d="M26.674 62.4526C26.193 62.4769 25.7533 62.7317 25.4931 63.137L7.29621 91.4711C6.59347 92.5656 6.54788 93.8478 7.17119 94.9894C7.7947 96.1311 8.89839 96.786 10.1996 96.786H66.6029C67.9041 96.786 69.0077 96.1311 69.6313 94.9896C70.2548 93.848 70.2092 92.5654 69.5064 91.4711L51.8624 63.9984C51.4854 63.4113 50.7524 63.1639 50.096 63.402C45.4822 65.079 40.3715 65.1666 35.7055 63.6486C32.7876 62.6994 29.7497 62.2967 26.674 62.4526ZM67.0106 93.5584C66.8888 93.7816 66.7482 93.8001 66.6029 93.8001H10.1996C10.0544 93.8001 9.91388 93.7816 9.79204 93.5584C9.67021 93.3348 9.73033 93.2068 9.80877 93.0848L14.6465 85.5521L22.8433 83.6093C26.7932 82.673 30.9215 82.8419 34.7818 84.0976C40.7808 86.049 47.244 85.6791 52.981 83.0557L58.8339 80.3791L66.9939 93.0846C67.0721 93.2066 67.1324 93.3348 67.0106 93.5584ZM49.9786 66.5908L57.2037 77.8408L51.7388 80.3397C46.6844 82.6507 40.9906 82.9768 35.7053 81.2576C31.3232 79.8322 26.6376 79.6407 22.1545 80.7034L16.9714 81.9319L27.5826 65.4093C30.031 65.3677 32.4516 65.73 34.7818 66.4881C39.6974 68.0871 45.048 68.1165 49.9786 66.5908Z" fill="black"/>
<path d="M83.6933 44.6634V39.5889L84.8416 34.7326C85.0558 33.8264 84.8474 32.8877 84.2696 32.1573C83.6919 31.4269 82.8263 31.0083 81.8952 31.0083H63.2182C62.2869 31.0083 61.4216 31.4271 60.8436 32.1573C60.2657 32.8875 60.0575 33.8262 60.2717 34.7326L61.42 39.5889V44.6636C57.5119 46.2207 53.9595 48.5965 51.0104 51.6161L50.808 51.301V33.9413C52.2278 33.23 53.2052 31.7616 53.2052 30.0682C53.2052 27.6807 51.2629 25.7383 48.8753 25.7383H27.9304C25.5429 25.7383 23.6005 27.6807 23.6005 30.0682C23.6005 31.7616 24.5779 33.23 25.998 33.9413V39.52C25.998 40.3446 26.6663 41.0131 27.491 41.0131C28.3158 41.0131 28.9841 40.3446 28.9841 39.52V34.3979H47.8216V51.739C47.8216 52.025 47.9038 52.3051 48.0583 52.5458L49.5339 54.8432C49.5361 54.8467 49.5384 54.8503 49.5408 54.8539L53.5387 61.0789C53.824 61.523 54.3051 61.7653 54.7963 61.7653C55.0726 61.7653 55.3521 61.6886 55.6017 61.5284C56.2955 61.0828 56.4968 60.1591 56.0512 59.4653L52.6713 54.2023C55.6362 51.0089 59.3287 48.5631 63.4157 47.1007C64.0096 46.8882 64.4059 46.3254 64.4059 45.6948V39.4145C64.4059 39.2988 64.3926 39.1836 64.3659 39.0709L63.1776 34.0452C63.1752 34.035 63.173 34.0255 63.1854 34.0097C63.1977 33.994 63.2077 33.994 63.218 33.994H81.8951C81.9054 33.994 81.9152 33.994 81.9275 34.0097C81.9398 34.0255 81.9377 34.035 81.9353 34.0452L80.747 39.0709C80.7203 39.1834 80.707 39.2988 80.707 39.4145V45.6948C80.707 46.3254 81.1031 46.888 81.6972 47.1007C92.4571 50.9506 99.6864 61.2186 99.6864 72.651C99.6864 87.2937 88.0254 99.2623 73.5026 99.7627C74.0251 99.1948 74.4886 98.5577 74.8742 97.8518C75.094 97.4495 75.2809 97.038 75.4388 96.6205C79.2041 96.1682 82.8337 94.825 85.9927 92.7015C86.6771 92.2414 86.859 91.3137 86.399 90.6293C85.9387 89.945 85.0112 89.7631 84.327 90.223C81.8292 91.9018 78.9959 93.0238 76.043 93.5181C76.0814 91.6933 75.5777 89.8694 74.5332 88.2427L63.6771 71.3393L66.8876 69.7503C71.7744 67.3317 77.429 67.2285 82.4009 69.4678C85.4772 70.8531 88.8841 71.4866 92.2526 71.3009C92.2887 71.2989 92.3245 71.2955 92.3603 71.2909L93.6587 71.1241C93.6955 71.6317 93.7141 72.1444 93.7141 72.6508C93.7141 77.5835 91.9711 82.3891 88.8066 86.1825C88.2785 86.8158 88.3633 87.7572 88.9965 88.2853C89.2758 88.5183 89.6149 88.6319 89.9523 88.6319C90.3797 88.6319 90.8042 88.4494 91.0996 88.0954C94.7114 83.7663 96.7004 78.2813 96.7004 72.6508C96.7004 71.9863 96.6723 71.3126 96.617 70.6487C96.5547 69.9 96.1834 69.1994 95.5987 68.7268C95.0138 68.2538 94.2494 68.0378 93.5038 68.1332L92.035 68.3219C89.159 68.4724 86.2531 67.9273 83.6272 66.7448C77.8379 64.1373 71.2536 64.2571 65.5632 67.0739L62.0536 68.811L59.4899 64.8191C59.0444 64.1251 58.1205 63.9239 57.4269 64.3696C56.7331 64.8151 56.5318 65.7389 56.9774 66.4326L72.0208 89.8563C73.3128 91.8679 73.4 94.322 72.2537 96.4202C71.3832 98.0138 69.955 99.1181 68.271 99.5579C68.2609 99.5605 68.2505 99.5623 68.2403 99.5651C67.7164 99.6992 67.1687 99.7713 66.6047 99.7713H10.2012C7.81008 99.7713 5.69846 98.5185 4.55218 96.4202C3.40609 94.322 3.49329 91.8681 4.7853 89.8565L28.7474 52.5456C28.9019 52.3049 28.9841 52.0248 28.9841 51.7388V45.8825C28.9841 45.0579 28.3158 44.3894 27.491 44.3894C26.6663 44.3894 25.998 45.0579 25.998 45.8825V51.3004L2.27274 88.2431C0.381311 91.1883 0.253503 94.7804 1.93152 97.8522C3.60955 100.924 6.70082 102.758 10.2012 102.758H66.6045C67.3334 102.758 68.0429 102.674 68.7273 102.521C69.9992 102.682 71.2856 102.768 72.5565 102.768C89.1628 102.768 102.673 89.2574 102.673 72.6514C102.673 60.3148 95.0889 49.1997 83.6933 44.6634ZM27.9304 31.412C27.1894 31.412 26.5866 30.8092 26.5866 30.0682C26.5866 29.3272 27.1894 28.7244 27.9304 28.7244H48.8751C49.6161 28.7244 50.2189 29.3272 50.2189 30.0682C50.2189 30.8092 49.6161 31.412 48.8751 31.412H27.9304Z" fill="black"/>
<path d="M74.7109 79.6032C74.7109 82.8161 77.3248 85.4299 80.5377 85.4299C83.7506 85.4299 86.3645 82.8161 86.3645 79.6032C86.3645 76.3902 83.7506 73.7764 80.5377 73.7764C77.3248 73.7764 74.7109 76.3902 74.7109 79.6032ZM83.3782 79.6032C83.3782 81.1695 82.1041 82.4438 80.5375 82.4438C78.971 82.4438 77.6969 81.1695 77.6969 79.6032C77.6969 78.0368 78.971 76.7625 80.5375 76.7625C82.1041 76.7625 83.3782 78.0368 83.3782 79.6032Z" fill="black"/>
<path d="M32.7319 78.164C35.3476 78.164 37.4755 76.036 37.4755 73.4204C37.4755 70.8047 35.3476 68.6768 32.7319 68.6768C30.1162 68.6768 27.9883 70.8047 27.9883 73.4204C27.9883 76.036 30.1164 78.164 32.7319 78.164ZM32.7319 71.6629C33.701 71.6629 34.4893 72.4513 34.4893 73.4204C34.4893 74.3895 33.701 75.1778 32.7319 75.1778C31.7628 75.1778 30.9744 74.3895 30.9744 73.4204C30.9744 72.4513 31.7628 71.6629 32.7319 71.6629Z" fill="black"/>
<path d="M38.4029 22.11C41.8407 22.11 44.6374 19.3132 44.6374 15.8753C44.6374 12.4375 41.8405 9.64062 38.4029 9.64062C34.9652 9.64062 32.168 12.4375 32.168 15.8753C32.168 19.313 34.965 22.11 38.4029 22.11ZM38.4029 12.6266C40.194 12.6266 41.6512 14.0838 41.6512 15.8751C41.6512 17.6664 40.194 19.1237 38.4029 19.1237C36.6116 19.1237 35.1543 17.6664 35.1543 15.8751C35.1541 14.084 36.6116 12.6266 38.4029 12.6266Z" fill="black"/>
<path d="M72.5978 26.6501C76.0356 26.6501 78.8325 23.8532 78.8325 20.4154C78.8325 16.9775 76.0354 14.1807 72.5978 14.1807C69.1601 14.1807 66.3633 16.9775 66.3633 20.4154C66.3633 23.8532 69.1601 26.6501 72.5978 26.6501ZM72.5978 17.1668C74.3891 17.1668 75.8463 18.6241 75.8463 20.4154C75.8463 22.2067 74.3891 23.6639 72.5978 23.6639C70.8067 23.6639 69.3494 22.2067 69.3494 20.4154C69.3494 18.6241 70.8067 17.1668 72.5978 17.1668Z" fill="black"/>
<path d="M26.3441 10.4569C28.9399 10.4569 31.0517 8.34514 31.0517 5.74937C31.0517 3.1536 28.9399 1.04199 26.3441 1.04199C23.7483 1.04199 21.6367 3.1538 21.6367 5.74937C21.6365 8.34514 23.7483 10.4569 26.3441 10.4569ZM26.3441 4.02795C27.2935 4.02795 28.0655 4.80017 28.0655 5.74917C28.0655 6.69837 27.2933 7.47059 26.3441 7.47059C25.3949 7.47059 24.6229 6.69837 24.6229 5.74917C24.6227 4.80017 25.3949 4.02795 26.3441 4.02795Z" fill="black"/>
</g>
<defs>
<clipPath id="clip0_576_962">
<rect width="101.915" height="101.915" fill="white" transform="translate(0.757812 0.947266)"/>
</clipPath>
</defs>
</svg>
