<svg width="24" height="34" viewBox="0 0 21 31" fill="none" xmlns="http://www.w3.org/2000/svg">
<path d="M15.3868 2.56535L13.2707 11.2253L11.513 2.44555C10.8945 -0.965437 5.82674 0.0973439 6.5326 3.3421L7.79955 9.78718C6.51213 9.3369 4.33166 10.4306 4.51236 12.4439C3.75109 11.3167 0.165893 11.6427 0.453927 14.9443C0.453927 14.9443 0.747452 17.1942 0.786389 17.9485C0.855777 19.3018 0.757436 21.7903 0.973087 23.3662C1.61106 28.0307 5.86717 30.2062 9.80181 30.2935C9.88401 30.2955 9.96688 30.2965 10.0504 30.2965C14.0999 30.2965 18.5027 28.1115 19.4088 23.1576C20.0642 19.5674 18.8522 17.9505 17.1759 16.72L20.3243 3.66108C21.0931 0.618002 16.158 -0.604022 15.3868 2.56535ZM7.24894 2.90231C6.89551 1.11071 9.79682 0.777744 10.1443 2.5968L12.453 14.6882C12.0192 14.7432 11.1776 15.1181 10.1473 15.1735L9.77785 11.9177C9.70147 11.2288 9.13788 10.4157 8.65017 10.0298L7.24894 2.90231ZM7.44512 10.7122C8.21488 11.0806 8.50491 11.3332 8.84935 15.1834C7.84048 15.1834 7.01781 16.1134 7.01781 17.2182C6.38434 17.2182 6.01044 16.5682 5.80328 15.8858C5.50027 14.8909 5.27114 13.3988 5.1688 12.5747C4.96363 10.9084 6.64791 10.3303 7.44512 10.7122ZM4.32267 14.221C4.45446 14.7167 5.12737 17.2506 4.91621 18.3783C4.56029 20.2722 1.66447 19.8639 1.44383 17.913L1.06993 14.7157C0.857275 12.7998 3.69369 11.8503 4.32267 14.221ZM17.1554 24.9591C14.6859 29.0795 9.53524 29.8158 6.07334 28.3427C3.09016 27.0732 0.945133 25.0215 1.42785 19.4805C2.00442 20.3651 5.3555 21.2347 6.1567 17.91C6.47319 18.1062 6.82063 18.2175 7.16907 18.251C7.67824 19.5893 9.3141 20.0022 9.83276 20.1035C8.75201 20.718 7.88291 21.9141 8.41156 23.8639C8.36913 20.6436 11.7881 19.7241 12.2828 19.9048C12.8559 20.115 13.5882 21.1458 13.7629 21.6999C13.8313 21.9186 13.8458 22.6149 13.8458 22.6149C13.8458 22.6149 14.0469 21.9161 14.0145 21.6804C13.9142 20.9576 12.9857 19.5748 12.3043 19.3063C11.4941 18.9883 9.42392 19.1895 8.64967 18.7921C7.09918 17.9964 7.62183 15.6727 8.89727 15.8099C10.3414 15.9652 11.1576 15.7141 11.8715 15.5119C12.6971 15.2783 13.421 15.0611 14.1473 15.6058C14.9051 16.1733 16.5524 17.3904 17.0491 17.8816C18.6765 19.491 18.3006 23.0477 17.1554 24.9591ZM18.8851 3.88073L16.0482 15.9662C14.9655 15.2963 14.4463 14.7741 13.9751 14.7432L13.5757 12.8018L16.1111 2.64123C16.5274 0.935489 19.4003 1.86548 18.8851 3.88073Z" fill="black"/>
</svg>
