<svg width="24" height="24" viewBox="0 0 44 26" fill="none" xmlns="http://www.w3.org/2000/svg">
<path d="M32.1706 0C30.7593 0 29.4526 0.547705 28.4486 1.51986C27.4448 2.49195 26.7914 3.87833 26.7914 5.42271C26.7914 6.96708 27.4448 8.35318 28.4486 9.32526C29.4525 10.2975 30.7593 10.8452 32.1706 10.8452C33.582 10.8452 34.8887 10.2975 35.8927 9.32533C36.8964 8.35325 37.55 6.96708 37.55 5.42271C37.55 3.87833 36.8964 2.49202 35.8927 1.51986C34.8887 0.547705 33.582 0 32.1706 0ZM8.69696 6.81967C7.71772 6.81967 6.80225 7.1976 6.08161 7.89555C5.36097 8.59336 4.8825 9.60082 4.8825 10.7268C4.8825 11.8527 5.36097 12.8602 6.08161 13.558C6.80225 14.256 7.71772 14.6339 8.69696 14.6339C9.67621 14.6339 10.5919 14.256 11.3125 13.558C12.0332 12.8602 12.5112 11.8527 12.5112 10.7268C12.5112 9.60082 12.0332 8.59336 11.3125 7.89555C10.5919 7.1976 9.67621 6.81967 8.69696 6.81967ZM27.1634 10.2063C27.0039 10.296 26.8493 10.3901 26.7001 10.4887C25.3586 11.3783 24.3707 12.6945 23.6162 14.3388C22.1892 17.4478 21.6206 21.6775 20.6759 26H43.6654C42.7206 21.6775 42.1517 17.4477 40.7249 14.3388C39.9704 12.6945 38.9828 11.3783 37.6412 10.4887C37.4921 10.3901 37.3375 10.2959 37.1779 10.2063C35.9221 11.3638 34.1516 12.124 32.1707 12.124C30.1898 12.124 28.4193 11.3638 27.1635 10.2063H27.1634ZM4.9089 14.5385C4.85286 14.573 4.79711 14.608 4.74244 14.6443C3.77581 15.2853 3.04891 16.2464 2.48994 17.4645C1.45319 19.7235 1.01844 22.8168 0.332031 26H17.0617C16.3754 22.8168 15.9406 19.7235 14.9039 17.4645C14.345 16.2464 13.6182 15.2853 12.6516 14.6443C12.597 14.6082 12.5415 14.573 12.4851 14.5385C11.519 15.3672 10.1858 15.9126 8.69696 15.9126C7.20815 15.9126 5.87504 15.3671 4.9089 14.5385Z" fill="white"/>
</svg>
