<svg width="39" height="26" viewBox="0 0 39 26" fill="none" xmlns="http://www.w3.org/2000/svg">
<path d="M3.49375 0.202916L2.756 0.207792C2.51225 0.215917 2.26362 0.228916 2.0215 0.272791C1.65558 0.330618 1.30862 0.474497 1.00916 0.692592C0.709707 0.910687 0.466311 1.19677 0.299 1.52729C0.18525 1.75154 0.11375 1.97904 0.0715 2.22604C0.026 2.46654 0.011375 2.71354 0.0065 2.95729L0 3.29692V22.077C0 22.1897 0.001625 22.3018 0.004875 22.4134C0.011375 22.6572 0.026 22.9058 0.069875 23.1479C0.112125 23.3906 0.189042 23.623 0.300625 23.845C0.525071 24.2859 0.883482 24.6443 1.32438 24.8688C1.54862 24.9825 1.77613 25.0557 2.02312 25.0995C2.26362 25.1434 2.51063 25.158 2.75437 25.1645L3.09238 25.1694H35.9076L36.244 25.1645C36.4878 25.158 36.7364 25.1434 36.9785 25.0995C37.2206 25.0557 37.4514 24.9842 37.674 24.8704C38.1164 24.6467 38.4757 24.2875 38.6994 23.845C38.8131 23.6208 38.8862 23.3933 38.9285 23.1463C38.9724 22.9058 38.987 22.6588 38.9935 22.415C38.9967 22.3024 38.9984 22.1897 38.9984 22.077L39 21.6773V3.29529C39 3.18262 38.9978 3.0705 38.9935 2.95892C38.9904 2.71279 38.9687 2.46726 38.9285 2.22442C38.8498 1.73545 38.619 1.28371 38.269 0.93337C37.9189 0.583026 37.4674 0.351889 36.9785 0.272791C36.7357 0.232613 36.4901 0.210884 36.244 0.207792C35.9987 0.201114 35.7533 0.199488 35.5079 0.202916H3.49375ZM3.49375 1.03492H35.8995C36.0057 1.03492 36.1124 1.03654 36.2196 1.03979C36.4065 1.04629 36.6259 1.05604 36.829 1.09179C37.0061 1.12429 37.154 1.17304 37.2954 1.24454C37.5802 1.38951 37.8118 1.62107 37.9567 1.90592C38.0311 2.05325 38.0826 2.21106 38.1095 2.37392C38.1452 2.57379 38.155 2.79317 38.1599 2.98167C38.1631 3.08675 38.1647 3.19346 38.1647 3.30179V22.0738C38.1647 22.1789 38.1631 22.285 38.1599 22.3923C38.155 22.5792 38.1453 22.7985 38.1079 23.0017C38.0723 23.2407 37.98 23.4676 37.8386 23.6636C37.6973 23.8595 37.511 24.0187 37.2954 24.1278C37.1491 24.2019 36.9924 24.2534 36.8306 24.2805C36.6299 24.3105 36.4274 24.3278 36.2245 24.3325L35.8995 24.3374H3.09725C2.98892 24.3374 2.88275 24.3358 2.77875 24.3325C2.57474 24.328 2.37121 24.3106 2.16937 24.2805C1.99225 24.248 1.84438 24.1993 1.70138 24.1278C1.41507 23.9854 1.18333 23.7531 1.04162 23.4664C0.967236 23.3191 0.915729 23.1613 0.888875 22.9984C0.856417 22.798 0.839035 22.5953 0.836875 22.3923L0.833625 22.0722V3.30017L0.836875 2.98004C0.843375 2.79479 0.853125 2.57704 0.888875 2.37067C0.921375 2.19517 0.970125 2.04729 1.04162 1.90429C1.18687 1.62005 1.4184 1.38909 1.703 1.24454C1.84983 1.17031 2.00708 1.1188 2.16937 1.09179C2.3725 1.05604 2.59188 1.04467 2.77875 1.03979L3.09725 1.03492H3.49375ZM11.1475 7.04742C10.66 7.07342 10.062 7.37079 9.7175 7.78842C9.40713 8.14592 9.1325 8.73092 9.204 9.28017C9.75325 9.32892 10.3009 9.00554 10.647 8.60092C10.9801 8.18167 11.2076 7.62104 11.1475 7.04904V7.04742ZM14.7339 7.72992V16.656H16.1184V13.6059H18.0359C19.7876 13.6059 21.0177 12.405 21.0177 10.6614C21.0177 8.92267 19.812 7.72829 18.0798 7.72829L14.7339 7.72992ZM16.1184 8.89829H17.7141C18.915 8.89829 19.6007 9.54179 19.6007 10.6679C19.6007 11.7924 18.915 12.4424 17.7092 12.4424H16.1184V8.89829ZM10.9931 9.38579C10.2619 9.40204 9.64437 9.84079 9.28687 9.84079C8.905 9.84079 8.32325 9.41179 7.69275 9.42317C7.28276 9.43405 6.88271 9.55175 6.53216 9.76465C6.18161 9.97754 5.8927 10.2783 5.694 10.637C4.83763 12.1125 5.46812 14.3014 6.30175 15.5039C6.70638 16.0987 7.19387 16.7535 7.83575 16.7292C8.44188 16.7064 8.68075 16.3359 9.41687 16.3359C10.1546 16.3359 10.3691 16.7292 11.0094 16.7178C11.6756 16.7064 12.0933 16.123 12.4963 15.5267C12.961 14.849 13.1511 14.1942 13.1625 14.16C13.1511 14.147 11.8787 13.6595 11.8674 12.1954C11.8544 10.9702 12.8667 10.3868 12.9139 10.351C12.3419 9.50604 11.4514 9.41179 11.1426 9.38742L10.9931 9.38579ZM24.3246 10.0309C22.7159 10.0309 21.7149 10.897 21.6401 12.0719H22.9028C23.0198 11.4902 23.5024 11.1197 24.2759 11.1197C25.0916 11.1197 25.5807 11.5519 25.5807 12.275V12.7772L23.7981 12.8812C22.2528 12.9689 21.3801 13.6677 21.3801 14.8052C21.3801 15.9752 22.2706 16.7665 23.5446 16.7665C24.3994 16.7665 25.2216 16.3099 25.5986 15.5852H25.6295V16.656H26.91V12.171C26.91 10.8662 25.9025 10.0309 24.3246 10.0309ZM27.4771 10.1479L29.8269 16.6625C29.8269 16.6674 29.7083 17.0525 29.7083 17.0639C29.5051 17.7302 29.172 17.9918 28.5529 17.9918C28.4407 17.9918 28.2181 17.9918 28.119 17.9674V19.0497C28.2165 19.0675 28.5529 19.0805 28.6634 19.0805C30.0121 19.0805 30.6556 18.5735 31.2114 16.9957L33.6489 10.1479H32.2384L30.5939 15.4438H30.5695L28.9234 10.1463L27.4771 10.1479ZM25.5807 13.705V14.2185C25.5807 15.0652 24.8495 15.7087 23.9167 15.7087C23.1985 15.7087 22.7289 15.3382 22.7289 14.7678C22.7289 14.212 23.1806 13.8578 23.9785 13.8042L25.5807 13.705Z" fill="black"/>
</svg>
