<svg width="39" height="26" viewBox="0 0 39 26" fill="none" xmlns="http://www.w3.org/2000/svg">
<path d="M3.49375 0.202916L2.756 0.207792C2.51225 0.215917 2.26362 0.228916 2.0215 0.272791C1.65558 0.330618 1.30862 0.474497 1.00916 0.692592C0.709707 0.910687 0.466311 1.19677 0.299 1.52729C0.18525 1.75154 0.11375 1.97904 0.0715 2.22604C0.026 2.46654 0.011375 2.71354 0.0065 2.95729L0 3.29692V22.077C0 22.1897 0.001625 22.3018 0.004875 22.4134C0.011375 22.6572 0.026 22.9058 0.069875 23.1479C0.112125 23.3906 0.189042 23.623 0.300625 23.845C0.525071 24.2859 0.883482 24.6443 1.32438 24.8688C1.54862 24.9825 1.77612 25.0557 2.02312 25.0995C2.26362 25.1434 2.51062 25.158 2.75437 25.1645L3.09238 25.1694H35.9076L36.244 25.1645C36.4878 25.158 36.7364 25.1434 36.9785 25.0995C37.2206 25.0557 37.4514 24.9842 37.674 24.8704C38.1164 24.6467 38.4757 24.2875 38.6994 23.845C38.8131 23.6208 38.8862 23.3933 38.9285 23.1463C38.9724 22.9058 38.987 22.6588 38.9935 22.415C38.9967 22.3024 38.9984 22.1897 38.9984 22.077L39 21.6773V3.29529C39 3.18262 38.9978 3.0705 38.9935 2.95892C38.9904 2.71279 38.9687 2.46726 38.9285 2.22442C38.8498 1.73545 38.619 1.28371 38.269 0.93337C37.9189 0.583026 37.4674 0.351889 36.9785 0.272791C36.7357 0.232613 36.4901 0.210884 36.244 0.207792C35.9987 0.201114 35.7533 0.199488 35.5079 0.202916H3.49375ZM3.49375 1.03492H35.8995C36.0057 1.03492 36.1124 1.03654 36.2196 1.03979C36.4065 1.04629 36.6259 1.05604 36.829 1.09179C37.0061 1.12429 37.154 1.17304 37.2954 1.24454C37.5802 1.38951 37.8118 1.62107 37.9567 1.90592C38.0311 2.05325 38.0826 2.21106 38.1095 2.37392C38.1453 2.57379 38.155 2.79317 38.1599 2.98167C38.1631 3.08675 38.1647 3.19346 38.1647 3.30179V22.0738C38.1647 22.1789 38.1631 22.285 38.1599 22.3923C38.155 22.5792 38.1453 22.7985 38.1079 23.0017C38.0723 23.2407 37.98 23.4676 37.8386 23.6636C37.6973 23.8595 37.511 24.0187 37.2954 24.1278C37.1491 24.2019 36.9924 24.2534 36.8306 24.2805C36.6299 24.3105 36.4274 24.3278 36.2245 24.3325L35.8995 24.3374H3.09725C2.98892 24.3374 2.88275 24.3358 2.77875 24.3325C2.57474 24.328 2.37121 24.3106 2.16937 24.2805C1.99225 24.248 1.84438 24.1993 1.70138 24.1278C1.41507 23.9854 1.18333 23.7531 1.04162 23.4664C0.967236 23.3191 0.915729 23.1613 0.888875 22.9984C0.856417 22.798 0.839035 22.5953 0.836875 22.3923L0.833625 22.0722V3.30017L0.836875 2.98004C0.843375 2.79479 0.853125 2.57704 0.888875 2.37067C0.921375 2.19517 0.970125 2.04729 1.04162 1.90429C1.18687 1.62005 1.4184 1.38909 1.703 1.24454C1.84983 1.17031 2.00708 1.1188 2.16937 1.09179C2.3725 1.05604 2.59187 1.04467 2.77875 1.03979L3.09725 1.03492H3.49375Z" fill="black"/>
<path d="M8.695 16.2728L6.73125 20.9578H5.45L4.48375 17.2184C4.425 16.9884 4.37437 16.904 4.19562 16.8071C3.90438 16.649 3.42312 16.5009 3 16.4084L3.02875 16.2728H5.09125C5.22603 16.2726 5.35642 16.3207 5.45888 16.4083C5.56134 16.4958 5.62913 16.6171 5.65 16.7503L6.16062 19.4615L7.42188 16.2728H8.695ZM13.7156 19.4284C13.7206 18.1915 12.0056 18.1234 12.0175 17.5709C12.0213 17.4028 12.1812 17.224 12.5312 17.1784C12.9414 17.1394 13.3545 17.212 13.7269 17.3884L13.9394 16.3946C13.5769 16.2583 13.1929 16.1878 12.8056 16.1865C11.6075 16.1865 10.7644 16.824 10.7569 17.7359C10.7494 18.4103 11.3588 18.7859 11.8181 19.0109C12.2906 19.2403 12.4494 19.3878 12.4469 19.5928C12.4437 19.9078 12.0706 20.0459 11.7219 20.0515C11.1125 20.0609 10.7594 19.8871 10.4769 19.7559L10.2575 20.7821C10.5406 20.9121 11.0631 21.0259 11.605 21.0309C12.8781 21.0309 13.7113 20.4021 13.7156 19.4284ZM16.8787 20.9578H18L17.0219 16.2728H15.9869C15.8762 16.2715 15.7678 16.3036 15.6757 16.3649C15.5836 16.4263 15.5121 16.5139 15.4706 16.6165L13.6525 20.9578H14.925L15.1781 20.2578H16.7331L16.8787 20.9578ZM15.5269 19.2978L16.1644 17.5384L16.5319 19.2978H15.5269ZM10.4269 16.2728L9.425 20.9578H8.2125L9.21562 16.2728H10.4269Z" fill="black"/>
<g clip-path="url(#clip0_335_858)">
<path d="M29.2812 15.7812H31.7123V20.1494H29.2812V15.7812Z" fill="#FF5F00"/>
<path d="M29.4344 17.9649C29.4344 17.0774 29.8511 16.2901 30.4917 15.7808C30.0209 15.4103 29.4267 15.1865 28.7784 15.1865C27.2425 15.1865 26 16.4291 26 17.9649C26 19.5007 27.2425 20.7433 28.7784 20.7433C29.4266 20.7433 30.0209 20.5194 30.4917 20.149C29.8511 19.6473 29.4344 18.8524 29.4344 17.9649Z" fill="#EB001B"/>
<path d="M34.9917 17.9649C34.9917 19.5007 33.7491 20.7433 32.2133 20.7433C31.565 20.7433 30.9708 20.5194 30.5 20.149C31.1483 19.6396 31.5573 18.8524 31.5573 17.9649C31.5573 17.0774 31.1405 16.2901 30.5 15.7808C30.9707 15.4103 31.565 15.1865 32.2133 15.1865C33.7491 15.1865 34.9917 16.4368 34.9917 17.9649Z" fill="#F79E1B"/>
</g>
<line x1="4.37114e-08" y1="9.68652" x2="39" y2="9.68653" stroke="black"/>
<line x1="4.37114e-08" y1="5.68652" x2="39" y2="5.68653" stroke="black"/>
<defs>
<clipPath id="clip0_335_858">
<rect width="9" height="6.99609" fill="white" transform="translate(26 15.1865)"/>
</clipPath>
</defs>
</svg>
