<svg width="24" height="24" viewBox="0 0 40 40" fill="none" xmlns="http://www.w3.org/2000/svg">
<path fill-rule="evenodd" clip-rule="evenodd" d="M5.00065 6.6665H35.0007C35.4427 6.6665 35.8666 6.8421 36.1792 7.15466C36.4917 7.46722 36.6673 7.89114 36.6673 8.33317V31.6665C36.6673 32.1085 36.4917 32.5325 36.1792 32.845C35.8666 33.1576 35.4427 33.3332 35.0007 33.3332H5.00065C4.55862 33.3332 4.1347 33.1576 3.82214 32.845C3.50958 32.5325 3.33398 32.1085 3.33398 31.6665V8.33317C3.33398 7.89114 3.50958 7.46722 3.82214 7.15466C4.1347 6.8421 4.55862 6.6665 5.00065 6.6665ZM31.719 9.8565L20.2607 19.0232C20.1868 19.0821 20.0951 19.1142 20.0007 19.1142C19.9062 19.1142 19.8145 19.0821 19.7407 19.0232L8.28232 9.8565L6.71898 11.8098L18.179 20.9765C18.6961 21.3901 19.3385 21.6153 20.0007 21.6153C20.6628 21.6153 21.3052 21.3901 21.8223 20.9765L33.2823 11.8098L31.719 9.8565Z" fill="white"/>
</svg>
