<svg width="24" height="24" viewBox="0 0 140 140" fill="none" xmlns="http://www.w3.org/2000/svg">
<g clip-path="url(#clip0_576_898)">
<path d="M92.8191 28.1504V43.622C91.1107 44.075 89.5384 44.9378 88.2387 46.1356C86.9389 47.3334 85.9507 48.83 85.3598 50.4958C85.2839 50.7126 81.5217 61.533 78.0848 71.41C77.5644 72.8846 77.0548 74.3482 76.5669 75.7469H62.7976C62.3097 74.3482 61.8001 72.8846 61.2797 71.41C57.8428 61.5221 54.0806 50.7018 53.9938 50.485C53.3116 48.6161 52.1358 46.9669 50.5915 45.7127C49.0471 44.4585 47.1918 43.646 45.2227 43.3617V28.1504H92.8191Z" fill="#FC785E"/>
<path d="M26.1935 33.0292C26.0671 32.6502 25.838 32.3138 25.5317 32.0573C25.2254 31.8008 24.854 31.6343 24.4588 31.5763L21.1086 31.0668L19.5907 27.825C19.4158 27.4522 19.1383 27.137 18.7908 26.9162C18.4433 26.6954 18.0401 26.5781 17.6283 26.5781C17.2166 26.5781 16.8133 26.6954 16.4658 26.9162C16.1183 27.137 15.8408 27.4522 15.6659 27.825L14.148 31.0668L10.7978 31.5763C10.4047 31.6373 10.0359 31.8052 9.73183 32.0616C9.42771 32.3181 9.19996 32.6532 9.07349 33.0304C8.94702 33.4076 8.92669 33.8123 9.01473 34.2002C9.10278 34.5882 9.2958 34.9445 9.57269 35.2301L12.0664 37.7888L11.47 41.41C11.403 41.8118 11.4508 42.2244 11.6079 42.6003C11.765 42.9761 12.0251 43.2999 12.3582 43.5344C12.6912 43.7689 13.0838 43.9046 13.4906 43.9258C13.8974 43.947 14.3019 43.8529 14.6576 43.6543L17.6283 42.0172L20.599 43.6543C20.9557 43.849 21.3594 43.941 21.7652 43.9199C22.1709 43.8989 22.5629 43.7657 22.8975 43.5351C23.2324 43.302 23.4939 42.9783 23.6513 42.602C23.8088 42.2256 23.8557 41.8121 23.7866 41.41L23.2011 37.7888L25.6839 35.2301C25.9652 34.9469 26.1619 34.591 26.2519 34.2021C26.342 33.8133 26.3217 33.4071 26.1935 33.0292ZM19.3305 35.5337C19.0958 35.7784 18.9209 36.074 18.8193 36.3975C18.7178 36.721 18.6923 37.0636 18.745 37.3985L18.7884 37.7021L18.68 37.637C18.3571 37.4615 17.9958 37.3684 17.6283 37.366C17.2611 37.3711 16.9005 37.464 16.5766 37.637L16.4682 37.7021L16.5224 37.3985C16.5758 37.0627 16.5496 36.719 16.446 36.3952C16.3425 36.0713 16.1644 35.7762 15.9261 35.5337L15.6225 35.2301L15.9478 35.1759C16.3009 35.1236 16.6355 34.9842 16.9213 34.7703C17.2071 34.5564 17.4352 34.2748 17.5849 33.9507L17.6283 33.8532L17.6825 33.9507C17.83 34.2743 18.0561 34.5559 18.3401 34.7698C18.6241 34.9838 18.9571 35.1234 19.3088 35.1759L19.6341 35.2301L19.3305 35.5337Z" fill="#2D4356"/>
<path d="M19.333 35.5331C19.0983 35.7778 18.9233 36.0734 18.8218 36.3969C18.7202 36.7204 18.6948 37.0629 18.7475 37.3979L18.7909 37.7015L18.6824 37.6364C18.3595 37.4609 17.9983 37.3678 17.6308 37.3654C17.2636 37.3704 16.903 37.4634 16.5791 37.6364L16.4707 37.7015L16.5249 37.3979C16.5782 37.0621 16.5521 36.7184 16.4485 36.3946C16.3449 36.0707 16.1669 35.7756 15.9286 35.5331L15.625 35.2295L15.9503 35.1753C16.3034 35.123 16.6379 34.9836 16.9238 34.7697C17.2096 34.5558 17.4376 34.2742 17.5874 33.9501L17.6308 33.8525L17.685 33.9501C17.8325 34.2737 18.0585 34.5553 18.3425 34.7692C18.6266 34.9832 18.9596 35.1228 19.3113 35.1753L19.6365 35.2295L19.333 35.5331Z" fill="#FFDB80"/>
<path d="M130.279 33.0292C130.153 32.6502 129.924 32.3138 129.618 32.0573C129.311 31.8008 128.94 31.6343 128.545 31.5763L125.195 31.0668L123.677 27.825C123.502 27.4522 123.224 27.137 122.877 26.9162C122.529 26.6954 122.126 26.5781 121.714 26.5781C121.302 26.5781 120.899 26.6954 120.552 26.9162C120.204 27.137 119.927 27.4522 119.752 27.825L118.234 31.0668L114.884 31.5763C114.491 31.6373 114.122 31.8052 113.818 32.0616C113.514 32.3181 113.286 32.6532 113.159 33.0304C113.033 33.4076 113.013 33.8123 113.101 34.2002C113.189 34.5882 113.382 34.9445 113.659 35.2301L116.152 37.7888L115.556 41.41C115.489 41.8118 115.537 42.2244 115.694 42.6003C115.851 42.9761 116.111 43.2999 116.444 43.5344C116.777 43.7689 117.17 43.9046 117.577 43.9258C117.983 43.947 118.388 43.8529 118.744 43.6543L121.714 42.0172L124.685 43.6543C125.042 43.8491 125.445 43.941 125.851 43.92C126.257 43.8989 126.649 43.7657 126.983 43.5351C127.318 43.302 127.58 42.9783 127.737 42.602C127.895 42.2256 127.942 41.8121 127.873 41.41L127.287 37.7888L129.77 35.2301C130.051 34.9469 130.248 34.591 130.338 34.2021C130.428 33.8133 130.408 33.4071 130.279 33.0292ZM123.416 35.5337C123.182 35.7784 123.007 36.074 122.905 36.3975C122.804 36.721 122.778 37.0636 122.831 37.3985L122.874 37.7021L122.766 37.637C122.443 37.4615 122.082 37.3684 121.714 37.366C121.347 37.3711 120.986 37.464 120.663 37.637L120.554 37.7021L120.608 37.3985C120.662 37.0627 120.636 36.719 120.532 36.3952C120.428 36.0713 120.25 35.7762 120.012 35.5337L119.708 35.2301L120.034 35.1759C120.387 35.1236 120.721 34.9842 121.007 34.7703C121.293 34.5564 121.521 34.2748 121.671 33.9507L121.714 33.8532L121.768 33.9507C121.916 34.2743 122.142 34.5558 122.426 34.7698C122.71 34.9838 123.043 35.1233 123.395 35.1758L123.72 35.23L123.416 35.5337Z" fill="#2D4356"/>
<path d="M123.415 35.5331C123.18 35.7778 123.005 36.0734 122.904 36.3969C122.802 36.7204 122.777 37.0629 122.83 37.3979L122.873 37.7015L122.764 37.6364C122.442 37.4609 122.08 37.3678 121.713 37.3654C121.346 37.3704 120.985 37.4634 120.661 37.6364L120.553 37.7015L120.607 37.3979C120.66 37.0621 120.634 36.7184 120.531 36.3946C120.427 36.0707 120.249 35.7756 120.011 35.5331L119.707 35.2295L120.032 35.1753C120.385 35.123 120.72 34.9836 121.006 34.7697C121.292 34.5558 121.52 34.2742 121.669 33.9501L121.713 33.8525L121.767 33.9501C121.915 34.2737 122.141 34.5552 122.425 34.7692C122.709 34.9831 123.042 35.1227 123.393 35.1752L123.719 35.2294L123.415 35.5331Z" fill="#FFDB80"/>
<path d="M79.3228 102.537C79.1964 102.158 78.9673 101.821 78.661 101.565C78.3548 101.308 77.9834 101.142 77.5881 101.084L73.4898 100.455L71.6359 96.5085C71.4609 96.1358 71.1835 95.8206 70.8359 95.5998C70.4884 95.379 70.0852 95.2617 69.6735 95.2617C69.2617 95.2617 68.8585 95.379 68.511 95.5998C68.1634 95.8206 67.886 96.1358 67.711 96.5085L65.8571 100.455L61.7588 101.084C61.3657 101.145 60.9969 101.313 60.6928 101.569C60.3886 101.826 60.1609 102.161 60.0344 102.538C59.908 102.915 59.8876 103.32 59.9757 103.708C60.0637 104.096 60.2567 104.452 60.5336 104.738L63.5694 107.849L62.843 112.262C62.7799 112.664 62.8296 113.075 62.9866 113.45C63.1436 113.826 63.4016 114.15 63.732 114.387C64.0656 114.62 64.4578 114.755 64.8642 114.776C65.2705 114.797 65.6747 114.704 66.0305 114.506L69.6735 112.49L73.3164 114.506C73.6754 114.693 74.0777 114.78 74.4819 114.759C74.886 114.739 75.2771 114.61 75.6149 114.387C75.949 114.153 76.2099 113.829 76.3672 113.453C76.5246 113.077 76.572 112.664 76.5039 112.262L75.7883 107.849L78.8133 104.738C79.0945 104.454 79.2913 104.098 79.3813 103.71C79.4713 103.321 79.4511 102.915 79.3228 102.537ZM71.9177 105.605C71.6817 105.849 71.5059 106.144 71.4042 106.468C71.3026 106.792 71.2779 107.135 71.3323 107.47L71.5058 108.554L70.7251 108.12C70.4042 107.94 70.0416 107.846 69.6735 107.849C69.3056 107.849 68.9437 107.942 68.6218 108.12L67.8411 108.554L68.0255 107.47C68.0804 107.134 68.0551 106.79 67.9514 106.466C67.8478 106.142 67.6688 105.847 67.4292 105.605L66.5835 104.738L67.6568 104.575C68.0085 104.519 68.3413 104.378 68.6264 104.164C68.9116 103.951 69.1407 103.671 69.294 103.35L69.6735 102.537L70.0529 103.35C70.2075 103.67 70.437 103.949 70.7219 104.162C71.0068 104.376 71.3389 104.517 71.6901 104.575L72.7635 104.738L71.9177 105.605Z" fill="#2D4356"/>
<path d="M71.9163 105.605C71.6803 105.849 71.5044 106.145 71.4028 106.468C71.3012 106.792 71.2765 107.135 71.3308 107.47L71.5043 108.554L70.7237 108.121C70.4027 107.94 70.0402 107.847 69.672 107.85C69.3042 107.85 68.9423 107.943 68.6203 108.121L67.8397 108.554L68.024 107.47C68.079 107.134 68.0536 106.79 67.95 106.466C67.8463 106.142 67.6673 105.847 67.4277 105.605L66.582 104.738L67.6554 104.575C68.0071 104.519 68.3398 104.378 68.625 104.165C68.9102 103.951 69.1392 103.672 69.2925 103.35L69.672 102.537L70.0515 103.35C70.2061 103.671 70.4355 103.949 70.7205 104.163C71.0054 104.376 71.3375 104.518 71.6886 104.575L72.762 104.738L71.9163 105.605Z" fill="#FFDB80"/>
<path d="M79.4331 62.7364V48.9032C79.4676 47.6001 79.2407 46.3032 78.7658 45.0892C78.291 43.8752 77.5777 42.7686 76.6682 41.8347C75.7587 40.9008 74.6714 40.1585 73.4703 39.6517C72.2693 39.1449 70.9789 38.8838 69.6753 38.8838C68.3717 38.8838 67.0813 39.1449 65.8803 39.6517C64.6792 40.1585 63.5919 40.9008 62.6824 41.8347C61.7729 42.7686 61.0596 43.8752 60.5848 45.0892C60.1099 46.3032 59.883 47.6001 59.9175 48.9032V62.7364C59.9175 63.3115 60.1459 63.8631 60.5526 64.2697C60.9592 64.6764 61.5108 64.9048 62.0859 64.9048C62.661 64.9048 63.2125 64.6764 63.6192 64.2697C64.0258 63.8631 64.2543 63.3115 64.2543 62.7364V58.4557H75.0963V62.7364C75.0963 63.3115 75.3248 63.8631 75.7314 64.2697C76.1381 64.6764 76.6896 64.9048 77.2647 64.9048C77.8398 64.9048 78.3913 64.6764 78.798 64.2697C79.2047 63.8631 79.4331 63.3115 79.4331 62.7364ZM75.0963 54.1189H64.2543V48.9032C64.2197 48.1698 64.3343 47.4371 64.5912 46.7492C64.848 46.0614 65.2417 45.4329 65.7485 44.9016C66.2553 44.3704 66.8646 43.9475 67.5396 43.6586C68.2145 43.3697 68.9411 43.2207 69.6753 43.2207C70.4095 43.2207 71.1361 43.3697 71.811 43.6586C72.486 43.9475 73.0953 44.3704 73.6021 44.9016C74.1089 45.4329 74.5026 46.0614 74.7594 46.7492C75.0163 47.4371 75.1309 48.1698 75.0963 48.9032V54.1189Z" fill="#2D4356"/>
<path d="M54.4965 38.8837C55.6941 38.8837 56.6649 37.9129 56.6649 36.7153C56.6649 35.5177 55.6941 34.5469 54.4965 34.5469C53.299 34.5469 52.3281 35.5177 52.3281 36.7153C52.3281 37.9129 53.299 38.8837 54.4965 38.8837Z" fill="#2D4356"/>
<path d="M84.852 38.8837C86.0496 38.8837 87.0204 37.9129 87.0204 36.7153C87.0204 35.5177 86.0496 34.5469 84.852 34.5469C83.6544 34.5469 82.6836 35.5177 82.6836 36.7153C82.6836 37.9129 83.6544 38.8837 84.852 38.8837Z" fill="#2D4356"/>
<path d="M62.7993 88.9199C62.7993 88.9199 49.919 51.9486 49.9081 51.9161C49.3158 50.3082 48.1219 48.9932 46.5785 48.2488C45.035 47.5044 43.2628 47.3887 41.6357 47.9262C41.6357 47.9262 4.67521 60.8066 4.63184 60.8174C3.02394 61.4098 1.70906 62.6037 0.964658 64.1471C0.220256 65.6905 0.104557 67.4628 0.641975 69.0899C0.641975 69.0899 13.5223 106.061 13.5331 106.083C14.1315 107.687 15.3255 108.998 16.8666 109.743C18.4077 110.488 20.1769 110.61 21.8056 110.084C21.8056 110.084 58.7877 97.1924 58.7986 97.1815C59.6408 96.9578 60.4249 96.5549 61.0971 96.0003C61.7694 95.4458 62.314 94.7527 62.6939 93.9683C63.0737 93.184 63.2797 92.3269 63.2979 91.4556C63.3161 90.5844 63.146 89.7194 62.7993 88.9199ZM57.3783 93.0941L20.3745 105.985C19.8338 106.172 19.2413 106.136 18.727 105.886C18.2127 105.636 17.8187 105.192 17.6314 104.652C17.6314 104.652 4.7511 67.7021 4.74026 67.6587C4.55651 67.1179 4.59211 66.5266 4.83941 66.0117C5.0867 65.4969 5.52599 65.0995 6.06298 64.9048C6.06298 64.9048 43.0234 52.0354 43.056 52.0137C43.5982 51.8319 44.1901 51.8697 44.7048 52.119C45.2195 52.3682 45.6162 52.8091 45.8098 53.3472C45.8098 53.3472 58.701 90.3185 58.701 90.3402C58.8025 90.6073 58.8486 90.8923 58.8365 91.1779C58.8244 91.4634 58.7544 91.7435 58.6307 92.001C58.507 92.2586 58.3321 92.4884 58.1168 92.6763C57.9015 92.8642 57.6502 93.0063 57.3783 93.0941Z" fill="#2D4356"/>
<path d="M57.3751 93.0932L20.3713 105.984C19.8307 106.171 19.2382 106.135 18.7239 105.885C18.2096 105.635 17.8155 105.191 17.6283 104.651C17.6283 104.651 4.74795 67.7012 4.73711 67.6579C4.55336 67.1171 4.58896 66.5258 4.83625 66.0109C5.08355 65.496 5.52284 65.0986 6.05983 64.904C6.05983 64.904 43.0203 52.0345 43.0528 52.0128C43.5951 51.8311 44.1869 51.8689 44.7016 52.1181C45.2164 52.3674 45.613 52.8083 45.8067 53.3464C45.8067 53.3464 58.6978 90.3177 58.6978 90.3394C58.7994 90.6065 58.8455 90.8915 58.8334 91.177C58.8213 91.4625 58.7513 91.7426 58.6275 92.0002C58.5038 92.2578 58.329 92.4875 58.1137 92.6754C57.8984 92.8633 57.6471 93.0055 57.3751 93.0932Z" fill="#E1EBF4"/>
<path d="M21.9614 101.768C23.1589 101.768 24.1298 100.798 24.1298 99.6C24.1298 98.4025 23.1589 97.4316 21.9614 97.4316C20.7638 97.4316 19.793 98.4025 19.793 99.6C19.793 100.798 20.7638 101.768 21.9614 101.768Z" fill="#2D4356"/>
<path d="M11.1176 71.41C12.3152 71.41 13.286 70.4392 13.286 69.2416C13.286 68.0441 12.3152 67.0732 11.1176 67.0732C9.92005 67.0732 8.94922 68.0441 8.94922 69.2416C8.94922 70.4392 9.92005 71.41 11.1176 71.41Z" fill="#2D4356"/>
<path d="M41.477 60.5683C42.6746 60.5683 43.6454 59.5974 43.6454 58.3998C43.6454 57.2023 42.6746 56.2314 41.477 56.2314C40.2794 56.2314 39.3086 57.2023 39.3086 58.3998C39.3086 59.5974 40.2794 60.5683 41.477 60.5683Z" fill="#2D4356"/>
<path d="M51.2348 92.0106C52.4324 92.0106 53.4032 91.0398 53.4032 89.8422C53.4032 88.6447 52.4324 87.6738 51.2348 87.6738C50.0372 87.6738 49.0664 88.6447 49.0664 89.8422C49.0664 91.0398 50.0372 92.0106 51.2348 92.0106Z" fill="#2D4356"/>
<path d="M134.734 60.8174C134.69 60.8066 97.73 47.9262 97.73 47.9262C96.1029 47.3887 94.3306 47.5044 92.7872 48.2488C91.2437 48.9932 90.0499 50.3082 89.4575 51.9161C89.4467 51.9486 76.5664 88.9199 76.5664 88.9199C76.2196 89.7194 76.0495 90.5844 76.0677 91.4556C76.0859 92.3269 76.292 93.184 76.6718 93.9683C77.0516 94.7527 77.5962 95.4458 78.2685 96.0003C78.9408 96.5549 79.7248 96.9578 80.5671 97.1815C80.5779 97.1924 117.56 110.084 117.56 110.084C119.189 110.61 120.958 110.488 122.499 109.743C124.04 108.998 125.234 107.687 125.832 106.083C125.843 106.061 138.724 69.0899 138.724 69.0899C139.261 67.4628 139.145 65.6905 138.401 64.1471C137.657 62.6037 136.342 61.4098 134.734 60.8174ZM134.625 67.6587C134.615 67.7021 121.734 104.652 121.734 104.652C121.547 105.192 121.153 105.636 120.639 105.886C120.124 106.136 119.532 106.172 118.991 105.985L81.9874 93.0941C81.7154 93.0063 81.4641 92.8642 81.2488 92.6763C81.0335 92.4884 80.8587 92.2586 80.735 92.001C80.6112 91.7435 80.5412 91.4634 80.5291 91.1779C80.517 90.8923 80.5631 90.6073 80.6646 90.3402C80.6646 90.3185 93.5558 53.3472 93.5558 53.3472C93.7495 52.8091 94.1461 52.3682 94.6608 52.119C95.1756 51.8697 95.7674 51.8319 96.3097 52.0137C96.3422 52.0354 133.303 64.9048 133.303 64.9048C133.84 65.0995 134.279 65.4969 134.526 66.0117C134.774 66.5266 134.809 67.1179 134.625 67.6587Z" fill="#2D4356"/>
<path d="M134.626 67.6579C134.615 67.7012 121.734 104.651 121.734 104.651C121.547 105.191 121.153 105.635 120.639 105.885C120.124 106.135 119.532 106.171 118.991 105.984L81.9875 93.0932C81.7155 93.0055 81.4643 92.8633 81.249 92.6754C81.0336 92.4875 80.8588 92.2578 80.7351 92.0002C80.6114 91.7426 80.5413 91.4625 80.5292 91.177C80.5171 90.8915 80.5633 90.6065 80.6648 90.3394C80.6648 90.3177 93.5559 53.3464 93.5559 53.3464C93.7496 52.8083 94.1463 52.3674 94.661 52.1181C95.1757 51.8689 95.7676 51.8311 96.3098 52.0128C96.3423 52.0345 133.303 64.904 133.303 64.904C133.84 65.0986 134.279 65.496 134.526 66.0109C134.774 66.5258 134.809 67.1171 134.626 67.6579Z" fill="#81D9E3"/>
<path d="M117.407 101.768C118.604 101.768 119.575 100.798 119.575 99.6C119.575 98.4025 118.604 97.4316 117.407 97.4316C116.209 97.4316 115.238 98.4025 115.238 99.6C115.238 100.798 116.209 101.768 117.407 101.768Z" fill="#2D4356"/>
<path d="M128.247 71.41C129.444 71.41 130.415 70.4392 130.415 69.2416C130.415 68.0441 129.444 67.0732 128.247 67.0732C127.049 67.0732 126.078 68.0441 126.078 69.2416C126.078 70.4392 127.049 71.41 128.247 71.41Z" fill="#2D4356"/>
<path d="M97.8911 60.5673C99.0886 60.5673 100.059 59.5964 100.059 58.3989C100.059 57.2013 99.0886 56.2305 97.8911 56.2305C96.6935 56.2305 95.7227 57.2013 95.7227 58.3989C95.7227 59.5964 96.6935 60.5673 97.8911 60.5673Z" fill="#2D4356"/>
<path d="M88.1332 92.0106C89.3308 92.0106 90.3017 91.0398 90.3017 89.8422C90.3017 88.6447 89.3308 87.6738 88.1332 87.6738C86.9357 87.6738 85.9648 88.6447 85.9648 89.8422C85.9648 91.0398 86.9357 92.0106 88.1332 92.0106Z" fill="#2D4356"/>
<path d="M47.9892 32.3783C47.9897 31.8034 48.2184 31.2522 48.6249 30.8457C49.0314 30.4391 49.5826 30.2105 50.1576 30.2099H89.1888C89.7637 30.2105 90.315 30.4391 90.7215 30.8457C91.128 31.2522 91.3567 31.8034 91.3572 32.3783V44.0876C92.7276 43.5034 94.2044 43.2106 95.694 43.2276V32.3783C95.6922 30.6536 95.0062 29.0001 93.7866 27.7805C92.5671 26.5609 90.9135 25.8749 89.1888 25.873H50.1576C48.4328 25.8749 46.7793 26.5609 45.5597 27.7805C44.3402 29.0001 43.6542 30.6536 43.6523 32.3783V43.2276C45.1419 43.2106 46.6188 43.5034 47.9892 44.0876V32.3783Z" fill="#2D4356"/>
<path opacity="0.5" d="M78.0864 71.4092C77.566 72.8837 77.0564 74.3474 76.5685 75.746H62.7991C62.3112 74.3474 61.8017 72.8837 61.2812 71.4092H78.0864Z" fill="#A54B3F"/>
<path d="M39.1538 75.9679C39.1754 75.9255 39.1961 75.8832 39.2168 75.8397C39.655 74.9403 39.9088 73.9623 39.9633 72.9633C40.0178 71.9643 39.8718 70.9644 39.5339 70.0227C38.8305 68.1043 37.4028 66.5382 35.5575 65.6607C33.7122 64.7832 31.5964 64.6643 29.6644 65.3296L21.2602 68.2296C20.7157 68.4234 20.2699 68.8246 20.02 69.3457C19.77 69.8669 19.7363 70.4657 19.9262 71.0116L27.3303 91.6572C27.5317 92.1862 27.9283 92.618 28.4384 92.8636C28.9485 93.1092 29.5333 93.1499 30.0726 92.9775L38.4312 90.123C40.3464 89.4468 41.9201 88.0465 42.8143 86.2228C43.7084 84.3991 43.8516 82.2975 43.2132 80.3693C42.8665 79.4008 42.3285 78.512 41.631 77.7558C40.9336 76.9996 40.0911 76.3916 39.1538 75.9679ZM26.9851 77.8472L24.7494 71.6136L31.072 69.4314C31.9239 69.1323 32.859 69.1788 33.677 69.5609C34.495 69.9431 35.1307 70.6305 35.4479 71.4758C35.7104 72.3109 35.6384 73.2153 35.2471 73.9983C34.8559 74.7814 34.1759 75.3819 33.3505 75.6735L26.9851 77.8472ZM38.9636 84.2853C38.7711 84.6873 38.5012 85.0473 38.1694 85.3448C37.8375 85.6423 37.4503 85.8714 37.0298 86.0191L30.6919 88.1832L28.4494 81.93L34.7518 79.7774C37.3903 78.8763 40.2435 81.6479 38.9636 84.2853Z" fill="#2D4356"/>
<path d="M111.389 90.1149L105.71 88.2101C103.663 87.5207 101.973 86.0474 101.01 84.1133C100.047 82.1792 99.8914 79.9423 100.576 77.8933C101.306 75.8751 102.785 74.2155 104.706 73.2594C106.627 72.3033 108.843 72.1241 110.893 72.7591L116.573 74.6649C116.843 74.7555 117.128 74.792 117.412 74.7724C117.696 74.7527 117.973 74.6774 118.228 74.5505C118.483 74.4236 118.711 74.2478 118.898 74.033C119.085 73.8182 119.228 73.5687 119.318 73.2988C119.409 73.0288 119.445 72.7436 119.426 72.4595C119.406 72.1754 119.331 71.8979 119.204 71.6429C119.077 71.388 118.901 71.1605 118.686 70.9735C118.472 70.7865 118.222 70.6436 117.952 70.553L112.273 68.6477C109.132 67.6466 105.725 67.908 102.774 69.3766C99.8229 70.8452 97.5598 73.4055 96.4646 76.5146C95.4156 79.6542 95.6547 83.0816 97.1295 86.0451C98.6043 89.0086 101.194 91.2662 104.331 92.3225L110.011 94.2273C110.556 94.4091 111.151 94.3672 111.665 94.1107C112.179 93.8542 112.571 93.4041 112.753 92.8593C112.936 92.3145 112.895 91.7195 112.639 91.2049C112.383 90.6904 111.934 90.2983 111.389 90.1149Z" fill="#2D4356"/>
<path opacity="0.5" d="M58.5677 92.1283C57.2125 88.2252 45.8067 55.5148 45.8067 55.5148C45.613 54.9767 45.2164 54.5358 44.7016 54.2866C44.1869 54.0373 43.5951 53.9995 43.0528 54.1812C43.0203 54.2029 6.05983 67.0724 6.05983 67.0724C5.55241 67.2538 5.13351 67.6222 4.88889 68.1024C4.79132 67.8097 4.73711 67.6579 4.73711 67.6579C4.55336 67.1171 4.58896 66.5258 4.83625 66.0109C5.08355 65.496 5.52284 65.0986 6.05983 64.904C6.05983 64.904 43.0203 52.0345 43.0528 52.0128C43.5951 51.8311 44.1869 51.8689 44.7016 52.1181C45.2164 52.3674 45.613 52.8083 45.8067 53.3464C45.8067 53.3464 58.6978 90.3177 58.6978 90.3394C58.818 90.6269 58.8688 90.9386 58.8462 91.2494C58.8236 91.5601 58.7282 91.8612 58.5677 92.1283Z" fill="white"/>
<path opacity="0.5" d="M57.3755 93.0938L20.3716 105.985C19.831 106.171 19.2385 106.136 18.7242 105.886C18.2099 105.636 17.8159 105.192 17.6286 104.651C17.6286 104.651 4.74829 67.7018 4.73745 67.6585C4.63997 67.3766 4.6031 67.0774 4.62926 66.7803C4.65541 66.4832 4.74401 66.195 4.88924 65.9346C6.34207 70.1087 17.6286 102.483 17.6286 102.483C17.8159 103.023 18.2099 103.467 18.7242 103.717C19.2385 103.967 19.831 104.003 20.3716 103.817L57.3755 90.9254C57.8631 90.7346 58.2797 90.3975 58.5681 89.9605C58.6548 90.2099 58.6982 90.34 58.6982 90.34C58.7997 90.6071 58.8458 90.8921 58.8337 91.1776C58.8216 91.4631 58.7516 91.7432 58.6279 92.0008C58.5041 92.2584 58.3293 92.4881 58.114 92.676C57.8987 92.8639 57.6474 93.0061 57.3755 93.0938Z" fill="#9FA5AA"/>
<path opacity="0.4" d="M134.626 67.6579C134.626 67.6579 134.572 67.8097 134.474 68.1024C134.23 67.6222 133.811 67.2538 133.303 67.0724C133.303 67.0724 96.3429 54.2029 96.3103 54.1812C95.7681 53.9995 95.1762 54.0373 94.6615 54.2866C94.1468 54.5358 93.7501 54.9767 93.5565 55.5148C93.5565 55.5148 82.1507 88.2252 80.7954 92.1283C80.6349 91.8612 80.5396 91.5601 80.517 91.2494C80.4944 90.9386 80.5452 90.6269 80.6653 90.3394C80.6653 90.3177 93.5565 53.3464 93.5565 53.3464C93.7501 52.8083 94.1468 52.3674 94.6615 52.1181C95.1762 51.8689 95.7681 51.8311 96.3103 52.0128C96.3429 52.0345 133.303 64.904 133.303 64.904C133.84 65.0986 134.28 65.496 134.527 66.0109C134.774 66.5258 134.81 67.1171 134.626 67.6579Z" fill="#E8FBFC"/>
<path opacity="0.3" d="M134.626 67.6585C134.615 67.7018 121.734 104.651 121.734 104.651C121.547 105.192 121.153 105.636 120.639 105.886C120.124 106.136 119.532 106.171 118.991 105.985L81.9875 93.0938C81.7155 93.0061 81.4643 92.8639 81.249 92.676C81.0336 92.4881 80.8588 92.2584 80.7351 92.0008C80.6114 91.7432 80.5413 91.4631 80.5292 91.1776C80.5171 90.8921 80.5633 90.6071 80.6648 90.34C80.6648 90.34 80.7081 90.2099 80.7949 89.9605C81.0833 90.3975 81.4999 90.7346 81.9875 90.9254L118.991 103.817C119.532 104.003 120.124 103.967 120.639 103.717C121.153 103.467 121.547 103.023 121.734 102.483C121.734 102.483 133.021 70.1087 134.474 65.9346C134.619 66.195 134.708 66.4832 134.734 66.7803C134.76 67.0774 134.723 67.3766 134.626 67.6585Z" fill="#0F423C"/>
<path d="M63.5661 77.9149H75.7829L77.2942 73.5781H62.0547L63.5661 77.9149Z" fill="#2D4356"/>
<path opacity="0.3" d="M91.3564 32.3784V34.5468C91.3564 34.262 91.3004 33.98 91.1915 33.7169C91.0825 33.4537 90.9228 33.2147 90.7214 33.0133C90.5201 32.8119 90.281 32.6522 90.0179 32.5433C89.7547 32.4343 89.4727 32.3783 89.188 32.3784H50.1567C49.5821 32.38 49.0315 32.609 48.6252 33.0153C48.219 33.4216 47.99 33.9722 47.9883 34.5468V32.3784C47.99 31.8038 48.219 31.2532 48.6252 30.8469C49.0315 30.4406 49.5821 30.2116 50.1567 30.21H89.188C89.4727 30.2099 89.7547 30.2659 90.0179 30.3749C90.281 30.4838 90.5201 30.6435 90.7214 30.8449C90.9228 31.0463 91.0825 31.2853 91.1915 31.5485C91.3004 31.8116 91.3564 32.0936 91.3564 32.3784Z" fill="#F9DBD7"/>
</g>
<defs>
<clipPath id="clip0_576_898">
<rect width="138.778" height="138.778" fill="white" transform="translate(0.292969 0.936523)"/>
</clipPath>
</defs>
</svg>
