<svg width="18" height="18" viewBox="0 0 24 22" fill="none" xmlns="http://www.w3.org/2000/svg">
<path fill-rule="evenodd" clip-rule="evenodd" d="M0 2.37525C0 1.06291 1.11771 0 2.49771 0H21.5023C22.8823 0 24 1.06291 24 2.37525V14.7422C24 16.0545 22.8823 17.1175 21.5023 17.1175H14.6006L15.5177 19.5546H17.1429C17.4839 19.5546 17.8109 19.6835 18.052 19.9128C18.2931 20.1421 18.4286 20.4531 18.4286 20.7773C18.4286 21.1016 18.2931 21.4126 18.052 21.6419C17.8109 21.8712 17.4839 22 17.1429 22H6.85714C6.51615 22 6.18912 21.8712 5.94801 21.6419C5.70689 21.4126 5.57143 21.1016 5.57143 20.7773C5.57143 20.4531 5.70689 20.1421 5.94801 19.9128C6.18912 19.6835 6.51615 19.5546 6.85714 19.5546H8.48229L9.39943 17.1175H2.49771C2.16971 17.1175 1.84492 17.056 1.54188 16.9366C1.23884 16.8173 0.963498 16.6423 0.731564 16.4218C0.499629 16.2012 0.315649 15.9393 0.190127 15.6512C0.0646053 15.363 0 15.0541 0 14.7422L0 2.37525ZM3.53829 8.20007C3.53829 7.63764 4.01829 7.18118 4.60971 7.18118H6.10971V5.75472C6.10971 5.4845 6.2226 5.22534 6.42353 5.03426C6.62446 4.84318 6.89698 4.73583 7.18114 4.73583C7.4653 4.73583 7.73783 4.84318 7.93876 5.03426C8.13969 5.22534 8.25257 5.4845 8.25257 5.75472V7.18118H9.75257C10.0367 7.18118 10.3093 7.28853 10.5102 7.47961C10.7111 7.67069 10.824 7.92985 10.824 8.20007C10.824 8.4703 10.7111 8.72946 10.5102 8.92054C10.3093 9.11162 10.0367 9.21897 9.75257 9.21897H8.25257V10.6454C8.25257 10.9157 8.13969 11.1748 7.93876 11.3659C7.73783 11.557 7.4653 11.6643 7.18114 11.6643C6.89698 11.6643 6.62446 11.557 6.42353 11.3659C6.2226 11.1748 6.10971 10.9157 6.10971 10.6454V9.21897H4.60971C4.32555 9.21897 4.05303 9.11162 3.8521 8.92054C3.65117 8.72946 3.53829 8.4703 3.53829 8.20007ZM17.3246 6.6106C17.3246 6.98892 17.4826 7.35174 17.7639 7.61925C18.0452 7.88676 18.4267 8.03705 18.8246 8.03705C19.2224 8.03705 19.6039 7.88676 19.8852 7.61925C20.1665 7.35174 20.3246 6.98892 20.3246 6.6106C20.3246 6.23228 20.1665 5.86945 19.8852 5.60194C19.6039 5.33443 19.2224 5.18414 18.8246 5.18414C18.4267 5.18414 18.0452 5.33443 17.7639 5.60194C17.4826 5.86945 17.3246 6.23228 17.3246 6.6106ZM13.9971 9.78955C13.9971 10.1679 14.1552 10.5307 14.4365 10.7982C14.7178 11.0657 15.0993 11.216 15.4971 11.216C15.895 11.216 16.2765 11.0657 16.5578 10.7982C16.8391 10.5307 16.9971 10.1679 16.9971 9.78955C16.9971 9.41123 16.8391 9.04841 16.5578 8.7809C16.2765 8.51338 15.895 8.3631 15.4971 8.3631C15.0993 8.3631 14.7178 8.51338 14.4365 8.7809C14.1552 9.04841 13.9971 9.41123 13.9971 9.78955Z" fill="black"/>
</svg>
