<svg width="18" height="18" viewBox="0 0 23 22" fill="none" xmlns="http://www.w3.org/2000/svg">
<g clip-path="url(#clip0_514_150)">
<path d="M40.5215 -12.1396L38.0703 33.4727H-18.5254L-16.3574 -12.1396H40.5215Z" fill="" stroke="black" stroke-width="1.72087" stroke-linejoin="round"/>
<path d="M7.48554 0H6.16005V3.97646H2.18359V7.95292H20.7404V3.97646H16.764V0H15.4385C14.3838 0 13.3724 0.418947 12.6267 1.16468C11.8809 1.91041 11.462 2.92184 11.462 3.97646C11.462 2.92184 11.0431 1.91041 10.2973 1.16468C9.55159 0.418947 8.54016 0 7.48554 0ZM20.7404 9.94115H12.4561V21.2078H20.7404V9.94115ZM10.4679 21.2078V9.94115H2.18359V21.2078H10.4679Z" fill="black"/>
</g>
<defs>
<clipPath id="clip0_514_150">
<rect width="21.2078" height="21.2078" fill="" transform="translate(0.857422)"/>
</clipPath>
</defs>
</svg>
