<svg width="18" height="18" viewBox="0 0 12 13" fill="none" xmlns="http://www.w3.org/2000/svg">
<path d="M6.59903 12.0609C6.42064 12.0609 6.27121 12.0004 6.15074 11.8795C6.03027 11.7586 5.96982 11.6092 5.9694 11.4312C5.96898 11.2533 6.02943 11.1038 6.15074 10.9829C6.27204 10.8621 6.42148 10.8016 6.59903 10.8016H10.3768V1.9868H6.59903C6.42064 1.9868 6.27121 1.92635 6.15074 1.80546C6.03027 1.68458 5.96982 1.53514 5.9694 1.35717C5.96898 1.17919 6.02943 1.02976 6.15074 0.908872C6.27204 0.787984 6.42148 0.727539 6.59903 0.727539H10.3768C10.7231 0.727539 11.0197 0.850947 11.2665 1.09776C11.5133 1.34458 11.6365 1.64092 11.6361 1.9868V10.8016C11.6361 11.1479 11.5129 11.4445 11.2665 11.6913C11.0201 11.9381 10.7235 12.0613 10.3768 12.0609H6.59903ZM5.44996 7.02384H0.932366C0.753971 7.02384 0.604539 6.96339 0.48407 6.8425C0.363601 6.72161 0.303156 6.57218 0.302737 6.39421C0.302317 6.21623 0.362761 6.0668 0.48407 5.94591C0.605379 5.82502 0.754811 5.76458 0.932366 5.76458H5.44996L4.2694 4.58402C4.15397 4.46859 4.09625 4.32692 4.09625 4.15902C4.09625 3.99112 4.15397 3.84421 4.2694 3.71828C4.38483 3.59235 4.53175 3.52666 4.71014 3.52121C4.88854 3.51575 5.0407 3.57619 5.16663 3.70254L7.41755 5.95346C7.54348 6.07939 7.60644 6.2263 7.60644 6.39421C7.60644 6.56211 7.54348 6.70902 7.41755 6.83495L5.16663 9.08587C5.0407 9.2118 4.89127 9.27224 4.71833 9.26721C4.54539 9.26217 4.39575 9.19648 4.2694 9.07013C4.15397 8.94421 4.09898 8.79477 4.10444 8.62184C4.1099 8.4489 4.17013 8.3045 4.28514 8.18865L5.44996 7.02384Z" fill="black"/>
</svg>
