<svg width="36" height="36" viewBox="0 0 36 36" fill="none" xmlns="http://www.w3.org/2000/svg">
<path d="M18.1236 3.82837L17.6987 3.83732C15.8387 3.87651 14.0047 4.28166 12.3013 5.02965C10.5979 5.77764 9.05849 6.85381 7.771 8.19672C5.17078 10.9089 3.75446 14.5428 3.8336 18.2992C3.91274 22.0556 5.48087 25.6268 8.193 28.227C9.53592 29.5145 11.1193 30.5249 12.8527 31.2004C14.5861 31.876 16.4355 32.2036 18.2955 32.1644C22.5446 32.0748 24.9225 30.6078 27.4272 28.4295C19.682 30.7182 12.4809 25.202 12.3317 18.1202C12.1825 11.0384 19.1449 5.22383 26.9796 7.18424C25.8041 6.05938 24.4142 5.18258 22.8928 4.60604C21.3713 4.02951 19.7494 3.76503 18.1236 3.82837ZM24.6225 9.64277L22.6025 14.6448L17.3709 15.1801L21.5529 18.6344L20.3827 23.6185L24.8553 20.6903L29.4473 23.4275L27.9265 18.5001L32.101 14.8697L26.8515 14.5552L24.6225 9.64277Z" fill="black"/>
</svg>
