<svg width="34" height="34" viewBox="0 0 34 34" fill="none" xmlns="http://www.w3.org/2000/svg">
<path d="M31.1654 12.0411L8.4987 29.0411V22.3884M2.83203 12.0411L25.4987 29.0411V22.3884M27.8334 7.70183L26.8998 6.22425C26.3841 5.40683 26.1263 4.99742 25.7877 4.96058C25.4505 4.92233 25.0723 5.3105 24.3172 6.08683C21.8777 8.59433 19.4382 8.22317 16.9987 12.7324C14.5592 8.22317 12.1197 8.59433 9.6802 6.08683C8.92512 5.3105 8.54686 4.92233 8.2097 4.96058C7.87111 4.99742 7.61328 5.40683 7.09762 6.22425L6.16545 7.70183C5.8042 8.27133 5.62428 8.5575 5.67386 8.85783C5.72203 9.15817 5.98128 9.36358 6.5012 9.77442L15.259 16.7133C16.0963 17.3763 16.5156 17.7078 16.9987 17.7078C17.4818 17.7078 17.9011 17.3763 18.7384 16.7133L27.4962 9.77442C28.0161 9.36358 28.2754 9.15817 28.3235 8.85783C28.3731 8.5575 28.1932 8.27133 27.8334 7.70183Z" stroke="black" stroke-width="2.125" stroke-linecap="round" stroke-linejoin="round"/>
</svg>
