<svg width="24" height="24" viewBox="0 0 45 45" fill="none" xmlns="http://www.w3.org/2000/svg">
<path d="M40.9982 22.1348C40.9982 32.258 32.7922 40.464 22.669 40.464C12.5458 40.464 4.33984 32.258 4.33984 22.1348C4.33984 12.0116 12.5458 3.80566 22.669 3.80566C32.7922 3.80566 40.9982 12.0116 40.9982 22.1348Z" stroke="#FFF" stroke-width="2.74938" stroke-linecap="round" stroke-linejoin="round"/>
<path d="M33.6654 20.3025V22.1354C33.6654 23.5937 33.086 24.9924 32.0548 26.0236C31.0236 27.0548 29.625 27.6341 28.1666 27.6341M20.8349 14.8037V23.0518C20.8349 23.538 21.0281 24.0042 21.3718 24.3479C21.7155 24.6916 22.1817 24.8848 22.6679 24.8848H24.5008C24.9869 24.8848 25.4531 24.6916 25.7968 24.3479C26.1406 24.0042 26.3337 23.538 26.3337 23.0518M16.2527 14.8037V23.0518C16.2527 23.538 16.0595 24.0042 15.7158 24.3479C15.3721 24.6916 14.9059 24.8848 14.4197 24.8848H12.5868C12.1007 24.8848 11.6345 24.6916 11.2908 24.3479C10.947 24.0042 10.7539 23.538 10.7539 23.0518M20.8349 28.5323V28.5506M24.5008 28.5506V28.5689" stroke="#FFF" stroke-width="2.74938" stroke-linecap="round" stroke-linejoin="round"/>
</svg>
