<svg width="24" height="24" viewBox="0 0 36 37" fill="none" xmlns="http://www.w3.org/2000/svg">
<g clip-path="url(#clip0_565_529)">
<path d="M22.9351 22.2164C22.715 22.1444 21.3234 21.5171 22.193 18.8739H22.1805C24.4471 16.5395 26.1793 12.783 26.1793 9.08468C26.1793 3.39807 22.3979 0.416992 18.0031 0.416992C13.6056 0.416992 9.84496 3.39668 9.84496 9.08468C9.84496 12.7982 11.5674 16.5699 13.8479 18.8988C14.7368 21.2305 13.1473 22.0959 12.815 22.2178C8.2125 23.8821 2.8125 26.9158 2.8125 29.9107V31.0336C2.8125 35.1141 10.7242 36.0418 18.046 36.0418C25.379 36.0418 33.191 35.1141 33.191 31.0336V29.9107C33.191 26.8258 27.7647 23.8156 22.9351 22.2164Z" fill="white"/>
</g>
<defs>
<clipPath id="clip0_565_529">
<rect width="36" height="36" fill="white" transform="translate(0 0.201172)"/>
</clipPath>
</defs>
</svg>
